<?xml version="1.0" standalone="no"?>
<!DOCTYPE svg PUBLIC "-//W3C//DTD SVG 1.1//EN" "http://www.w3.org/Graphics/SVG/1.1/DTD/svg11.dtd" >
<svg xmlns="http://www.w3.org/2000/svg" xmlns:xlink="http://www.w3.org/1999/xlink" version="1.1">
<metadata></metadata>
<defs>
<font id="heorotregular" horiz-adv-x="1015" >
<font-face units-per-em="2048" ascent="1638" descent="-410" />
<missing-glyph horiz-adv-x="700" />
<glyph horiz-adv-x="0" />
<glyph unicode="&#xd;" horiz-adv-x="1024" />
<glyph unicode=" "  horiz-adv-x="700" />
<glyph unicode="&#x09;" horiz-adv-x="700" />
<glyph unicode="&#xa0;" horiz-adv-x="700" />
<glyph unicode="!" horiz-adv-x="466" d="M102 166l142 141l141 -141l-141 -141zM164 393l2 940h172v-940h-174z" />
<glyph unicode="&#x22;" horiz-adv-x="794" d="M102 1210l142 -370l141 370l-141 142zM430 1214l141 -370l142 370l-142 142z" />
<glyph unicode="#" horiz-adv-x="1097" d="M102 524v195q31 0 181 -53v161l-181 64v194q31 0 181 -53v359h182v-430q59 -23 97 -38.5t59 -23.5l34 -12v358h183v-430q92 -35 135 -53l43 -17q-2 -2 -8 -77q-6 -70 -25 -101l-145 51v-169q92 -35 135 -53l43 -17q-2 -2 -8 -78q-6 -70 -25 -100l-145 51v-348h-183v411 l-180 64v14l-10 4v-348h-182v412zM465 594q59 -23 97 -38t59 -24l34 -12v162l-180 63v15l-10 4v-170z" />
<glyph unicode="$" horiz-adv-x="1179" d="M102 868l420 400v270h172v-111q35 -18 64.5 -46.5t58.5 -75.5l-123 -123v-203l404 -389q-8 -14 -45 -54t-103 -110q-66 -68 -129 -131.5t-127 -122.5v-403h-172v274q-41 0 -70.5 33t-54.5 65q0 25 95 113l30 29v153zM383 868l139 -145v285zM694 449q94 92 123 141 l-123 123v-264z" />
<glyph unicode="%" horiz-adv-x="1556" d="M102 997l306 -340l309 342v9l-301 338l-314 -340v-9zM240 1006l170 184l170 -182l-172 -197zM395 2h187v373l385 319l213 185v467h-187v-347q0 -39 -176 -190q-43 -37 -109.5 -92t-131 -107.5t-115.5 -93.5t-66 -49v-465zM860 340l305 -340l310 342v8l-301 338l-314 -340 v-8zM997 348l170 184l170 -182l-172 -196z" />
<glyph unicode="&#x26;" d="M102 455v14l387 229q-41 53 -194 133q-76 39 -124 67t-69 44l818 457h14v-205l-215 -115q-10 -10 -36 -27.5t-71 -43.5q-41 -23 -71.5 -41.5t-46.5 -32.5q49 -27 110.5 -58.5t114.5 -54.5l215 -112v-918h-172v283zM494 449q18 -14 45.5 -32.5t66.5 -41.5q78 -49 109 -58 l47 -24v330z" />
<glyph unicode="'" horiz-adv-x="466" d="M102 1214l142 -370l141 370l-141 142z" />
<glyph unicode="(" horiz-adv-x="751" d="M102 723l402 647l153 -96l-333 -565l346 -621q-8 -6 -24.5 -15.5t-37 -20.5t-41 -23.5t-35.5 -24.5h-43z" />
<glyph unicode=")" horiz-adv-x="751" d="M102 88q8 -6 24.5 -15.5t37 -20.5t41 -23.5t35.5 -24.5h43l387 719l-402 647l-153 -96l334 -565z" />
<glyph unicode="*" horiz-adv-x="782" d="M102 1081h181l-154 254q8 4 21.5 11.5t29.5 15.5q20 10 34 14t24 8l159 -237h11l167 229l95 -47l-158 -231l188 8l-18 -166l-201 33l195 -246q-10 -6 -38 -18.5t-46 -24.5h-25l-159 246h-17l-176 -246q-43 14 -63.5 23.5t-30.5 31.5l162 234l-170 -17z" />
<glyph unicode="+" horiz-adv-x="921" d="M102 672q12 4 63.5 6t121.5 2h90v205l180 69q4 -12 6 -63t2 -123v-90q119 0 179 -1l61 -1v-2q0 -12 20 -74q0 -2 1 -4t1 -4q12 -43 13 -74q0 -18 -2 -22h-275q0 -123 -1 -184l-1 -60h-2q-12 0 -74 -21q-2 0 -4 -1t-4 -1q-43 -12 -74 -12q-18 0 -22 2v273h-209z" />
<glyph unicode="," horiz-adv-x="466" d="M102 166l142 -141l-105 -228l246 228v141l-141 141z" />
<glyph unicode="-" horiz-adv-x="724" d="M102 707v194q49 0 293 -98q125 -47 187 -71l61 -25q-2 -2 -8 -78q-6 -70 -25 -101z" />
<glyph unicode="." horiz-adv-x="466" d="M102 166l142 -141l141 141l-141 141z" />
<glyph unicode="/" horiz-adv-x="968" d="M102 2h187v373l385 319l213 185v467h-187v-347q0 -39 -176 -190q-43 -37 -109.5 -92t-131 -107.5t-115.5 -93.5t-66 -49v-465z" />
<glyph unicode="0" horiz-adv-x="1415" d="M102 643v19l627 679l604 -675v-19l-618 -684zM377 662l338 -390l344 394l-340 364zM571 655l142 142l141 -142l-141 -141z" />
<glyph unicode="1" horiz-adv-x="829" d="M102 991l619 359h27v-1362h-193v1030h-29l-315 -178q-35 25 -66 78q-31 55 -43 73z" />
<glyph unicode="2" horiz-adv-x="1179" d="M102 590q8 -14 45 -54t103 -110q68 -70 134.5 -135.5t131.5 -126.5q133 -121 160 -121q41 0 71.5 33t55.5 65q0 25 -94 113q-96 92 -197 190q-104 96 -129 146l279 278q-23 25 -39.5 42.5t-30.5 31.5t-30.5 26.5t-39.5 26.5zM383 1305l434 -437l-280 -293l139 -141 l422 434l-588 562q-35 -18 -66.5 -47t-60.5 -78z" />
<glyph unicode="3" d="M102 -16h15l817 471v14l-387 229q41 53 194 133q76 39 124 67t69 44l-817 457h-15v-205l215 -115q10 -10 36 -27.5t71 -43.5q41 -23 71.5 -41.5t47.5 -32.5q-49 -27 -110.5 -58.5t-115.5 -54.5l-192 -102l418 -270q-18 -14 -46 -33t-67 -41q-74 -47 -108 -58l-220 -110 v-223z" />
<glyph unicode="4" horiz-adv-x="968" d="M102 266l572 428h26v-692q43 -6 68 -6t64.5 3t54.5 3v1344h-187v-347q0 -39 -176 -190q-88 -74 -147.5 -119t-87.5 -61v717h-187v-1080z" />
<glyph unicode="5" horiz-adv-x="1271" d="M102 461q27 57 59 95t62 58l324 -213v1104l643 -444q-16 -39 -48 -84t-73 -86l-309 231v-1136z" />
<glyph unicode="6" horiz-adv-x="970" d="M102 -6h15l772 426l-148 74t-182 92q-100 49 -167.5 81.5t-102.5 49.5v639h-187v-1362zM291 301v211l198 -100z" />
<glyph unicode="7" horiz-adv-x="983" d="M102 1085q8 -20 23.5 -61t32.5 -90h55l494 180h14v-1116h180v1376h-14z" />
<glyph unicode="8" horiz-adv-x="1132" d="M102 -6h916l-338 715l371 634h-932l352 -634zM406 1171v3h2h354l-195 -265q-162 242 -161 262zM408 180q160 295 159 312l209 -312h-368z" />
<glyph unicode="9" horiz-adv-x="970" d="M102 932l148 -74t182 -92q100 -49 168 -82t102 -49v-639h187v1362h-15zM502 940l198 111v-211z" />
<glyph unicode=":" horiz-adv-x="466" d="M102 166l142 -141l141 141l-141 141zM102 608l142 -141l141 141l-141 142z" />
<glyph unicode=";" horiz-adv-x="471" d="M102 166l142 -141l-105 -228l250 258l-4 111l-141 141zM102 608l142 -141l141 141l-141 142z" />
<glyph unicode="&#x3c;" horiz-adv-x="751" d="M102 723l402 647l153 -96l-333 -565l346 -621q-8 -6 -24.5 -15.5t-37 -20.5t-41 -23.5t-35.5 -24.5h-43z" />
<glyph unicode="=" horiz-adv-x="724" d="M102 420v194q49 0 293 -98q125 -47 187 -72l61 -24q-2 -2 -8 -78q-6 -70 -25 -100zM102 786v195q49 0 293 -98q125 -47 187 -72l61 -25q-2 -2 -8 -77q-6 -70 -25 -101z" />
<glyph unicode="&#x3e;" horiz-adv-x="751" d="M102 88q8 -6 24.5 -15.5t37 -20.5t41 -23.5t35.5 -24.5h43l387 719l-402 647l-153 -96l334 -565z" />
<glyph unicode="?" horiz-adv-x="1167" d="M102 735l230 -336h192l-75 133h636l-483 854q-4 -4 -23.5 -15t-52.5 -30q-33 -16 -56.5 -35.5t-39.5 -39.5l318 -531h-646zM287 141l141 -141l141 141l-141 142z" />
<glyph unicode="@" horiz-adv-x="1327" d="M102 -209v1706l1143 -307l-227 -592l-268 -233l-285 288l297 308l127 -109l102 231l-700 111h-15v-1174l902 109l49 -229z" />
<glyph unicode="A" horiz-adv-x="991" d="M102 0v991l807 400v-1377h-188v500l-426 -373v-141h-193zM295 379l426 414v280q-27 -8 -79 -29.5t-130 -60.5q-78 -37 -131 -65.5t-86 -49.5v-489z" />
<glyph unicode="B" d="M102 -8h15l817 471v14l-387 230q41 53 194 133q76 39 124 66.5t69 43.5l-817 457h-15v-1415zM317 588q18 -10 54.5 -31.5l73 -43t65.5 -38t33 -18.5q-18 -14 -46 -32.5t-67 -41.5q-78 -49 -108 -57zM317 829v258q10 -10 36 -27.5t71 -43.5q41 -23 71.5 -41.5t47.5 -32.5 q-49 -27 -110.5 -58.5t-115.5 -54.5z" />
<glyph unicode="C" horiz-adv-x="1081" d="M27 649l809 -674q66 37 96.5 76t66.5 88l-610 529l610 493q-33 47 -55 79t-37 46l-55 55l-825 -673v-19z" />
<glyph unicode="D" horiz-adv-x="1105" d="M102 -12h142l831 661v19l-801 653v8h-172v-1341zM274 287v735l439 -354z" />
<glyph unicode="E" d="M102 455l818 -471h14v223l-219 110q-31 8 -109 58q-39 23 -66.5 41t-45.5 33l417 270l-192 102q-53 23 -114.5 54.5t-110.5 58.5q16 14 46.5 32.5t71.5 41.5q45 27 71 44t36 27l215 115v205h-14l-818 -457q20 -16 68.5 -44t124.5 -67q154 -80 194 -133l-387 -229v-14z " />
<glyph unicode="F" horiz-adv-x="983" d="M102 18h181v689h14l494 -179q18 31 24 101q6 76 8 78l-61 25q-62 24 -187 71q-244 98 -292 98v234h14l494 -181h55q16 49 31.5 90t23.5 62l-784 289h-15v-1377z" />
<glyph unicode="G" horiz-adv-x="995" d="M102 -18v1361l793 -98l-49 -229l-557 98v-829q35 8 87 30.5t128 59.5q133 66 133 67h-4l-164 279l213 98l231 -452z" />
<glyph unicode="H" horiz-adv-x="968" d="M102 2v1344h187v-717q29 16 88 61t147 119q176 152 176 190v347h187v-1344q-14 0 -54 -3t-65 -3t-68 6v692h-26l-385 -319v-373h-187z" />
<glyph unicode="I" horiz-adv-x="1196" d="M102 500l498 -498q6 2 133 123q63 59 126 118.5t126 118.5q119 113 125 119q-29 31 -63.5 69t-59.5 60l-274 -235v637l276 -264q4 4 20.5 19t37 33.5t39 38t28.5 33.5l-498 498q-6 -2 -133 -123q-63 -59 -125.5 -118.5t-126.5 -118.5q-125 -119 -127 -119q29 -31 65 -69 t60 -60l289 248v-650h-14l-277 265q-4 -4 -21.5 -19.5t-36.5 -34t-38.5 -38t-28.5 -33.5z" />
<glyph unicode="J" horiz-adv-x="792" d="M102 481q29 31 65 69t60 60l289 -248v1008h195v-1370l-97 2q-8 4 -133 123q-63 59 -125.5 118.5t-126.5 118.5q-125 119 -127 119z" />
<glyph unicode="K" horiz-adv-x="972" d="M102 -16h179q-2 20 -3.5 35.5t-1.5 25.5v61q0 88 1.5 187.5t1.5 216.5l514 -449q2 12 17 35t32.5 44.5t32 37t16.5 17.5q-33 43 -229 221q-207 188 -236 194l453 275l-78 170l-525 -307l3 583l-177 2v-1349z" />
<glyph unicode="L" horiz-adv-x="983" d="M102 -2v1376h181v-1116h14l494 180h55q16 -49 31.5 -90t23.5 -61l-784 -289h-15z" />
<glyph unicode="M" horiz-adv-x="980" d="M102 -10h193v958q4 -4 28.5 -23.5t69.5 -54.5q89 -71 108 -71h1q47 37 95 74.5t110 48.5v-932h192v1356q-45 -23 -100.5 -65t-124.5 -101q-70 -57 -117 -91t-70 -45l-370 316h-15v-1370z" />
<glyph unicode="N" horiz-adv-x="995" d="M102 -4h193v1059q27 -8 79 -29.5t130 -60.5q78 -37 131 -66t86 -49v-868h192v991l-811 385v-1362z" />
<glyph unicode="O" horiz-adv-x="1355" d="M43 643l612 -680l619 684v19l-604 675l-627 -679v-19zM317 662l342 368l340 -364l-344 -394z" />
<glyph unicode="P" horiz-adv-x="970" d="M102 -4h187v639q35 16 102.5 49t167.5 82q100 51 182 92l148 74l-772 426h-15v-1362zM291 840v211l198 -111z" />
<glyph unicode="Q" horiz-adv-x="1290" d="M102 137q20 -47 67.5 -89t94.5 -75q43 53 93.5 113.5t102.5 117t104 105.5t98 80l407 -405q43 33 78 66.5t61 72.5l-405 420l350 350l-506 504l-489 -490l352 -364zM446 893q23 23 51.5 54.5t67.5 70.5q37 37 57.5 58.5t24.5 27.5q14 -14 43 -40t70 -67 q43 -41 67.5 -63.5t30.5 -26.5q-53 -49 -105.5 -98t-105.5 -98q-4 8 -86 86q-80 74 -115 96z" />
<glyph unicode="R" horiz-adv-x="972" d="M102 -16h179q-2 20 -3.5 35.5t-1.5 25.5v61q0 88 1.5 187.5t1.5 216.5l514 -449q2 12 17 35t32.5 44.5t32 37t16.5 17.5q-33 43 -229 221q-207 188 -236 194l453 275l-764 448h-13v-1349zM276 748v286q4 -2 36 -19.5t91 -51.5q59 -33 95.5 -52.5t48.5 -23.5z" />
<glyph unicode="S" horiz-adv-x="1167" d="M102 532h637l-305 -505l152 -117l499 825h-645l318 531q-16 20 -40 39.5t-56 35.5q-33 18 -52.5 29.5t-23.5 15.5z" />
<glyph unicode="T" horiz-adv-x="1193" d="M102 891q29 -31 65 -69t60 -60l289 248v-1008h195l-4 1010l280 -264q4 4 20.5 19t37 33.5t39 38t28.5 33.5l-498 498q-8 -4 -133 -123q-63 -59 -125.5 -118.5t-126.5 -118.5q-125 -119 -127 -119z" />
<glyph unicode="U" horiz-adv-x="995" d="M102 367v991h193v-869q33 -20 86 -48.5t131 -65.5q78 -39 130 -60.5t79 -29.5v1058h192v-1361z" />
<glyph unicode="V" horiz-adv-x="1105" d="M102 1130l160 246l279 -841v28l329 758l154 -191l-483 -1130z" />
<glyph unicode="W" horiz-adv-x="980" d="M102 6q43 23 98.5 64t125.5 100q137 117 188 137l371 -315h14v1370h-192v-959q-4 4 -29 23.5t-70 54.5q-90 72 -108 72q-47 -37 -95.5 -75t-109.5 -48v932h-193v-1356z" />
<glyph unicode="X" horiz-adv-x="1095" d="M102 115q18 -43 51 -62.5t103 -48.5l289 483h26l263 -483h43q14 12 34.5 24.5t41 23.5t37 20.5t24.5 15.5l-346 621l333 565l-153 96l-277 -455h-14l-262 469q-33 -8 -94 -43q-29 -16 -49.5 -29.5t-34.5 -23.5l329 -565z" />
<glyph unicode="Y" horiz-adv-x="1216" d="M102 1149l426 -481v-674h181v674q0 18 88 112t213 219q123 123 125 123q0 25 -45 64q-23 20 -42.5 35.5t-35.5 25.5l-289 -262h-14v399h-181v-413h-26l-275 289q-29 -29 -62.5 -61t-62.5 -50z" />
<glyph unicode="Z" horiz-adv-x="1271" d="M102 1061l643 444v-1104l324 213q31 -20 62.5 -58t58.5 -95l-658 -475v1136l-309 -231q-41 41 -72.5 86t-48.5 84z" />
<glyph unicode="[" horiz-adv-x="712" d="M102 -2v1376h15l514 -131q-8 -20 -23.5 -61t-32.5 -90h-55l-221 61h-14v-934h14l221 62h55q16 -49 32 -90t24 -62l-514 -131h-15z" />
<glyph unicode="\" horiz-adv-x="968" d="M102 879v467h187v-347q0 -39 176 -190q43 -37 109.5 -92t131 -107.5t115.5 -93.5t66 -49v-465h-187v373l-385 319z" />
<glyph unicode="]" horiz-adv-x="712" d="M102 129l514 -131h15v1376h-15l-514 -131q8 -20 23.5 -61t32.5 -90h55l221 61h15v-934h-15l-221 62h-55q-16 -49 -31.5 -90t-24.5 -62z" />
<glyph unicode="^" horiz-adv-x="1093" d="M102 721v33l459 622l451 -704l-172 -99l-279 492v-16l-328 -443l-131 131v-16z" />
<glyph unicode="_" horiz-adv-x="626" d="M12 143q47 18 310 13q135 0 200 -1l66 -1q-2 -2 20 -76q8 -35 12.5 -59.5t0.5 -43.5l-539 -12z" />
<glyph unicode="`" horiz-adv-x="534" d="M102 1094l351 -189l-136 373l-200 16z" />
<glyph unicode="a" horiz-adv-x="991" d="M102 0v991l807 400v-1377h-188v500l-426 -373v-141h-193zM295 379l426 414v280q-27 -8 -79 -29.5t-130 -60.5q-78 -37 -131 -65.5t-86 -49.5v-489z" />
<glyph unicode="b" horiz-adv-x="995" d="M102 -8h15l817 471v14l-387 230q41 53 194 133q76 39 124 66.5t69 43.5l-817 457h-15v-1415zM301 1108q6 -10 50 -32.5t96.5 -48.5t96.5 -48.5t54 -30.5q-25 -12 -63.5 -29.5t-79.5 -36t-81 -35t-67 -28.5zM307 295v321l309 -143q-23 -10 -64.5 -34.5t-87.5 -52.5 t-89 -53.5t-68 -37.5z" />
<glyph unicode="c" horiz-adv-x="1064" d="M39 649l809 -674q33 18 52.5 37t32.5 37.5t24.5 40t29.5 45.5l-633 535l641 497l-131 174l-825 -673v-19z" />
<glyph unicode="d" horiz-adv-x="1116" d="M102 -12h142l831 661v19l-801 653v8h-172v-1341zM274 250v817l494 -399z" />
<glyph unicode="e" d="M102 455l818 -471h14v223l-219 110q-31 8 -109 58q-39 23 -66.5 41t-45.5 33l417 270l-192 102q-53 23 -114.5 54.5t-110.5 58.5q16 14 46.5 32.5t71.5 41.5q45 27 71 44t36 27l215 115v205h-14l-818 -457q20 -16 68.5 -44t124.5 -67q154 -80 194 -133l-387 -229v-14z " />
<glyph unicode="f" horiz-adv-x="983" d="M102 18h181v689h14l494 -179q18 31 24 101q6 76 8 78l-61 25q-62 24 -187 71q-244 98 -292 98v234h14l494 -181h55q16 49 31.5 90t23.5 62l-784 289h-15v-1377z" />
<glyph unicode="g" horiz-adv-x="995" d="M102 -18l811 385l-231 452l-213 -98l164 -279h4q0 -2 -133 -67q-76 -37 -128 -59.5t-87 -30.5v829l555 -86l51 217l-793 98v-1361z" />
<glyph unicode="h" horiz-adv-x="968" d="M102 2v1344h187v-717q29 16 88 61t147 119q176 152 176 190v347h187v-1344q-14 0 -54 -3t-65 -3t-68 6v692h-26l-385 -319v-373h-187z" />
<glyph unicode="i" horiz-adv-x="366" d="M102 -8h183v1341h-183v-1341z" />
<glyph unicode="j" horiz-adv-x="792" d="M102 481q29 31 65 69t60 60l289 -248v1008h195v-1370l-97 2q-8 4 -133 123q-63 59 -125.5 118.5t-126.5 118.5q-125 119 -127 119z" />
<glyph unicode="k" horiz-adv-x="972" d="M102 -16h179q-2 20 -3.5 35.5t-1.5 25.5v61q0 88 1.5 187.5t1.5 216.5l514 -449q2 12 17 35t32.5 44.5t32 37t16.5 17.5q-33 43 -229 221q-207 188 -236 194l453 275l-78 170l-525 -307l3 583l-177 2v-1349z" />
<glyph unicode="l" horiz-adv-x="983" d="M102 -2v1376h181v-1116h14l494 180h55q16 -49 31.5 -90t23.5 -61l-784 -289h-15z" />
<glyph unicode="m" horiz-adv-x="980" d="M102 -10h193v958q4 -4 28.5 -23.5t69.5 -54.5q89 -71 108 -71h1q47 37 95 74.5t110 48.5v-932h192v1356q-45 -23 -100.5 -65t-124.5 -101q-70 -57 -117 -91t-70 -45l-370 316h-15v-1370z" />
<glyph unicode="n" horiz-adv-x="968" d="M102 2v1344h187v-179l413 -671v850h185v-1344h-187v240l-415 620v-860h-183z" />
<glyph unicode="o" horiz-adv-x="1366" d="M53 643l613 -680l618 684v19l-604 675l-627 -679v-19zM328 662l342 368l340 -364l-344 -394z" />
<glyph unicode="p" horiz-adv-x="970" d="M102 -4h187v639q35 16 102.5 49t167.5 82q100 51 182 92l148 74l-772 426h-15v-1362zM291 840v211l198 -111z" />
<glyph unicode="q" horiz-adv-x="1290" d="M102 137q20 -47 67.5 -89t94.5 -75q43 53 93.5 113.5t102.5 117t104 105.5t98 80l407 -405q43 33 78 66.5t61 72.5l-405 420l350 350l-506 504l-489 -490l352 -364zM446 893q23 23 51.5 54.5t67.5 70.5q37 37 57.5 58.5t24.5 27.5q14 -14 43 -40t70 -67 q43 -41 67.5 -63.5t30.5 -26.5q-53 -49 -105.5 -98t-105.5 -98q-4 8 -86 86q-80 74 -115 96z" />
<glyph unicode="r" horiz-adv-x="972" d="M102 -16h179q-2 10 -2 24v23v479l514 -449q2 12 17 35t32.5 44.5t32 37t16.5 17.5q-33 43 -229 221q-207 188 -236 194l453 275l-764 448h-13v-1349zM276 748v286q8 -2 127 -69q59 -35 95.5 -54.5t48.5 -23.5z" />
<glyph unicode="s" horiz-adv-x="1130" d="M66 532h636l-305 -505l152 -117l500 825h-646l318 531q-16 20 -40 39.5t-56 35.5q-33 18 -52.5 29.5t-23.5 15.5z" />
<glyph unicode="t" horiz-adv-x="1193" d="M102 891q29 -31 65 -69t60 -60l289 248v-1008h195v1010l276 -264q4 4 20.5 19t37 33.5t39 38t28.5 33.5l-498 498q-8 -4 -133 -123q-63 -59 -125.5 -118.5t-126.5 -118.5q-125 -119 -127 -119z" />
<glyph unicode="u" horiz-adv-x="995" d="M102 -18v1361h193v-1058q27 8 79 29.5t130 60.5q78 37 131 65.5t86 48.5v869h192v-991z" />
<glyph unicode="v" horiz-adv-x="1105" d="M102 1130l160 246l279 -841v28l329 758l154 -191l-483 -1130z" />
<glyph unicode="w" horiz-adv-x="980" d="M102 6q43 23 98.5 64t125.5 100q137 117 188 137l371 -315h14v1370h-192v-959q-4 4 -29 23.5t-70 54.5q-90 72 -108 72q-47 -37 -95.5 -75t-109.5 -48v932h-193v-1356z" />
<glyph unicode="x" horiz-adv-x="1095" d="M102 115q18 -43 51 -62.5t103 -48.5l289 483h26l263 -483h43q14 12 34.5 24.5t41 23.5t37 20.5t24.5 15.5l-346 621l333 565l-153 96l-277 -455h-14l-262 469q-33 -8 -94 -43q-29 -16 -49.5 -29.5t-34.5 -23.5l329 -565z" />
<glyph unicode="y" horiz-adv-x="1216" d="M102 1149l426 -481v-674h181v674q0 18 88 112t213 219q123 123 125 123q0 25 -45 64q-23 20 -42.5 35.5t-35.5 25.5l-289 -262h-14v399h-181v-413h-26l-275 289q-29 -29 -62.5 -61t-62.5 -50z" />
<glyph unicode="z" horiz-adv-x="1167" d="M102 735h646l-318 531q16 20 40 39.5t56 35.5q33 18 52.5 29.5t23.5 15.5l483 -854h-636l305 -505l-152 -117z" />
<glyph unicode="{" d="M102 455v487l818 457h14v-205l-647 -363v-270l647 -354v-223h-14z" />
<glyph unicode="|" horiz-adv-x="356" d="M102 -201v1737h172v-1737h-172z" />
<glyph unicode="}" d="M102 -16h15l817 471v487l-817 457h-15v-205l648 -363v-270l-648 -354v-223z" />
<glyph unicode="~" horiz-adv-x="1046" d="M102 514l260 84l259 -82h176l168 258l-260 -84l-261 82h-174z" />
<glyph horiz-adv-x="526" />
<glyph unicode="&#xa1;" horiz-adv-x="466" d="M102 1190l142 141l141 -141l-141 -141zM150 23v940h174l-2 -940h-172z" />
<glyph unicode="&#xa2;" horiz-adv-x="1157" d="M102 649v19l568 462v406h172v-266l86 71l55 -55q14 -14 36.5 -46t55.5 -79l-233 -188v-633l233 -201q-37 -49 -67.5 -88t-96.5 -76l-69 58v-234h-172v377zM465 668l205 -179v345z" />
<glyph unicode="&#xa3;" horiz-adv-x="983" d="M102 18v1377h181v-688h14l494 178q18 -31 24 -101q6 -76 8 -77l-61 -25q-62 -25 -187 -72q-244 -98 -292 -98v-233h14l494 180h55q16 -49 31.5 -90t23.5 -62l-784 -289h-15z" />
<glyph unicode="&#xa4;" horiz-adv-x="1095" d="M102 115q18 -43 51 -62.5t103 -48.5l213 356l90 -104l84 98l191 -350h43q14 12 34.5 24.5t41 23.5t37 20.5t24.5 15.5l-236 422l164 190l-170 185l229 389l-153 96l-207 -340l-76 84l-73 -82l-197 352q-33 -8 -94 -43q-29 -16 -49.5 -29.5t-34.5 -23.5l235 -407 l-168 -185l148 -174zM369 692l188 221l188 -219l-190 -237z" />
<glyph unicode="&#xa5;" horiz-adv-x="1216" d="M102 1149q29 18 63 50t62 61l275 -289h26v413h181v-399h14l289 262q16 -10 35.5 -25.5t42.5 -35.5q45 -39 45 -64q-2 0 -125 -123q-125 -125 -213 -219t-88 -112v-2h155v-2q0 -6 21 -74q6 -23 10 -43.5t4 -36.5t-2 -21l-188 -8v-168h161v-2q0 -4 21 -71q6 -25 10 -44.5 t4 -35.5q0 -18 -2 -23l-194 -8v-135h-181v125h-161l-70 180q16 4 73.5 8t157.5 6v162l-168 -6l-71 182q20 6 80.5 10.5t158.5 4.5z" />
<glyph unicode="&#xa6;" horiz-adv-x="356" d="M102 -233v1769h172v-1769h-172z" />
<glyph unicode="&#xa7;" horiz-adv-x="1083" d="M102 115q18 -43 51 -62.5t103 -48.5l213 356l90 -104l383 444l-170 185l229 389l-153 96l-207 -340l-76 84l-381 -418l148 -174zM369 692l188 221l188 -219l-190 -237z" />
<glyph unicode="&#xa8;" horiz-adv-x="849" d="M102 1397l142 141l141 -141l-141 -142zM485 1393l142 141l141 -141l-141 -142z" />
<glyph unicode="&#xa9;" horiz-adv-x="2926" d="M102 645l19 -82l201 -86l-111 -84q0 -66 55 -65l289 -47l-55 -54v-63l471 -35l-19 -82l58 -33l452 66v-100l56 -17l344 166l110 -100l90 18l181 180q59 -33 104 -50t80 -17q49 0 72 37l18 196l180 -33q57 14 58 72v12q0 16 -2 19l-111 131h164l35 68q4 4 4 6 q0 47 -240 125q129 14 129 96v10v10l-364 86q74 12 73 97l-37 34h-434l17 101l-127 14l-363 -65l-16 16l16 49l-72 51l-327 -149l-164 98q-90 -35 -215 -197l-203 66h-10q-82 0 -82 -236l-215 19l-18 -100l108 -117zM158 610l233 17l-125 149l-18 68l235 -17l35 232 q115 -72 178 -72q27 0 43 8l197 197l145 -100l328 149l37 -14l16 -101l473 66l-37 -117h490l-145 -98l417 -84l21 -33h-21l-182 -49l291 -135l18 -31l-233 -18q147 -152 147 -201q0 -4 -4 -16l-237 34l-17 -233l-235 70l-180 -201l-166 98l-363 -164l19 66l-56 65l-452 -82 l53 115l-508 19l147 96l-436 86l199 84zM555 455l74 22l16 289l-59 -12zM678 602q0 -10 1 -17t3 -22q31 -129 125 -129q10 0 26.5 4t38.5 8l-4 52q-27 -8 -61 -9q-70 0 -70 58q0 63 49 119q47 41 86 41q10 0 17.5 -1t17.5 -6l6 72q-236 -33 -235 -170zM936 506 q20 -49 111 -49q12 0 24 1t27 3q94 0 125 205q-29 98 -131 98h-19q2 0 -2 -1t-14 -1q-121 -68 -121 -256zM997 584q0 18 2 20q39 92 95 92q39 0 59 -39q10 -9 10 -32q0 -47 -28 -88q-53 -25 -84 -25q-53 0 -54 72zM1260 750l6 -295l49 8v141q116 -143 196 -143v289l-57 16 l-8 -203zM1571 469l78 20l16 289l-61 -12zM1702 485h65q39 68 82 68t74 -68l41 -12l-6 219q-23 92 -82 92q-25 0 -43 -8q-115 -145 -131 -291zM1800 616l66 99l39 -99h-105zM2017 760l6 -291l48 4v143q120 -145 196 -145v291l-55 16l-12 -205zM2312 442l39 -32l53 45l-49 18 zM2343 553l51 -8l39 215l-78 18z" />
<glyph unicode="&#xaa;" horiz-adv-x="587" d="M102 651v496l404 199v-689h-94v250l-213 -186v-70h-97zM199 840l213 207v141q-14 -4 -40 -15.5t-65 -29.5q-41 -18 -66.5 -32.5t-41.5 -25.5v-245z" />
<glyph unicode="&#xab;" horiz-adv-x="1609" d="M102 600l705 451l98 -172l-491 -279h16l442 -328l-131 -131h17h-33zM725 590l705 450l98 -172l-492 -278h17l442 -328l-131 -131h16h-32z" />
<glyph unicode="&#xac;" horiz-adv-x="1130" d="M102 645l74 -156h778l-108 -233l110 -129l93 143q-18 129 -19 199q0 72 -8 102l-4 11q-10 35 -15.5 52t-5.5 21v2l-65 1q-66 1 -201 1q-29 0 -61.5 1.5t-73.5 1.5q-74 0 -157 -1.5t-154.5 -3.5t-122.5 -5t-60 -7z" />
<glyph unicode="&#xad;" horiz-adv-x="724" d="M102 707v194q49 0 293 -98q125 -47 187 -71l61 -25q-2 -2 -8 -78q-6 -70 -25 -101z" />
<glyph unicode="&#xae;" horiz-adv-x="2297" d="M102 303l84 33l17 381l-66 -17zM242 500q0 -14 1 -23.5t3 -27.5q31 -170 139 -170q18 0 34.5 2t37.5 14l-2 65q-14 -8 -70 -8q-78 0 -78 76q0 82 55 154q43 55 95 55q25 0 39 -8l10 94q-264 -43 -264 -223zM532 375q20 -68 123 -68q14 0 27.5 2t32.5 4q104 1 139 269 q-31 133 -149 133h-17q-6 0 -20 -8q-135 -86 -136 -332zM602 475v27q47 121 109 121q39 0 67 -50q10 -16 10 -47q0 -27 -6 -54.5t-24 -53.5q-63 -39 -99 -39q-57 0 -57 96zM893 692l8 -389l57 10v189q128 -189 222 -189v381l-66 23l-10 -268zM1247 322l86 26l19 381l-68 -12 zM1395 346h73q45 86 91 86q45 0 86 -86l41 -16l-5 288q-23 123 -92 123q-25 0 -45 -14q-137 -186 -149 -381zM1505 518l72 127l45 -127h-117zM1747 707l8 -385l53 8v188q132 -192 222 -192v381l-60 22l-14 -264zM2079 293l45 -47l59 57l-53 27zM2116 432l55 -8l45 283 l-86 22z" />
<glyph unicode="&#xaf;" horiz-adv-x="626" d="M4 1530l70 -180l538 12q4 18 0 43t-12 59q-23 74 -20 76l-66 1q-65 1 -201 1q-262 6 -309 -12z" />
<glyph unicode="&#xb0;" horiz-adv-x="798" d="M102 995l306 -340l309 342v9l-301 337l-314 -339v-9zM240 1004l170 184l170 -182l-172 -197z" />
<glyph unicode="&#xb1;" horiz-adv-x="921" d="M102 741q12 4 63.5 6.5t121.5 2.5h90v204l180 70q4 -12 6 -63.5t2 -122.5v-90q119 0 179 -2l61 -1v-2q0 -12 20 -73q0 -2 1 -4t1 -4q12 -43 13 -74q0 -18 -2 -23h-275q0 -123 -1 -183l-1 -60h-2q-12 0 -74 -21q-2 0 -4 -1t-4 -1q-43 -12 -74 -12q-18 0 -22 2v272h-209z M150 176q47 18 309 12q135 0 201 -1l65 -1q-2 -2 20 -75q8 -35 12.5 -59.5t0.5 -43.5l-539 -12z" />
<glyph unicode="&#xb2;" horiz-adv-x="681" d="M102 930q6 -14 74 -82q35 -35 66.5 -67.5t66.5 -63.5q63 -61 80 -62q20 0 35.5 16.5t28.5 33.5q0 10 -47 57q-25 23 -49.5 46t-49.5 48q-51 49 -65 74l139 139q-23 25 -35 36.5t-35 27.5zM242 1286l217 -217l-140 -147l70 -70l211 217l-295 281q-16 -10 -31.5 -24.5 t-31.5 -39.5z" />
<glyph unicode="&#xb3;" horiz-adv-x="600" d="M102 637h7l409 235v7l-194 114q20 27 98 68q76 39 96 55l-409 227h-7v-102l107 -57q6 -4 18.5 -13.5t34.5 -21.5q47 -27 60 -37q-25 -14 -54.5 -29.5t-58.5 -27.5l-96 -51l209 -136l-56 -37q-20 -12 -33.5 -18t-21.5 -10l-109 -55v-111z" />
<glyph unicode="&#xb4;" horiz-adv-x="534" d="M102 905l351 189l-15 200l-200 -16z" />
<glyph unicode="&#xb5;" horiz-adv-x="968" d="M102 2v1344h187v-347q0 -39 176 -190q88 -74 147.5 -119t87.5 -61v717h187v-1080l-572 428h-26v-692q-43 -6 -68 -6t-64.5 3t-54.5 3z" />
<glyph unicode="&#xb6;" horiz-adv-x="972" d="M102 195q37 47 230 221q51 47 74.5 65.5t31.5 21.5t9.5 -2t7.5 -3l-336 200l760 635h12v-1349h-178q2 6 2 24l-8 852q-8 -2 -127 -69q-59 -35 -95 -54.5t-49 -23.5l223 -113l-458 -539q-2 12 -17.5 35t-33 44.5t-32 37t-16.5 17.5z" />
<glyph unicode="&#xb7;" horiz-adv-x="466" d="M102 655l142 142l141 -142l-141 -141z" />
<glyph unicode="&#xb8;" horiz-adv-x="532" d="M102 -207l142 -141l141 141l66 262l-62 51z" />
<glyph unicode="&#xb9;" horiz-adv-x="505" d="M102 1167l310 179h12v-680h-96v514h-15l-157 -88q-8 6 -16.5 15t-16.5 23.5t-12.5 23.5t-8.5 13z" />
<glyph unicode="&#xba;" horiz-adv-x="798" d="M102 995l306 -340l309 342v9l-301 337l-314 -339v-9zM240 1004l170 184l170 -182l-172 -197z" />
<glyph unicode="&#xbb;" horiz-adv-x="1609" d="M102 868l492 -278h-16l-443 -328l131 -131h-16h33l622 459l-704 450zM725 879l492 -279h-17l-442 -328l131 -131h-17h33l623 459l-705 451z" />
<glyph unicode="&#xbc;" horiz-adv-x="1505" d="M102 1178q4 -4 8.5 -13.5t12.5 -24t16 -23.5t17 -15l133 76h14v-514h96v679h-12zM293 2h186v373l385 319l213 185v467h-186v-347q0 -39 -176 -190q-43 -37 -109.5 -92t-131 -107.5t-116 -93.5t-65.5 -49v-465zM1032 133l285 213h14v-346q10 -2 19 -2h14q12 0 32.5 1 t26.5 1v672h-92v-172q0 -18 -88 -97q-45 -37 -73.5 -58t-45.5 -32v359h-92v-539z" />
<glyph unicode="&#xbd;" horiz-adv-x="1499" d="M102 1178l285 165h12v-679h-96v514h-14l-133 -76q-8 6 -16.5 15t-16.5 23.5t-12.5 24t-8.5 13.5zM293 2v465q14 8 65.5 49t116 93.5t131 107.5t109.5 92q176 152 176 190v347h186v-467l-213 -185l-385 -319v-373h-186zM805 225l274 197q23 -16 35 -27.5t35 -36.5 l-139 -139q14 -25 65 -74q25 -25 49.5 -48t49.5 -46q47 -47 47 -57q-12 -16 -27.5 -32.5t-36.5 -16.5q-16 0 -80 61q-35 31 -66.5 63.5t-66.5 67.5q-16 16 -39.5 30.5t-45 26t-37 19.5t-17.5 12zM1059 625q16 25 31.5 39t31.5 24l295 -280l-211 -218l-69 70l139 148z" />
<glyph unicode="&#xbe;" horiz-adv-x="1486" d="M102 639h7l409 235v7l-194 114q20 27 98 68q76 39 96 55l-409 228h-7v-103l107 -57q6 -4 18.5 -13.5t34.5 -21.5q47 -27 60 -37q-25 -14 -54.5 -29.5t-58.5 -27.5l-96 -51l209 -136l-56 -36q-20 -12 -33.5 -18.5t-21.5 -10.5l-109 -55v-111zM274 2h187v373l602 499 l-4 472h-187v-347q0 -39 -176 -190q-43 -37 -109.5 -92t-131 -107.5t-115.5 -93.5t-66 -49v-465zM1014 133l284 213h15v-346q10 -2 18 -2h15q12 0 32.5 1t26.5 1v672h-92v-172q0 -18 -88 -97q-45 -37 -74 -58t-45 -32v359h-92v-539z" />
<glyph unicode="&#xbf;" horiz-adv-x="1167" d="M102 852l484 -854q4 4 23.5 15.5t52.5 29.5q33 16 56 35.5t40 40.5l-318 530h645l-229 336h-192l75 -133h-637zM618 1243l142 -141l141 141l-141 141z" />
<glyph unicode="&#xc0;" horiz-adv-x="991" d="M102 0h193v141l426 373v-500h188v1377l-807 -400v-991zM295 379v489q33 20 86 49t131 66q78 39 130 60.5t79 29.5v-280zM346 1530l346 -113l-168 258h-178v-145z" />
<glyph unicode="&#xc1;" horiz-adv-x="991" d="M102 0v991l807 400v-1377h-188v500l-426 -373v-141h-193zM295 379l426 414v280q-27 -8 -79 -29.5t-130 -60.5q-78 -37 -131 -65.5t-86 -49.5v-489zM319 1417l168 258h179v-145z" />
<glyph unicode="&#xc2;" horiz-adv-x="991" d="M102 0v991l807 400v-1377h-188v500l-426 -373v-141h-193zM264 1417l168 258h184l168 -258l-260 84zM295 379l426 414v280q-27 -8 -79 -29.5t-130 -60.5q-78 -37 -131 -65.5t-86 -49.5v-489z" />
<glyph unicode="&#xc3;" horiz-adv-x="1046" d="M102 1405l260 84l259 -82h176l168 258l-260 -84l-261 82h-174zM123 0h192v141l426 373v-500h189v1377l-807 -400v-991zM315 379v489q33 20 86.5 49t130.5 66q78 39 130.5 60.5t78.5 29.5v-280z" />
<glyph unicode="&#xc4;" horiz-adv-x="991" d="M102 0h193v141l426 373v-500h188v1377l-807 -400v-991zM168 1536l141 -141l142 141l-142 141zM295 379v489q33 20 86 49t131 66q78 39 130 60.5t79 29.5v-280zM551 1532l141 -141l142 141l-142 141z" />
<glyph unicode="&#xc5;" horiz-adv-x="991" d="M102 0h193v141l426 373v-500h188v1377l-807 -400v-991zM295 379v489q33 20 86 49t131 66q78 39 130 60.5t79 29.5v-280zM373 1532l141 -141l141 141l-141 141z" />
<glyph unicode="&#xc6;" horiz-adv-x="1654" d="M102 -14v991l807 399v-340l650 363h14v-205l-215 -115q-10 -10 -36 -27.5t-71 -43.5q-41 -23 -71.5 -41.5t-46.5 -32.5q49 -27 110.5 -58.5t114.5 -54.5l192 -102l-417 -270q18 -14 45.5 -33t66.5 -41q78 -49 109 -58l219 -110v-223h-14l-650 372v-356h-188v500 l-426 -373v-141h-193zM295 365l426 413v281q-27 -8 -79 -29.5t-130 -60.5q-78 -37 -131 -66t-86 -49v-489zM909 567l219 131q-40 53 -194 133l-25 13v-277z" />
<glyph unicode="&#xc7;" horiz-adv-x="1157" d="M102 649l482 -401l-287 -314l141 -141l142 141l65 263l266 -222q66 37 96.5 76t67.5 88l-610 529l610 493q-33 47 -55.5 79t-36.5 46l-55 55l-826 -673v-19z" />
<glyph unicode="&#xc8;" d="M102 455v14l387 229q-41 53 -194 133q-76 39 -124 67t-69 44l818 457h14v-205l-215 -115q-10 -10 -36 -27.5t-71 -43.5q-41 -23 -71.5 -41.5t-46.5 -32.5q49 -27 110.5 -58.5t114.5 -54.5l192 -102l-417 -270q18 -14 45.5 -33t66.5 -41q74 -47 109 -58l219 -110v-223h-14 zM346 1530v145h178l168 -258z" />
<glyph unicode="&#xc9;" d="M102 455l818 -471h14v223l-219 110q-35 10 -109 58q-39 23 -66.5 41t-45.5 33l417 270l-192 102q-53 23 -114.5 54.5t-110.5 58.5q16 14 46.5 32.5t71.5 41.5q45 27 71 44t36 27l215 115v205h-14l-818 -457q20 -16 68.5 -44t124.5 -67q154 -80 194 -133l-387 -229v-14z M344 1417l346 113v145h-178z" />
<glyph unicode="&#xca;" d="M102 455v14l387 229q-41 53 -194 133q-76 39 -124 67t-69 44l818 457h14v-205l-215 -115q-10 -10 -36 -27.5t-71 -43.5q-41 -23 -71.5 -41.5t-46.5 -32.5q49 -27 110.5 -58.5t114.5 -54.5l192 -102l-417 -270q18 -14 45.5 -33t66.5 -41q78 -49 109 -58l219 -110v-223h-14 zM322 1405l167 258h185l168 -258l-260 84z" />
<glyph unicode="&#xcb;" d="M102 455l818 -471h14v223l-219 110q-31 8 -109 58q-39 23 -66.5 41t-45.5 33l417 270l-192 102q-53 23 -114.5 54.5t-110.5 58.5q16 14 46.5 32.5t71.5 41.5q45 27 71 44t36 27l215 115v205h-14l-818 -457q20 -16 68.5 -44t124.5 -67q154 -80 194 -133l-387 -229v-14z M244 1532l141 -141l141 141l-141 141zM594 1528l141 -142l142 142l-142 141z" />
<glyph unicode="&#xcc;" horiz-adv-x="1196" d="M102 500l498 -498q6 2 133 123q63 59 126 118.5t126 118.5q119 113 125 119q-29 31 -63.5 69t-59.5 60l-274 -235v637l276 -264q4 4 20.5 19t37 33.5t39 38t28.5 33.5l-498 498q-6 -2 -133 -123q-63 -59 -125.5 -118.5t-126.5 -118.5q-125 -119 -127 -119q29 -31 65 -69 t60 -60l289 248v-650h-14l-277 265q-4 -4 -21.5 -19.5t-36.5 -34t-38.5 -38t-28.5 -33.5zM451 1536l346 -113l-168 258h-178v-145z" />
<glyph unicode="&#xcd;" horiz-adv-x="1196" d="M102 872l498 498q6 -2 133 -123q63 -59 126 -118.5t126 -118.5q125 -119 127 -119q-29 -31 -64.5 -69t-60.5 -60l-289 248v-650h15l276 265q4 -4 21.5 -19.5t37 -34t39 -38t27.5 -33.5l-498 -498q-6 2 -133 123q-63 59 -125.5 118.5t-126.5 118.5q-121 113 -125 119 q29 31 64 69t59 60l275 -235v637l-277 -264q-4 4 -20.5 19t-36.5 33.5t-38.5 38t-29.5 33.5zM420 1423l168 258h178v-145z" />
<glyph unicode="&#xce;" horiz-adv-x="1196" d="M102 500q8 14 28 33.5t39 38t36.5 34t21.5 19.5l277 -265h14v650l-289 -248q-25 23 -60.5 60.5t-64.5 68.5q2 0 127 119q63 59 126 118.5t126 118.5q127 121 133 123l498 -498q-10 -14 -28.5 -33.5t-39 -38t-37 -33.5t-20.5 -19l-276 264v-637l274 235q25 -23 59.5 -60.5 t63.5 -68.5q-6 -6 -125 -119q-63 -59 -125.5 -118.5t-126.5 -118.5q-127 -121 -133 -123zM348 1393l168 258h184l168 -258l-260 84z" />
<glyph unicode="&#xcf;" horiz-adv-x="1196" d="M102 500q8 14 28 33.5t39 38t36.5 34t21.5 19.5l277 -265h14v650l-289 -248q-25 23 -60.5 60.5t-64.5 68.5q2 0 127 119q63 59 126 118.5t126 118.5q125 119 133 123l498 -498q-10 -14 -28.5 -33.5t-39 -38t-37 -33.5t-20.5 -19l-276 264v-637l274 235q25 -23 59.5 -60.5 t63.5 -68.5q-6 -6 -125 -119q-63 -59 -125.5 -118.5t-126.5 -118.5q-125 -119 -133 -123zM274 1538l142 141l141 -141l-141 -141zM657 1534l142 141l141 -141l-141 -141z" />
<glyph unicode="&#xd0;" horiz-adv-x="1366" d="M102 711v194q37 0 209 -65v489h172v-8l801 -653v-19l-831 -661h-142v649zM483 287l439 381l-439 354v-250l160 -61q-2 -2 -8 -78q-6 -70 -25 -101l-127 43v-288z" />
<glyph unicode="&#xd1;" horiz-adv-x="1046" d="M102 1405l260 84l259 -82h176l168 258l-260 -84l-261 82h-174zM123 -4h192v1059q27 -8 79 -29.5t130 -60.5q78 -37 131.5 -66t85.5 -49v-868h193v991l-811 385v-1362z" />
<glyph unicode="&#xd2;" horiz-adv-x="1415" d="M102 643l613 -680l618 684v19l-604 675l-627 -679v-19zM377 662l342 368l340 -364l-344 -394zM551 1538l346 -113l-168 258h-178v-145z" />
<glyph unicode="&#xd3;" horiz-adv-x="1415" d="M102 647v19l605 675l626 -679v-19l-612 -680zM377 666l344 -394l338 390l-342 368zM539 1425l168 258h178v-145z" />
<glyph unicode="&#xd4;" horiz-adv-x="1415" d="M102 643v19l627 679l604 -675v-19l-618 -684zM377 662l338 -390l344 394l-340 364zM453 1382l168 258h184l168 -258l-260 84z" />
<glyph unicode="&#xd5;" horiz-adv-x="1415" d="M102 643l613 -680l618 684v19l-604 675l-627 -679v-19zM293 1386l260 84l258 -81h176l168 258l-260 -84l-260 82h-174zM377 662l342 368l340 -364l-344 -394z" />
<glyph unicode="&#xd6;" horiz-adv-x="1415" d="M102 643v19l627 679l604 -675v-19l-618 -684zM371 1536l141 141l141 -141l-141 -141zM377 662l338 -390l344 394l-340 364zM754 1532l141 141l141 -141l-141 -141z" />
<glyph unicode="&#xd7;" horiz-adv-x="1095" d="M102 223q18 -29 51 -40t103 -29l289 301h26l263 -301h43q14 8 34.5 16t41 14t37 11.5t24.5 9.5l-346 387l333 350l-153 59l-277 -282h-14l-262 291q-16 -2 -40 -9.5t-54 -17.5q-57 -18 -84 -33l329 -350z" />
<glyph unicode="&#xd8;" horiz-adv-x="1415" d="M102 643l215 -240v-403h187v197l211 -234l618 684v19l-231 258v419h-187v-210l-186 208l-627 -679v-19zM377 662l342 368l123 -131q-20 -20 -46 -42.5t-57 -49.5l-284 -236zM575 432l396 328l88 -94l-344 -394z" />
<glyph unicode="&#xd9;" horiz-adv-x="995" d="M102 367l811 -385v1361h-192v-1058q-27 8 -79 29.5t-130 60.5q-78 37 -131 65.5t-86 48.5v869h-193v-991zM328 1528l346 -113l-168 258h-178v-145z" />
<glyph unicode="&#xda;" horiz-adv-x="995" d="M102 367v991h193v-869q33 -20 86 -48.5t131 -65.5q78 -39 130 -60.5t79 -29.5v1058h192v-1361zM342 1415l168 258h178v-145z" />
<glyph unicode="&#xdb;" horiz-adv-x="995" d="M102 367l811 -385v1361h-192v-1058q-27 8 -79 29.5t-130 60.5q-78 37 -131 65.5t-86 48.5v869h-193v-991zM231 1417l261 84l260 -84l-168 258h-185z" />
<glyph unicode="&#xdc;" horiz-adv-x="995" d="M102 367v991h193v-869q33 -20 86 -48.5t131 -65.5q78 -39 130 -60.5t79 -29.5v1058h192v-1361zM182 1573l142 141l141 -141l-141 -141zM565 1577l142 141l141 -141l-141 -141z" />
<glyph unicode="&#xdd;" horiz-adv-x="1216" d="M102 1149q29 18 63 50t62 61l275 -289h26v413h181v-399h14l289 262q16 -10 35.5 -25.5t42.5 -35.5q45 -39 45 -64q-2 0 -125 -123q-125 -125 -213 -219t-88 -112v-674h-181v674zM430 1432l168 258h178v-146z" />
<glyph unicode="&#xde;" horiz-adv-x="972" d="M102 -8h183v4h4v371l602 297l-602 331v338h-187v-1341zM293 571v211l199 -110z" />
<glyph unicode="&#xdf;" horiz-adv-x="1290" d="M102 -190h172v1398l592 -272q-49 -27 -110.5 -58.5t-114.5 -54.5l-192 -102l417 -270q-18 -14 -45.5 -33t-66.5 -41q-74 -47 -109 -58l-219 -110v-223h14l768 469v14l-338 231q10 12 19.5 27.5t25 32t39 34t62.5 37.5q76 39 124 67t68 44l-26 27l-908 432h-172v-1591z " />
<glyph unicode="&#xe0;" horiz-adv-x="991" d="M102 0h193v141l426 373v-500h188v1377l-807 -400v-991zM295 379v489q33 20 86 49t131 66q78 39 130 60.5t79 29.5v-280zM346 1530l346 -113l-168 258h-178v-145z" />
<glyph unicode="&#xe1;" horiz-adv-x="991" d="M102 0v991l807 400v-1377h-188v500l-426 -373v-141h-193zM295 379l426 414v280q-27 -8 -79 -29.5t-130 -60.5q-78 -37 -131 -65.5t-86 -49.5v-489zM319 1417l168 258h179v-145z" />
<glyph unicode="&#xe2;" horiz-adv-x="991" d="M102 0v991l807 400v-1377h-188v500l-426 -373v-141h-193zM264 1417l168 258h184l168 -258l-260 84zM295 379l426 414v280q-27 -8 -79 -29.5t-130 -60.5q-78 -37 -131 -65.5t-86 -49.5v-489z" />
<glyph unicode="&#xe3;" horiz-adv-x="1046" d="M102 1405l260 84l259 -82h176l168 258l-260 -84l-261 82h-174zM123 0h192v141l426 373v-500h189v1377l-807 -400v-991zM315 379v489q33 20 86.5 49t130.5 66q78 39 130.5 60.5t78.5 29.5v-280z" />
<glyph unicode="&#xe4;" horiz-adv-x="991" d="M102 0h193v141l426 373v-500h188v1377l-807 -400v-991zM168 1536l141 -141l142 141l-142 141zM295 379v489q33 20 86 49t131 66q78 39 130 60.5t79 29.5v-280zM551 1532l141 -141l142 141l-142 141z" />
<glyph unicode="&#xe5;" horiz-adv-x="991" d="M102 0h193v141l426 373v-500h188v1377l-807 -400v-991zM295 379v489q33 20 86 49t131 66q78 39 130 60.5t79 29.5v-280zM373 1532l141 -141l141 141l-141 141z" />
<glyph unicode="&#xe6;" horiz-adv-x="1654" d="M102 -14v991l807 399v-340l650 363h14v-205l-215 -115q-10 -10 -36 -27.5t-71 -43.5q-41 -23 -71.5 -41.5t-46.5 -32.5q49 -27 110.5 -58.5t114.5 -54.5l192 -102l-417 -270q18 -14 45.5 -33t66.5 -41q78 -49 109 -58l219 -110v-223h-14l-650 372v-356h-188v500 l-426 -373v-141h-193zM295 365l426 413v281q-27 -8 -79 -29.5t-130 -60.5q-78 -37 -131 -66t-86 -49v-489zM909 567l219 131q-40 53 -194 133l-25 13v-277z" />
<glyph unicode="&#xe7;" horiz-adv-x="1157" d="M102 649l482 -401l-287 -314l141 -141l142 141l65 263l266 -222q66 37 96.5 76t67.5 88l-610 529l610 493q-33 47 -55.5 79t-36.5 46l-55 55l-826 -673v-19z" />
<glyph unicode="&#xe8;" d="M102 455v14l387 229q-41 53 -194 133q-76 39 -124 67t-69 44l818 457h14v-205l-215 -115q-10 -10 -36 -27.5t-71 -43.5q-41 -23 -71.5 -41.5t-46.5 -32.5q49 -27 110.5 -58.5t114.5 -54.5l192 -102l-417 -270q18 -14 45.5 -33t66.5 -41q74 -47 109 -58l219 -110v-223h-14 zM346 1530v145h178l168 -258z" />
<glyph unicode="&#xe9;" d="M102 455l818 -471h14v223l-219 110q-35 10 -109 58q-39 23 -66.5 41t-45.5 33l417 270l-192 102q-53 23 -114.5 54.5t-110.5 58.5q16 14 46.5 32.5t71.5 41.5q45 27 71 44t36 27l215 115v205h-14l-818 -457q20 -16 68.5 -44t124.5 -67q154 -80 194 -133l-387 -229v-14z M344 1417l346 113v145h-178z" />
<glyph unicode="&#xea;" d="M102 455v14l387 229q-41 53 -194 133q-76 39 -124 67t-69 44l818 457h14v-205l-215 -115q-10 -10 -36 -27.5t-71 -43.5q-41 -23 -71.5 -41.5t-46.5 -32.5q49 -27 110.5 -58.5t114.5 -54.5l192 -102l-417 -270q18 -14 45.5 -33t66.5 -41q78 -49 109 -58l219 -110v-223h-14 zM322 1405l167 258h185l168 -258l-260 84z" />
<glyph unicode="&#xeb;" d="M102 455l818 -471h14v223l-219 110q-31 8 -109 58q-39 23 -66.5 41t-45.5 33l417 270l-192 102q-53 23 -114.5 54.5t-110.5 58.5q16 14 46.5 32.5t71.5 41.5q45 27 71 44t36 27l215 115v205h-14l-818 -457q20 -16 68.5 -44t124.5 -67q154 -80 194 -133l-387 -229v-14z M244 1532l141 -141l141 141l-141 141zM594 1528l141 -142l142 142l-142 141z" />
<glyph unicode="&#xec;" horiz-adv-x="366" d="M27 1534v145h178l168 -258zM102 -8v1341h183v-1341h-183z" />
<glyph unicode="&#xed;" horiz-adv-x="366" d="M25 1421l346 113v145h-178zM113 -8h182v1341h-182v-1341z" />
<glyph unicode="&#xee;" horiz-adv-x="366" d="M-57 1417l168 258h184l168 -258l-260 84zM113 -8v1341h182v-1341h-182z" />
<glyph unicode="&#xef;" horiz-adv-x="366" d="M-133 1534l141 141l142 -141l-142 -141zM102 -8v1341h183v-1341h-183zM250 1530l141 141l141 -141l-141 -141z" />
<glyph unicode="&#xf0;" horiz-adv-x="1124" d="M102 420l772 -426h15v876h151q2 6 2 21q0 29 -12 82q0 2 -2 2v2l-15 52.5t-5 21.5v2h-33q-31 0 -90 2v301h-183v-301h-71q-166 -1 -199 -13l70 -180h196v-145q-33 -16 -99.5 -49t-166.5 -82l-37 -19q-8 -4 -15 -8t-15 -8q-152 -80 -263 -131zM502 412l198 100v-211z" />
<glyph unicode="&#xf1;" horiz-adv-x="1046" d="M102 1405l260 84l259 -82h176l168 258l-260 -84l-261 82h-174zM123 2h182v860l416 -620v-240h186v1344h-184v-850l-414 671v179h-186v-1344z" />
<glyph unicode="&#xf2;" horiz-adv-x="1415" d="M102 643l613 -680l618 684v19l-604 675l-627 -679v-19zM377 662l342 368l340 -364l-344 -394zM551 1538l346 -113l-168 258h-178v-145z" />
<glyph unicode="&#xf3;" horiz-adv-x="1415" d="M102 647v19l605 675l626 -679v-19l-612 -680zM377 666l344 -394l338 390l-342 368zM539 1425l168 258h178v-145z" />
<glyph unicode="&#xf4;" horiz-adv-x="1415" d="M102 643v19l627 679l604 -675v-19l-618 -684zM377 662l338 -390l344 394l-340 364zM453 1382l168 258h184l168 -258l-260 84z" />
<glyph unicode="&#xf5;" horiz-adv-x="1415" d="M102 643l613 -680l618 684v19l-604 675l-627 -679v-19zM293 1386l260 84l258 -81h176l168 258l-260 -84l-260 82h-174zM377 662l342 368l340 -364l-344 -394z" />
<glyph unicode="&#xf6;" horiz-adv-x="1415" d="M102 643v19l627 679l604 -675v-19l-618 -684zM371 1536l141 141l141 -141l-141 -141zM377 662l338 -390l344 394l-340 364zM754 1532l141 141l141 -141l-141 -141z" />
<glyph unicode="&#xf7;" horiz-adv-x="1116" d="M102 645q8 2 45 5t92.5 5t123 3t135 2.5t129.5 1.5q61 0 104 -3q135 0 201 -1l65 -1q-2 -2 21 -75q8 -35 12 -59.5t0 -43.5l-854 10zM469 262l141 141l142 -141l-142 -141zM469 864l141 142l142 -142l-142 -141z" />
<glyph unicode="&#xf8;" horiz-adv-x="1415" d="M102 643l215 -240v-403h187v197l211 -234l618 684v19l-231 258v419h-187v-210l-186 208l-627 -679v-19zM377 662l342 368l123 -131q-20 -20 -46 -42.5t-57 -49.5l-284 -236zM575 432l396 328l88 -94l-344 -394z" />
<glyph unicode="&#xf9;" horiz-adv-x="995" d="M102 -18l811 385v991h-192v-869q-33 -20 -86 -48.5t-131 -65.5q-78 -39 -130 -60.5t-79 -29.5v1058h-193v-1361zM328 1528l346 -113l-168 258h-178v-145z" />
<glyph unicode="&#xfa;" horiz-adv-x="995" d="M102 -18v1361h193v-1058q27 8 79 29.5t130 60.5q78 37 131 65.5t86 48.5v869h192v-991zM342 1415l168 258h178v-145z" />
<glyph unicode="&#xfb;" horiz-adv-x="995" d="M102 -18v1361h193v-1058q27 8 79 29.5t130 60.5q78 37 131 65.5t86 48.5v869h192v-991zM264 1417l168 258h184l168 -258l-260 84z" />
<glyph unicode="&#xfc;" horiz-adv-x="995" d="M102 -18l811 385v991h-192v-869q-33 -20 -86 -48.5t-131 -65.5q-78 -39 -130 -60.5t-79 -29.5v1058h-193v-1361zM168 1577l141 -141l142 141l-142 141zM551 1573l141 -141l142 141l-142 141z" />
<glyph unicode="&#xfd;" horiz-adv-x="1216" d="M102 1149q29 18 63 50t62 61l275 -289h26v413h181v-399h14l289 262q16 -10 35.5 -25.5t42.5 -35.5q45 -39 45 -64q-2 0 -125 -123q-125 -125 -213 -219t-88 -112v-674h-181v674zM430 1432l168 258h178v-146z" />
<glyph unicode="&#xfe;" horiz-adv-x="972" d="M102 -8h183v4h4v371l602 297l-602 331v338h-187v-1341zM293 571v211l199 -110z" />
<glyph unicode="&#xff;" horiz-adv-x="1216" d="M102 1149q29 18 63 50t62 61l275 -289h26v413h181v-399h14l289 262q16 -10 35.5 -25.5t42.5 -35.5q45 -39 45 -64q-2 0 -125 -123q-125 -125 -213 -219t-88 -112v-674h-181v674zM285 1524l141 141l141 -141l-141 -142zM668 1520l141 141l141 -141l-141 -142z" />
<glyph unicode="&#x152;" horiz-adv-x="1607" d="M102 688v19l826 673l55 -55q14 -14 36.5 -46t55.5 -79l-180 -147l616 346h15v-205l-215 -115q-10 -10 -36 -27.5t-71 -43.5q-41 -23 -71.5 -41.5t-47.5 -32.5q49 -27 110.5 -58.5t115.5 -54.5l192 -102l-418 -270q18 -14 46 -33t67 -41q74 -47 109 -58l219 -110v-223h-15 l-632 364l196 -170q-37 -49 -67.5 -88t-96.5 -76zM465 707l256 -224l409 232l-366 215z" />
<glyph unicode="&#x153;" horiz-adv-x="1607" d="M102 688v19l826 673l55 -55q14 -14 36.5 -46t55.5 -79l-180 -147l616 346h15v-205l-215 -115q-10 -10 -36 -27.5t-71 -43.5q-41 -23 -71.5 -41.5t-47.5 -32.5q49 -27 110.5 -58.5t115.5 -54.5l192 -102l-418 -270q18 -14 46 -33t67 -41q74 -47 109 -58l219 -110v-223h-15 l-632 364l196 -170q-37 -49 -67.5 -88t-96.5 -76zM465 707l256 -224l360 215q-40 53 -194 133q-109 55 -160 87z" />
<glyph unicode="&#x178;" horiz-adv-x="1216" d="M102 1149q29 18 63 50t62 61l275 -289h26v413h181v-399h14l289 262q16 -10 35.5 -25.5t42.5 -35.5q45 -39 45 -64q-2 0 -125 -123q-125 -125 -213 -219t-88 -112v-674h-181v674zM285 1524l141 141l141 -141l-141 -142zM668 1520l141 141l141 -141l-141 -142z" />
<glyph unicode="&#x2c6;" horiz-adv-x="704" d="M102 1282l168 258h185l168 -258l-261 84z" />
<glyph unicode="&#x2dc;" horiz-adv-x="1046" d="M102 1282l260 84l259 -82h176l168 258l-260 -84l-261 82h-174z" />
<glyph unicode="&#x2000;" horiz-adv-x="859" />
<glyph unicode="&#x2001;" horiz-adv-x="1718" />
<glyph unicode="&#x2002;" horiz-adv-x="859" />
<glyph unicode="&#x2003;" horiz-adv-x="1718" />
<glyph unicode="&#x2004;" horiz-adv-x="572" />
<glyph unicode="&#x2005;" horiz-adv-x="429" />
<glyph unicode="&#x2006;" horiz-adv-x="286" />
<glyph unicode="&#x2007;" horiz-adv-x="286" />
<glyph unicode="&#x2008;" horiz-adv-x="214" />
<glyph unicode="&#x2009;" horiz-adv-x="343" />
<glyph unicode="&#x200a;" horiz-adv-x="95" />
<glyph unicode="&#x2010;" horiz-adv-x="724" d="M102 707v194q49 0 293 -98q125 -47 187 -71l61 -25q-2 -2 -8 -78q-6 -70 -25 -101z" />
<glyph unicode="&#x2011;" horiz-adv-x="724" d="M102 707v194q49 0 293 -98q125 -47 187 -71l61 -25q-2 -2 -8 -78q-6 -70 -25 -101z" />
<glyph unicode="&#x2012;" horiz-adv-x="724" d="M102 707v194q49 0 293 -98q125 -47 187 -71l61 -25q-2 -2 -8 -78q-6 -70 -25 -101z" />
<glyph unicode="&#x2013;" horiz-adv-x="724" d="M102 707v194q49 0 293 -98q125 -47 187 -71l61 -25q-2 -2 -8 -78q-6 -70 -25 -101z" />
<glyph unicode="&#x2014;" horiz-adv-x="724" d="M102 707v194q49 0 293 -98q125 -47 187 -71l61 -25q-2 -2 -8 -78q-6 -70 -25 -101z" />
<glyph unicode="&#x2018;" horiz-adv-x="466" d="M102 985l142 -141l141 141l-141 371z" />
<glyph unicode="&#x2019;" horiz-adv-x="466" d="M102 1214l142 -370l141 370l-141 142z" />
<glyph unicode="&#x201a;" horiz-adv-x="466" d="M102 166l142 -141l-105 -228l246 228v141l-141 141z" />
<glyph unicode="&#x201c;" horiz-adv-x="794" d="M102 981l142 -141l141 141l-141 371zM430 985l141 -141l142 141l-142 371z" />
<glyph unicode="&#x201d;" horiz-adv-x="794" d="M102 1210l142 -370l141 370l-141 142zM430 1214l141 -370l142 370l-142 142z" />
<glyph unicode="&#x201e;" horiz-adv-x="804" d="M102 168l142 -141l-105 -228l246 228v141l-141 141zM440 166l142 -141l-105 -228l246 228v141l-141 141z" />
<glyph unicode="&#x2022;" horiz-adv-x="866" d="M102 662l342 368l340 -364l-344 -394z" />
<glyph unicode="&#x2026;" horiz-adv-x="1318" d="M102 170l142 -141l141 141l-141 141zM535 162l141 -142l141 142l-141 141zM954 166l142 -141l141 141l-141 141z" />
<glyph unicode="&#x202f;" horiz-adv-x="343" />
<glyph unicode="&#x2039;" horiz-adv-x="987" d="M102 590l705 450l98 -172l-491 -278h16l442 -328l-131 -131h17h-33z" />
<glyph unicode="&#x203a;" horiz-adv-x="987" d="M102 868l492 -278h-16l-443 -328l131 -131h-16h33l622 459l-704 450z" />
<glyph unicode="&#x205f;" horiz-adv-x="429" />
<glyph unicode="&#x20ac;" horiz-adv-x="1241" d="M102 987q8 2 57.5 4t120 4t153.5 3t161 1l418 342l55 -55q14 -14 36.5 -46t55.5 -79l-203 -166q23 -2 41 -2h29h23v-2q0 -8 18 -76q6 -27 10 -47t4 -37l-2 -20h-352l-178 -143l156 -125l79 -2q135 -2 201 -3l66 -1v-2q0 -6 20 -74q12 -49 12 -80q0 -18 -2 -25h-161 l239 -217q-37 -49 -67.5 -88t-96.5 -76l-440 375h-381l-68 182q10 4 72 6.5t150 4.5l-142 106v19l174 139h-190z" />
<glyph unicode="&#x2122;" horiz-adv-x="1134" d="M102 1120q14 -16 32 -34.5t30 -28.5l145 123v-504h97v506l139 -133q2 2 10 9t18.5 16t19.5 19.5t13 18.5l-248 248q-4 0 -67 -62l-125 -116q-33 -31 -48 -46zM655 676h97v479l49 -39q45 -35 53 -35q25 18 48.5 37t53.5 25v-467h97v678q-23 -10 -50.5 -32t-62.5 -50.5 t-58.5 -46t-33.5 -21.5l-186 158h-7v-686z" />
<glyph unicode="&#x25fc;" horiz-adv-x="1382" d="M0 0v1382h1382v-1382h-1382z" />
</font>
</defs>
</svg>
