<?xml version="1.0" standalone="no"?>
<!DOCTYPE svg PUBLIC "-//W3C//DTD SVG 1.1//EN" "http://www.w3.org/Graphics/SVG/1.1/DTD/svg11.dtd" >
<svg xmlns="http://www.w3.org/2000/svg" xmlns:xlink="http://www.w3.org/1999/xlink" version="1.1">
<metadata></metadata>
<defs>
<font id="heorot_italicitalic" horiz-adv-x="1015" >
<font-face units-per-em="2048" ascent="1638" descent="-410" />
<missing-glyph horiz-adv-x="700" />
<glyph horiz-adv-x="0" />
<glyph unicode="&#xd;" horiz-adv-x="1024" />
<glyph unicode=" "  horiz-adv-x="700" />
<glyph unicode="&#x09;" horiz-adv-x="700" />
<glyph unicode="&#xa0;" horiz-adv-x="700" />
<glyph unicode="!" horiz-adv-x="466" d="M150 166l100 -141l182 141l-100 141zM276 393h175l270 940h-172z" />
<glyph unicode="&#x22;" horiz-adv-x="794" d="M449 1210l182 142l100 -142l-246 -370zM778 1214l183 142l100 -142l-248 -370z" />
<glyph unicode="#" horiz-adv-x="1097" d="M252 524l164 -63l-119 -412h182l101 348l8 -4l-4 -14l161 -64l-116 -411h182l98 348l131 -51q31 33 54 100q27 74 30 78l-38 17q-37 18 -119 53l49 169l129 -51q31 33 53 101q31 78 31 77l-37 17q-37 18 -121 53l123 430h-182l-103 -358l-30 12q-18 8 -52 23.5t-88 38.5 l125 430h-182l-102 -359q-70 27 -110 40t-56 13l-56 -194l162 -64l-47 -161q-137 53 -164 53zM635 594l49 170l8 -4l-4 -15l162 -63l-45 -162l-31 12q-18 8 -52 23.5t-87 38.5z" />
<glyph unicode="$" horiz-adv-x="1179" d="M352 868l295 -432l-43 -153l-39 -29q-121 -88 -127 -113q16 -33 36 -65.5t61 -32.5l-78 -274h172l114 403q80 59 162 122.5t168 131.5q172 137 195 164l-293 389l57 203l160 123q-16 47 -37.5 75.5t-50.5 46.5l31 111h-172l-78 -270zM633 868l178 140l-82 -285zM823 449 l76 264l88 -123q-41 -47 -164 -141z" />
<glyph unicode="%" horiz-adv-x="1556" d="M389 997l2 9l410 340l205 -338l-2 -9l-408 -342zM395 2l133 465q16 8 80 49t143.5 93.5t161.5 107.5t136 92q219 152 231 190l98 347h187l-133 -467l-267 -185l-477 -319l-106 -373h-187zM528 1006l113 -195l227 197l-116 182zM958 340l3 8l409 340l205 -338l-2 -8 l-408 -342zM1098 348l112 -194l228 196l-117 182z" />
<glyph unicode="&#x26;" d="M233 455l549 -381l-80 -283h172l263 918l-183 112q-47 23 -99 54.5t-93 58.5q20 14 56 32.5t83 41.5q53 27 83 44t44 27l248 115l59 205h-14l-948 -457q16 -16 56 -44t103 -67q133 -80 158 -133l-452 -229zM623 449l317 174l-94 -330l-41 24q-31 11 -92 58q-66 49 -90 74 z" />
<glyph unicode="'" horiz-adv-x="466" d="M451 1214l182 142l100 -142l-248 -370z" />
<glyph unicode="(" horiz-adv-x="751" d="M309 723l183 -719h43q18 12 41.5 24.5t46 23.5t42 20.5t29.5 15.5l-168 621l496 565l-125 96z" />
<glyph unicode=")" horiz-adv-x="751" d="M127 88l524 621l-172 565l183 96l215 -647l-592 -719h-43q-12 12 -28.5 24.5t-34 23.5t-32 20.5t-20.5 15.5z" />
<glyph unicode="*" horiz-adv-x="782" d="M334 739q4 -23 20.5 -32t57.5 -23l245 246h17l90 -246h24q23 12 53.5 24.5t43.5 18.5l-125 246l192 -33l66 166l-191 -8l224 231l-80 47l-234 -229h-10l-92 237q-12 -4 -26.5 -8t-37.5 -14q-20 -8 -34.5 -15.5t-24.5 -11.5l80 -254h-180l-25 -125l174 17z" />
<glyph unicode="+" horiz-adv-x="921" d="M295 672l18 -180h209l-78 -273q0 -2 21 -2q31 0 78 12q2 0 4 1t4 1q63 20 80 21h2l19 60q18 61 53 184h274q4 2 10 22q4 16 6 33.5t2 40.5v8q-4 61 0 74l2 2l-60 1q-60 1 -179 1l26 90q20 72 32.5 123t12.5 63l-200 -69l-60 -205h-90q-70 0 -121 -2t-65 -6z" />
<glyph unicode="," horiz-adv-x="466" d="M82 -203l168 228l-100 141l182 141l100 -141l-41 -141z" />
<glyph unicode="-" horiz-adv-x="724" d="M305 707l457 -179q25 27 53 101q27 74 31 78l-54 25q-55 24 -167 71q-214 98 -265 98z" />
<glyph unicode="." horiz-adv-x="466" d="M150 166l182 141l100 -141l-182 -141z" />
<glyph unicode="/" horiz-adv-x="968" d="M102 2l134 465q16 8 79.5 49t143.5 93.5t161.5 107.5t135.5 92q219 152 231 190l98 347h187l-133 -467l-267 -185l-477 -319l-106 -373h-187z" />
<glyph unicode="0" horiz-adv-x="1415" d="M287 643l418 -680l815 684l4 19l-410 675l-821 -679zM567 662l447 368l235 -364l-456 -394zM760 655l100 -141l182 141l-100 142z" />
<glyph unicode="1" horiz-adv-x="829" d="M387 991q4 -10 9 -27.5t12 -45.5q18 -55 45 -78l366 178h29l-297 -1030h192l392 1362h-27z" />
<glyph unicode="2" horiz-adv-x="1179" d="M272 590l535 405q37 -29 55.5 -53t48.5 -74l-358 -278q10 -51 86 -146q37 -49 73 -96t70 -94q68 -88 62 -113q-35 -33 -75 -65.5t-81 -32.5q-27 0 -125 121q-49 61 -96 126.5t-94 135.5t-72 109.5t-29 54.5zM702 575l365 293l-309 437q43 49 82 78t80 47l428 -562 l-547 -434z" />
<glyph unicode="3" d="M98 -16l64 223l250 110q18 4 50 19.5t75 38.5q47 23 79.5 41t55.5 33l-340 270l221 102q59 23 130 54.5t128 58.5q-29 27 -98 74q-70 49 -86 71l-183 115l60 205h14l686 -457q-47 -33 -225 -111q-174 -80 -231 -133l321 -229l-4 -14l-952 -471h-15z" />
<glyph unicode="4" horiz-adv-x="968" d="M178 266l309 1080h187l-205 -717q35 16 106.5 61t180.5 119q219 152 231 190l98 347h187l-385 -1344q-6 0 -21.5 -1t-34 -2t-36 -2t-29.5 -1q-23 0 -66 6l199 692h-27z" />
<glyph unicode="5" horiz-adv-x="1271" d="M236 461l520 -475l325 1136l244 -231q53 41 97 86t73 84l-516 444l-317 -1104l-263 213q-37 -20 -80 -58t-83 -95z" />
<glyph unicode="6" horiz-adv-x="970" d="M100 -6l392 1362h186l-184 -639q31 -16 89 -49t144 -82q86 -51 155.5 -92t127.5 -74l-895 -426h-15zM377 301l231 111l-170 100z" />
<glyph unicode="7" horiz-adv-x="983" d="M414 1085l866 289h14l-393 -1376h-180l319 1116h-14l-545 -180h-55q-4 49 -7 90t-5 61z" />
<glyph unicode="8" horiz-adv-x="1132" d="M100 -6l574 715l-170 634h932l-553 -634l133 -715h-916zM459 180h368l-118 312q-4 -8 -65.5 -86.5t-184.5 -225.5zM741 1171q-6 -20 86 -262l271 265h-355h-2v-3z" />
<glyph unicode="9" horiz-adv-x="970" d="M369 932l895 426h14l-391 -1362h-187l185 639q-31 16 -89.5 49t-144.5 82q-170 100 -282 166zM772 940l170 -100l59 211z" />
<glyph unicode=":" horiz-adv-x="466" d="M150 166l182 141l100 -141l-182 -141zM276 608l183 142l100 -142l-182 -141z" />
<glyph unicode=";" horiz-adv-x="471" d="M82 -203l168 228l-100 141l182 141l100 -141l-26 -111zM276 608l183 142l100 -142l-182 -141z" />
<glyph unicode="&#x3c;" horiz-adv-x="751" d="M309 723l183 -719h43q18 12 41.5 24.5t46 23.5t42 20.5t29.5 15.5l-168 621l496 565l-125 96z" />
<glyph unicode="=" horiz-adv-x="724" d="M223 420l457 -178q25 27 53 100q27 76 31 78l-56 24q-55 25 -165 72q-215 98 -264 98zM328 786l456 -178q31 33 54 101q27 74 30 77l-54 25t-165 72q-215 98 -266 98z" />
<glyph unicode="&#x3e;" horiz-adv-x="751" d="M127 88l524 621l-172 565l183 96l215 -647l-592 -719h-43q-12 12 -28.5 24.5t-34 23.5t-32 20.5t-20.5 15.5z" />
<glyph unicode="?" horiz-adv-x="1167" d="M313 735h645l-165 531q23 20 52 39.5t66 35.5q37 18 59.5 29.5t28.5 15.5l240 -854h-637l37 -133h-193zM328 141l182 142l100 -142l-182 -141z" />
<glyph unicode="@" horiz-adv-x="1327" d="M43 -209l1155 109l16 229l-931 -109l335 1174h15l670 -111l-170 -231l-97 109l-385 -308l203 -288l336 233l397 592l-1055 307z" />
<glyph unicode="A" horiz-adv-x="991" d="M102 0h193l41 141l532 373l-143 -500h188l396 1377l-922 -400zM403 379l142 489q37 20 98.5 49t151.5 66q90 39 147 60.5t86 29.5l-80 -280z" />
<glyph unicode="B" d="M100 -8l406 1415h14l686 -457q-25 -16 -81 -43.5t-142 -66.5q-176 -80 -233 -133l321 -230l-4 -14l-952 -471h-15zM416 326q16 4 47 18t78 39q45 23 77.5 41t55.5 33q-4 2 -27.5 18.5t-54.5 38t-61 43t-46 31.5zM555 829q59 23 130 54.5t128 58.5q-29 27 -98 74 q-70 48 -86 71z" />
<glyph unicode="C" horiz-adv-x="1081" d="M213 649l4 19l1020 673l39 -55q10 -14 23.5 -46t33.5 -79l-753 -493l458 -529q-25 -25 -47 -46t-44.5 -41.5t-51.5 -39t-66 -37.5z" />
<glyph unicode="D" horiz-adv-x="1105" d="M98 -12l385 1341h172l-2 -8l613 -653l-4 -19l-1022 -661h-142zM356 287l547 381l-336 354z" />
<glyph unicode="E" d="M233 455l5 14l452 229q-25 53 -158 133q-63 39 -103 67t-56 44l948 457h14l-59 -205l-248 -115q-14 -10 -44 -27.5t-83 -43.5q-47 -23 -83 -41.5t-56 -32.5q41 -27 93 -58.5t99 -54.5l164 -102l-495 -270q25 -25 90 -74q61 -47 92 -58l188 -110l-63 -223h-15z" />
<glyph unicode="F" horiz-adv-x="983" d="M109 18l393 1377h14l703 -289q-14 -20 -41 -61t-58 -91h-55l-442 181h-15l-67 -234q51 0 264 -98q113 -47 167 -71l54 -25q-4 -4 -31 -78q-29 -74 -53 -101l-442 179h-15l-196 -689h-180z" />
<glyph unicode="G" horiz-adv-x="995" d="M96 -18l922 385l-100 452l-242 -98l84 -279h4q0 -2 -154 -67q-86 -37 -144 -59.5t-95 -30.5l237 829l529 -98l114 229l-764 98z" />
<glyph unicode="H" horiz-adv-x="968" d="M102 2h187l106 373l477 319h27l-199 -692q43 -6 66 -6q12 0 29.5 1t36 2t34 2t21.5 1l385 1344h-187l-98 -347q-12 -39 -231 -190q-109 -74 -180.5 -119t-106.5 -61l205 717h-187z" />
<glyph unicode="I" horiz-adv-x="1196" d="M246 500q12 14 36.5 33.5t50 38t46 34t27.5 19.5l200 -265h15l186 650l-358 -248q-18 23 -43 60.5t-46 68.5q2 0 160 119q82 59 161 118.5t161 118.5q80 59 122 90t46 33l354 -498q-14 -14 -39 -33.5t-49.5 -38t-45 -33.5t-26.5 -19l-200 264l-185 -637l342 235 q18 -23 42 -60.5t44 -68.5q-4 -4 -43 -32.5t-114 -86.5q-80 -59 -160 -118.5t-162 -118.5q-160 -121 -168 -123z" />
<glyph unicode="J" horiz-adv-x="792" d="M240 481q2 0 94 -119q47 -59 92 -118.5t90 -118.5q92 -121 98 -123l97 -2l393 1370h-195l-288 -1008l-220 248q-31 -23 -76.5 -60.5t-84.5 -68.5z" />
<glyph unicode="K" horiz-adv-x="972" d="M98 -16l387 1349l174 -2l-167 -583l612 307l29 -170l-533 -275q29 -6 180 -194q74 -90 115 -144.5t51 -76.5q-2 -2 -21.5 -17.5t-43 -37t-44 -44t-26.5 -35.5l-387 449q-33 -117 -62.5 -216t-54.5 -188l-18 -61q-6 -23 -13 -61h-178z" />
<glyph unicode="L" horiz-adv-x="983" d="M102 -2h15l866 289q-2 20 -5 61t-7 90h-56l-544 -180h-15l320 1116h-180z" />
<glyph unicode="M" horiz-adv-x="980" d="M100 -10l392 1370h14l280 -316q27 10 83.5 44t142.5 92q174 121 272 166l-387 -1356h-192l266 932q-66 -10 -123 -48t-117 -75q-20 0 -88 71q-72 72 -76 78l-274 -958h-193z" />
<glyph unicode="N" horiz-adv-x="995" d="M100 -4l392 1362l700 -385l-285 -991h-192l250 868q-27 20 -72 49t-113 66q-68 39 -113.5 60.5t-68.5 29.5l-305 -1059h-193z" />
<glyph unicode="O" horiz-adv-x="1355" d="M227 643l6 19l822 679l409 -675l-4 -19l-815 -684zM508 662l225 -390l457 394l-236 364z" />
<glyph unicode="P" horiz-adv-x="970" d="M100 -4l392 1362h14l649 -426q-76 -33 -168 -74t-209 -92q-115 -49 -190.5 -82t-116.5 -49l-184 -639h-187zM532 840l228 100l-168 111z" />
<glyph unicode="Q" horiz-adv-x="1290" d="M141 137l525 406l-248 364l631 490l360 -504l-451 -350l285 -420q-37 -39 -81 -73t-97 -66l-293 405q-55 -31 -120.5 -80t-134 -105.5t-136.5 -116.5t-125 -114q-39 33 -74 75t-41 89zM702 893q14 -10 36 -34.5t53 -61.5q57 -78 61 -86q68 49 133.5 98t132.5 98 q-4 4 -22.5 26.5t-49 63.5t-51 67t-30.5 40q-8 -6 -34 -27.5t-73 -58.5q-51 -39 -89 -71t-67 -54z" />
<glyph unicode="R" horiz-adv-x="972" d="M98 -16l387 1349h13l635 -448l-533 -275q29 -6 180 -194q74 -90 115 -144.5t51 -76.5q-2 -2 -21.5 -17.5t-43 -37t-44 -44t-26.5 -35.5l-387 449q-33 -117 -62.5 -216t-54.5 -188l-18 -61q-6 -23 -13 -61h-178zM492 748l309 139q-10 4 -40 23.5t-81 52.5q-101 69 -107 71 z" />
<glyph unicode="S" horiz-adv-x="1167" d="M256 532l727 854q4 -4 64 -45q29 -16 46 -35.5t27 -39.5l-469 -531h645l-737 -825l-117 117l451 505h-637z" />
<glyph unicode="T" horiz-adv-x="1193" d="M358 891q2 0 160 119q82 59 161 118.5t161 118.5q160 121 168 123l354 -498q-14 -14 -39 -33.5t-49.5 -38t-45 -33.5t-26.5 -19l-205 264l-286 -1010h-195l289 1008l-359 -248q-18 23 -42.5 60.5t-45.5 68.5z" />
<glyph unicode="U" horiz-adv-x="995" d="M207 367l700 -385l391 1361h-192l-303 -1058q-25 8 -71 29.5t-114 60.5q-68 37 -111.5 65.5t-70.5 48.5l248 869h-192z" />
<glyph unicode="V" horiz-adv-x="1105" d="M426 1130l115 -1130l807 1130l-99 191l-547 -758l-8 -28l-37 841z" />
<glyph unicode="W" horiz-adv-x="980" d="M104 6l390 1356h192l-268 -932q66 10 124 48t115 75q20 0 88 -72q72 -72 76 -78l277 959h192l-393 -1370h-14l-281 315q-55 -20 -227 -137q-86 -59 -153.5 -100t-117.5 -64z" />
<glyph unicode="X" horiz-adv-x="1095" d="M135 115l518 608l-168 565q16 10 41 23.5t60 29.5q71 35 106 43l127 -469h15l407 455l125 -96l-496 -565l168 -621q-10 -6 -29.5 -15.5t-42 -20.5t-46 -23.5t-41.5 -24.5h-43l-125 483h-27l-426 -483q-61 29 -89 48.5t-34 62.5z" />
<glyph unicode="Y" horiz-adv-x="1216" d="M432 1149q35 18 77 50t79 61l192 -289h27l119 413h180l-115 -399h15l364 262q14 -10 28.5 -25.5t31.5 -35.5q27 -32 27 -55q0 -5 -1 -9q-4 0 -160 -123q-82 -63 -149.5 -117.5t-126.5 -101.5q-115 -94 -121 -112l-192 -674h-181l193 674z" />
<glyph unicode="Z" horiz-adv-x="1271" d="M408 1061q4 -39 22.5 -84t48.5 -86l375 231l-326 -1136l795 475q-10 57 -31.5 95t-46.5 58l-385 -213l318 1104z" />
<glyph unicode="[" horiz-adv-x="712" d="M102 -2h15l551 131q-2 20 -5.5 61t-7.5 91h-55l-238 -62h-14l266 934h15l205 -61h55q31 49 57.5 90t40.5 61l-477 131h-14z" />
<glyph unicode="\" horiz-adv-x="968" d="M354 879l160 -185l293 -319l-107 -373h187l133 465q-10 8 -50 49t-89.5 93.5t-100.5 107.5t-84 92q-133 152 -121 190l99 347h-187z" />
<glyph unicode="]" horiz-adv-x="712" d="M139 129q14 20 41 61t58 91h55l205 -62h14l266 934h-14l-238 -61h-55q-4 49 -7 90t-5 61l551 131h14l-393 -1376h-15z" />
<glyph unicode="^" horiz-adv-x="1093" d="M309 721l4 16l95 -131l454 443l4 16l138 -492l200 99l-248 704l-637 -622z" />
<glyph unicode="_" horiz-adv-x="626" d="M53 143l19 -180l542 12q10 18 11.5 43t5.5 60q0 74 2 76l-65 1q-66 1 -201 1q-263 5 -314 -13z" />
<glyph unicode="`" horiz-adv-x="534" d="M416 1094l71 200l197 -16l29 -373z" />
<glyph unicode="a" horiz-adv-x="991" d="M102 0h193l41 141l532 373l-143 -500h188l396 1377l-922 -400zM403 379l142 489q37 20 98.5 49t151.5 66q90 39 147 60.5t86 29.5l-80 -280z" />
<glyph unicode="b" horiz-adv-x="995" d="M100 -8l406 1415h14l686 -457q-25 -16 -81 -43.5t-142 -66.5q-176 -80 -233 -133l321 -230l-4 -14l-952 -471h-15zM391 295q29 12 79 37.5t104.5 53.5t103.5 52.5t74 34.5l-269 143zM543 819q31 12 75 29.5t90 35t90 35t72 29.5q-8 6 -47 28.5t-84 49.5t-82 49.5 t-39 32.5z" />
<glyph unicode="c" horiz-adv-x="1064" d="M225 649l4 19l1020 673l80 -174l-782 -497l479 -535q-25 -25 -42 -45t-35.5 -39.5t-43 -38t-63.5 -37.5z" />
<glyph unicode="d" horiz-adv-x="1116" d="M98 -12l385 1341h172l-2 -8l613 -653l-4 -19l-1022 -661h-142zM346 250l612 418l-378 399z" />
<glyph unicode="e" d="M233 455l5 14l452 229q-25 53 -158 133q-63 39 -103 67t-56 44l948 457h14l-59 -205l-248 -115q-14 -10 -44 -27.5t-83 -43.5q-47 -23 -83 -41.5t-56 -32.5q41 -27 93 -58.5t99 -54.5l164 -102l-495 -270q25 -25 90 -74q61 -47 92 -58l188 -110l-63 -223h-15z" />
<glyph unicode="f" horiz-adv-x="983" d="M109 18l393 1377h14l703 -289q-14 -20 -41 -61t-58 -91h-55l-442 181h-15l-67 -234q51 0 264 -98q113 -47 167 -71l54 -25q-4 -4 -31 -78q-29 -74 -53 -101l-442 179h-15l-196 -689h-180z" />
<glyph unicode="g" horiz-adv-x="995" d="M96 -18l391 1361l764 -98l-112 -217l-531 86l-237 -829q37 8 95 30.5t144 59.5q154 66 154 67h-4l-84 279l242 98l100 -452z" />
<glyph unicode="h" horiz-adv-x="968" d="M102 2h187l106 373l477 319h27l-199 -692q43 -6 66 -6q12 0 29.5 1t36 2t34 2t21.5 1l385 1344h-187l-98 -347q-12 -39 -231 -190q-109 -74 -180.5 -119t-106.5 -61l205 717h-187z" />
<glyph unicode="i" horiz-adv-x="366" d="M100 -8l385 1341h183l-385 -1341h-183z" />
<glyph unicode="j" horiz-adv-x="792" d="M240 481q2 0 94 -119q47 -59 92 -118.5t90 -118.5q92 -121 98 -123l97 -2l393 1370h-195l-288 -1008l-220 248q-31 -23 -76.5 -60.5t-84.5 -68.5z" />
<glyph unicode="k" horiz-adv-x="972" d="M98 -16l387 1349l174 -2l-167 -583l612 307l29 -170l-533 -275q29 -6 180 -194q74 -90 115 -144.5t51 -76.5q-2 -2 -21.5 -17.5t-43 -37t-44 -44t-26.5 -35.5l-387 449q-33 -117 -62.5 -216t-54.5 -188l-18 -61q-6 -23 -13 -61h-178z" />
<glyph unicode="l" horiz-adv-x="983" d="M102 -2h15l866 289q-2 20 -5 61t-7 90h-56l-544 -180h-15l320 1116h-180z" />
<glyph unicode="m" horiz-adv-x="980" d="M100 -10l392 1370h14l280 -316q27 10 83.5 44t142.5 92q174 121 272 166l-387 -1356h-192l266 932q-66 -10 -123 -48t-117 -75q-20 0 -88 71q-72 72 -76 78l-274 -958h-193z" />
<glyph unicode="n" horiz-adv-x="968" d="M102 2h183l247 860l238 -620l-70 -240h187l385 1344h-185l-243 -850l-221 671l51 179h-187z" />
<glyph unicode="o" horiz-adv-x="1366" d="M238 643l6 19l821 679l410 -675l-5 -19l-815 -684zM518 662l225 -390l457 394l-235 364z" />
<glyph unicode="p" horiz-adv-x="970" d="M100 -4l392 1362h14l649 -426q-76 -33 -168 -74t-209 -92q-115 -49 -190.5 -82t-116.5 -49l-184 -639h-187zM532 840l228 100l-168 111z" />
<glyph unicode="q" horiz-adv-x="1290" d="M141 137l525 406l-248 364l631 490l360 -504l-451 -350l285 -420q-37 -39 -81 -73t-97 -66l-293 405q-55 -31 -120.5 -80t-134 -105.5t-136.5 -116.5t-125 -114q-39 33 -74 75t-41 89zM702 893q14 -10 36 -34.5t53 -61.5q57 -78 61 -86q68 49 133.5 98t132.5 98 q-4 4 -22.5 26.5t-49 63.5t-51 67t-30.5 40q-8 -6 -34 -27.5t-73 -58.5q-51 -39 -89 -71t-67 -54z" />
<glyph unicode="r" horiz-adv-x="972" d="M98 -16l387 1349h13l635 -448l-533 -275q29 -6 180 -194q74 -90 115 -144.5t51 -76.5q-2 -2 -21.5 -17.5t-43 -37t-44 -44t-26.5 -35.5l-387 449l-137 -479l-6 -23q-4 -20 -5 -24h-178zM492 748l309 139q-10 4 -41 23.5t-80 54.5q-103 67 -107 69z" />
<glyph unicode="s" horiz-adv-x="1130" d="M219 532l727 854q4 -4 64 -45q29 -16 46 -35.5t27 -39.5l-469 -531h646l-738 -825l-116 117l450 505h-637z" />
<glyph unicode="t" horiz-adv-x="1193" d="M358 891q2 0 160 119q82 59 161 118.5t161 118.5q160 121 168 123l354 -498q-14 -14 -39 -33.5t-49.5 -38t-45 -33.5t-26.5 -19l-201 264l-290 -1010h-195l289 1008l-359 -248q-18 23 -42.5 60.5t-45.5 68.5z" />
<glyph unicode="u" horiz-adv-x="995" d="M96 -18l922 385l285 991h-193l-248 -869q-39 -20 -100.5 -48.5t-151.5 -65.5q-90 -39 -147 -60.5t-86 -29.5l303 1058h-193z" />
<glyph unicode="v" horiz-adv-x="1105" d="M426 1130l115 -1130l807 1130l-99 191l-547 -758l-8 -28l-37 841z" />
<glyph unicode="w" horiz-adv-x="980" d="M104 6l390 1356h192l-268 -932q66 10 124 48t115 75q20 0 88 -72q72 -72 76 -78l277 959h192l-393 -1370h-14l-281 315q-55 -20 -227 -137q-86 -59 -153.5 -100t-117.5 -64z" />
<glyph unicode="x" horiz-adv-x="1095" d="M135 115l518 608l-168 565q16 10 41 23.5t60 29.5q71 35 106 43l127 -469h15l407 455l125 -96l-496 -565l168 -621q-10 -6 -29.5 -15.5t-42 -20.5t-46 -23.5t-41.5 -24.5h-43l-125 483h-27l-426 -483q-61 29 -89 48.5t-34 62.5z" />
<glyph unicode="y" horiz-adv-x="1216" d="M432 1149q35 18 77 50t79 61l192 -289h27l119 413h180l-115 -399h15l364 262q14 -10 28.5 -25.5t31.5 -35.5q27 -32 27 -55q0 -5 -1 -9q-4 0 -160 -123q-82 -63 -149.5 -117.5t-126.5 -101.5q-115 -94 -121 -112l-192 -674h-181l193 674z" />
<glyph unicode="z" horiz-adv-x="1167" d="M313 735l262 -825l187 117l-160 505h637l-240 854q-6 -4 -28.5 -15t-59.5 -30q-37 -16 -66.5 -35.5t-51.5 -39.5l165 -531h-645z" />
<glyph unicode="{" d="M233 455l682 -471h15l63 223l-544 354l75 270l752 363l59 205h-14l-948 -457z" />
<glyph unicode="|" horiz-adv-x="356" d="M45 -201h172l498 1737h-172z" />
<glyph unicode="}" d="M98 -16l64 223l749 354l76 270l-543 363l60 205h14l686 -457l-139 -487l-952 -471h-15z" />
<glyph unicode="~" horiz-adv-x="1046" d="M250 514l242 258h174l237 -82l283 84l-242 -258h-176l-233 82z" />
<glyph horiz-adv-x="526" />
<glyph unicode="&#xa1;" horiz-adv-x="466" d="M156 23h172l272 940h-174zM444 1190l101 -141l182 141l-102 141z" />
<glyph unicode="&#xa2;" horiz-adv-x="1157" d="M289 649l432 -473l-109 -377h172l68 234l53 -58q37 18 65.5 37t51 39.5t45.5 42t47 45.5l-174 201l180 633l289 188q-20 47 -33.5 79t-23.5 46l-39 55l-107 -71l76 266h-172l-117 -406l-700 -462zM655 668l254 166l-98 -345z" />
<glyph unicode="&#xa3;" horiz-adv-x="983" d="M109 18h14l866 289q-2 20 -5 61.5t-7 90.5h-55l-545 -180h-15l68 233q49 0 320 98q139 47 208 72l68 25q-2 0 14 77q12 72 4 101l-544 -178h-15l197 688h-180z" />
<glyph unicode="&#xa4;" horiz-adv-x="1095" d="M135 115l346 407l-98 174l221 185l-119 407q16 10 41 23.5t60 29.5q72 35 106 43l96 -352l97 82l51 -84l305 340l125 -96l-340 -389l117 -185l-219 -190l114 -422q-10 -6 -29.5 -15.5t-42 -20.5t-46 -23.5t-41.5 -24.5h-43l-91 350l-112 -98l-62 104l-313 -356 q-61 29 -89 48.5t-34 62.5zM567 692l119 -235l258 237l-125 219z" />
<glyph unicode="&#xa5;" horiz-adv-x="1216" d="M383 299l18 -180h162l-37 -125h181l38 135l197 8q6 6 8 23q6 16 7 35.5t4 44.5q-4 68 0 71v2h-162l47 168l192 8q2 2 6 21q6 16 7.5 36.5t3.5 43.5q-4 68 0 74v2h-156v2q6 18 121 112q59 47 126.5 101.5t149.5 117.5q156 123 160 123q6 25 -26 64q-16 20 -31 35.5 t-29 25.5l-364 -262h-15l115 399h-180l-119 -413h-27l-192 289q-37 -29 -79 -61t-77 -50l287 -483q-98 0 -159.5 -4.5t-84.5 -10.5l21 -182l170 6l-48 -162q-100 -2 -158.5 -6t-76.5 -8z" />
<glyph unicode="&#xa6;" horiz-adv-x="356" d="M35 -233h172l508 1769h-172z" />
<glyph unicode="&#xa7;" horiz-adv-x="1083" d="M135 115l346 407l-98 174l502 418l51 -84l305 340l125 -96l-340 -389l117 -185l-510 -444l-62 104l-313 -356q-61 29 -89 48.5t-34 62.5zM567 692l119 -235l258 237l-125 219z" />
<glyph unicode="&#xa8;" horiz-adv-x="849" d="M504 1397l100 -142l182 142l-102 141zM885 1393l100 -142l182 142l-100 141z" />
<glyph unicode="&#xa9;" horiz-adv-x="2926" d="M283 563l4 82l209 31l-76 117l47 100l209 -19q70 236 149 236h11l184 -66q170 162 272 197l135 -98l371 149l57 -51l-30 -49l12 -16l381 65l123 -14l-45 -101h434l27 -34q-25 -84 -103 -97l340 -86l-2 -10l-4 -10q-20 -80 -156 -96q219 -78 203 -125q0 -2 -4 -6l-55 -68 h-164l74 -131q2 -2 -4 -19l-3 -12q-18 -57 -79 -72l-170 33l-74 -196q-35 -37 -84 -37q-35 0 -74 17.5t-90 49.5l-231 -180l-97 -18l-82 100l-391 -166l-51 17l29 100l-471 -66l-47 33l41 82l-461 35l18 63l70 54l-275 47q-55 0 -36 65l135 84zM332 610l266 -147l-223 -84 l411 -86l-174 -96l502 -19l-86 -115l475 82l37 -65l-37 -66l410 164l137 -98l238 201l217 -70l82 233l227 -34q6 12 10 16q12 51 -90 201l238 18l-9 31l-251 135l194 49h21l-11 33l-393 84l174 98h-489l69 117l-491 -66l12 101l-33 14l-370 -149l-117 100l-254 -197 q-16 -8 -45 -8q-61 0 -158 72l-100 -232l-232 17v-68l82 -149zM686 455l117 299l61 12l-98 -289zM844 563q2 14 2 21q0 8 4 18q39 137 285 170l-27 -72q-10 4 -16.5 5.5t-16.5 1.5q-39 0 -98 -41q-63 -55 -82 -119q-18 -57 53 -58q37 0 64 9l-11 -52q-25 -4 -42 -8t-27 -4 q-94 0 -88 129zM1081 506q53 188 195 256q10 0 14 1t2 1h19q102 0 102 -98q-88 -205 -182 -205q-16 -2 -28.5 -3t-24.5 -1q-90 0 -97 49zM1165 584q-23 -72 33 -72q31 0 90 25q41 41 53 88q6 23 0 32q-8 39 -49 39q-55 0 -118 -92q-6 -2 -9 -20zM1397 455l78 295l133 -187 l65 203l53 -16l-81 -289q-82 0 -156 143l-41 -141zM1706 469l117 297l65 12l-98 -289zM1841 485q55 143 215 291q18 8 45 8q61 0 56 -92l-58 -219l-37 12q-12 68 -55 68t-100 -68h-66zM1976 616h105l-10 99zM2159 469l75 291l129 -187l72 205l51 -16l-84 -291 q-76 0 -155 145l-41 -143zM2439 442l51 31l45 -18l-67 -45zM2501 553l77 225l72 -18l-100 -215z" />
<glyph unicode="&#xaa;" horiz-adv-x="587" d="M289 651h96l21 70l266 186l-72 -250h94l197 689l-459 -199zM440 840l70 245l49 24.5t76 33.5q43 18 71.5 29.5t45.5 15.5l-39 -141z" />
<glyph unicode="&#xab;" horiz-adv-x="1609" d="M274 600l492 -459h33h-17l168 131l-348 328h-16l571 279l-49 172zM895 590l489 -459h33h-16l170 131l-348 328h-17l572 278l-49 172z" />
<glyph unicode="&#xac;" horiz-adv-x="1130" d="M287 645q10 4 61 7t124 5t157 3.5t157 1.5q41 0 73 -1.5t61 -1.5q135 0 200 -1l66 -1v-2q-2 -6 -2 -73l2 -11q0 -16 -5 -41.5t-16 -60.5q-20 -66 -39 -199l-133 -143l-73 129l176 233h-779z" />
<glyph unicode="&#xad;" horiz-adv-x="724" d="M305 707l457 -179q25 27 53 101q27 74 31 78l-54 25q-55 24 -167 71q-214 98 -265 98z" />
<glyph unicode="&#xae;" horiz-adv-x="2297" d="M188 303l150 397l70 17l-125 -381zM375 449q4 18 5 27t5 24q52 180 328 223l-37 -94q-10 8 -37 8q-49 0 -111 -55q-74 -72 -98 -154q-20 -76 55 -76q57 0 72 8l-16 -65q-23 -12 -40.5 -14t-35.5 -2q-109 0 -90 170zM639 375q70 246 231 332q16 8 23 8h16q121 0 111 -133 q-111 -268 -215 -269q-18 -2 -32.5 -4t-29.5 -2q-102 0 -104 68zM739 475q-29 -96 29 -96q37 0 109 39q27 27 41 54t22 54q8 31 2 47q-12 49 -53 50q-63 0 -144 -121zM987 303l105 389l141 -243l86 268l59 -23l-108 -381q-94 0 -168 189l-53 -189zM1339 322l150 395l72 12 l-127 -381zM1493 346q35 98 98.5 192.5t161.5 188.5q23 14 49 14q70 0 58 -123l-80 -288l-37 16q-16 86 -60 86q-47 0 -116 -86h-74zM1655 518h117l-11 127zM1847 322l103 385l139 -242l90 264l53 -22l-108 -381q-92 0 -166 192l-55 -188zM2163 293l61 37l45 -27l-76 -57z M2241 432l98 297l80 -22l-127 -283z" />
<glyph unicode="&#xaf;" horiz-adv-x="626" d="M442 1530q51 18 314 12q135 0 200 -1l66 -1q-2 -2 -2 -76q-4 -35 -5 -59.5t-11 -42.5l-543 -12z" />
<glyph unicode="&#xb0;" horiz-adv-x="798" d="M387 995l4 9l410 339l205 -337l-2 -9l-408 -342zM528 1004l111 -195l229 197l-118 182z" />
<glyph unicode="&#xb1;" horiz-adv-x="921" d="M201 176l16 -180l543 12q10 18 12 43t4 60q0 74 2 75l-66 1q-65 1 -200 1q-262 6 -311 -12zM315 741l19 -180h209l-80 -272q2 -2 22 -2q31 0 78 12q2 0 4 1t4 1q63 20 80 21h2l19 60q18 60 53 183h274q6 6 9 23q10 35 10 74v8q-4 61 0 73v2l-60 1q-59 2 -178 2l25 90 q23 72 35 123t10 63l-199 -70l-59 -204h-90q-70 0 -121 -2.5t-66 -6.5z" />
<glyph unicode="&#xb2;" horiz-adv-x="681" d="M369 930l268 203q16 -16 25.5 -27.5t25.5 -36.5l-180 -139q4 -12 14 -30.5t31 -43.5q16 -25 34.5 -48.5t37.5 -45.5q33 -49 30 -57q-18 -16 -37.5 -33t-39.5 -17q-14 0 -64 62q-27 31 -48.5 63.5t-45.5 67.5q-47 66 -51 82zM584 922l182 147l-156 217q25 25 43.5 39.5 t38.5 24.5l215 -281l-274 -217z" />
<glyph unicode="&#xb3;" horiz-adv-x="600" d="M285 637l32 111l123 55q10 4 25.5 10t38.5 18l67 37l-170 136l111 51q33 12 66.5 27.5t62.5 29.5q-4 4 -17.5 13.5t-31.5 23.5q-20 12 -29.5 21.5l-13.5 13.5l-90 57l28 102h7l344 -227q-25 -16 -111 -55q-88 -39 -119 -68l162 -114l-2 -7l-477 -235h-6z" />
<glyph unicode="&#xb4;" horiz-adv-x="534" d="M362 905l242 373l205 16l-43 -200z" />
<glyph unicode="&#xb5;" horiz-adv-x="968" d="M102 2q14 0 53.5 -3t63.5 -3q27 0 70 6l198 692h27l449 -428l309 1080h-187l-204 -717q-51 35 -185 180q-133 152 -121 190l99 347h-187z" />
<glyph unicode="&#xb6;" horiz-adv-x="972" d="M158 195q2 -2 12 -17.5t21.5 -37t19.5 -44t8 -35.5l612 539l-190 113q14 4 54 23.5t112 54.5q135 65 145 69l-235 -852q-4 -10 -5 -15t-3 -9h178l387 1349h-12l-943 -635l279 -200q-8 -2 -7 3t-8.5 2t-38 -21.5t-93.5 -65.5q-123 -88 -195 -143.5t-98 -77.5z" />
<glyph unicode="&#xb7;" horiz-adv-x="466" d="M291 655l100 -141l182 141l-100 142z" />
<glyph unicode="&#xb8;" horiz-adv-x="532" d="M43 -207l377 313l47 -51l-141 -262l-183 -141z" />
<glyph unicode="&#xb9;" horiz-adv-x="505" d="M436 1167q2 -4 5 -13t7.5 -21.5t9.5 -23.5t11 -17l182 88h15l-148 -514h96l195 680h-12z" />
<glyph unicode="&#xba;" horiz-adv-x="798" d="M387 995l4 9l410 339l205 -337l-2 -9l-408 -342zM528 1004l111 -195l229 197l-118 182z" />
<glyph unicode="&#xbb;" horiz-adv-x="1609" d="M211 262l537 328h16l-412 278l148 172l575 -450l-756 -459h-32h16zM836 272l536 328h17l-412 279l147 172l576 -451l-754 -459h-33h17z" />
<glyph unicode="&#xbc;" horiz-adv-x="1505" d="M293 2l133 465q16 8 79.5 49t143.5 93.5t162 107.5t135 92q219 152 232 190l98 347h186l-133 -467l-266 -185l-477 -319l-107 -373h-186zM440 1178l332 165h12l-194 -679h-96l147 514h-14l-156 -76q-6 6 -11 17t-8 23.5t-6.5 22t-5.5 13.5zM1071 133l154 539h92 l-103 -359q20 10 55.5 32t88.5 58q57 39 84.5 62.5t32.5 34.5l49 172h92l-193 -672q-6 0 -26.5 -1t-32.5 -1h-14q-12 0 -19 2l99 346h-15z" />
<glyph unicode="&#xbd;" horiz-adv-x="1499" d="M293 2h186l107 373l477 319l266 185l133 467h-186l-98 -347q-12 -39 -232 -190q-53 -37 -135 -92t-162 -107.5t-143.5 -93.5t-79.5 -49zM440 1178q2 -4 5.5 -13.5t6.5 -22t8 -23.5t11 -17l156 76h14l-147 -514h96l194 679h-12zM870 225q0 -4 13.5 -12t32 -19.5t37 -25.5 t30.5 -31q27 -35 48.5 -67.5t47.5 -63.5q45 -61 62 -61q20 0 40.5 16t37.5 33q4 10 -31 57q-18 23 -35.5 46.5t-36.5 47.5q-37 49 -43 74l178 139q-16 25 -24.5 36.5t-26.5 27.5zM1210 260l52 -70l272 218l-215 280q-20 -10 -38.5 -24.5t-43.5 -38.5l156 -217z" />
<glyph unicode="&#xbe;" horiz-adv-x="1486" d="M274 2l134 465q16 8 79.5 49t143.5 93.5t161.5 107.5t135.5 92q219 152 231 190l98 347h187l-131 -472l-746 -499l-106 -373h-187zM285 639l32 111l125 55q10 4 24.5 10t39.5 19l65 36l-170 136l111 51q33 12 66.5 27.5t62.5 29.5q-10 8 -49 37q-20 12 -29.5 21.5 l-13.5 13.5l-90 57l28 103h7l346 -228q-14 -8 -41 -21.5t-72 -33.5q-88 -39 -119 -68l162 -114l-2 -7l-477 -235h-6zM1053 133l153 539h92l-102 -359q20 10 55 32t88 58q57 39 85 62.5t32 34.5l49 172h92l-192 -672q-6 0 -26.5 -1t-32.5 -1h-15q-12 0 -18 2l98 346h-14z" />
<glyph unicode="&#xbf;" horiz-adv-x="1167" d="M346 852h637l-37 133h193l133 -336h-645l166 -530q-23 -20 -52.5 -40t-66.5 -36q-37 -18 -59.5 -29.5t-28.5 -15.5zM975 1243l182 141l100 -141l-182 -141z" />
<glyph unicode="&#xc0;" horiz-adv-x="991" d="M102 0l285 991l922 400l-396 -1377h-188l143 500l-532 -373l-41 -141h-193zM403 379l545 414l80 280q-29 -8 -86 -29.5t-147 -60.5q-90 -37 -151.5 -65.5t-98.5 -49.5zM784 1530l43 145h179l92 -258z" />
<glyph unicode="&#xc1;" horiz-adv-x="991" d="M102 0h193l41 141l532 373l-143 -500h188l396 1377l-922 -400zM403 379l142 489q37 20 98.5 49t151.5 66q90 39 147 60.5t86 29.5l-80 -280zM725 1417l379 113l43 145h-178z" />
<glyph unicode="&#xc2;" horiz-adv-x="991" d="M102 0h193l41 141l532 373l-143 -500h188l396 1377l-922 -400zM403 379l142 489q37 20 98.5 49t151.5 66q90 39 147 60.5t86 29.5l-80 -280zM670 1417l284 84l236 -84l-92 258h-185z" />
<glyph unicode="&#xc3;" horiz-adv-x="1046" d="M123 0l285 991l921 400l-395 -1377h-189l144 500l-533 -373l-41 -141h-192zM424 379l545 414l80 280q-29 -8 -86.5 -29.5t-147.5 -60.5q-90 -37 -151.5 -66t-98.5 -49zM506 1405l242 258h174l235 -82l285 84l-242 -258h-176l-236 82z" />
<glyph unicode="&#xc4;" horiz-adv-x="991" d="M102 0l285 991l922 400l-396 -1377h-188l143 500l-532 -373l-41 -141h-193zM403 379l545 414l80 280q-29 -8 -86 -29.5t-147 -60.5q-90 -37 -151.5 -65.5t-98.5 -49.5zM608 1536l183 141l100 -141l-182 -141zM989 1532l182 141l101 -141l-180 -141z" />
<glyph unicode="&#xc5;" horiz-adv-x="991" d="M102 0l285 991l922 400l-396 -1377h-188l143 500l-532 -373l-41 -141h-193zM403 379l545 414l80 280q-29 -8 -86 -29.5t-147 -60.5q-90 -37 -151.5 -65.5t-98.5 -49.5zM811 1532l182 141l101 -141l-181 -141z" />
<glyph unicode="&#xc6;" horiz-adv-x="1654" d="M98 -14h193l41 141l532 373l-143 -500h188l103 356l542 -372h15l63 223l-188 110q-31 10 -92 58q-66 49 -90 74l495 270l-164 102q-47 23 -99 54.5t-93 58.5q20 14 56 32.5t83 41.5q53 27 83 44t44 27l248 115l59 205h-14l-754 -363l99 340l-922 -399zM399 365l142 489 q37 20 98 49t152 66q90 39 147 60.5t86 29.5l-80 -281zM1071 567l80 277l20 -13q133 -80 158 -133z" />
<glyph unicode="&#xc7;" horiz-adv-x="1157" d="M279 -66l376 314l-366 401l4 19l1020 673l39 -55q10 -14 23.5 -46t33.5 -79l-754 -493l459 -529q-25 -25 -47.5 -46t-45 -41.5t-51 -39t-65.5 -37.5l-203 222l-141 -263l-182 -141z" />
<glyph unicode="&#xc8;" d="M233 455l682 -471h15l63 223l-188 110q-27 8 -92.5 57.5t-89.5 74.5l495 270l-164 102q-47 23 -99 54.5t-93 58.5q20 14 56 32.5t83 41.5q53 27 83 44t44 27l248 115l59 205h-14l-948 -457q16 -16 56 -44t103 -67q133 -80 158 -133l-452 -229zM784 1530l314 -113l-92 258 h-179z" />
<glyph unicode="&#xc9;" d="M233 455l5 14l452 229q-25 53 -158 133q-63 39 -103 67t-56 44l948 457h14l-59 -205l-248 -115q-14 -10 -44 -27.5t-83 -43.5q-47 -23 -83 -41.5t-56 -32.5q41 -27 93 -58.5t99 -54.5l164 -102l-495 -270q25 -25 90 -74t92 -58l188 -110l-63 -223h-15zM750 1417l243 258 h178l-43 -145z" />
<glyph unicode="&#xca;" d="M233 455l682 -471h15l63 223l-188 110q-31 10 -92 58q-66 49 -90 74l495 270l-164 102q-47 23 -99 54.5t-93 58.5q20 14 56 32.5t83 41.5q53 27 83 44t44 27l248 115l59 205h-14l-948 -457q16 -16 56 -44t103 -67q133 -80 158 -133l-452 -229zM725 1405l283 84l237 -84 l-94 258h-184z" />
<glyph unicode="&#xcb;" d="M233 455l5 14l452 229q-25 53 -158 133q-63 39 -103 67t-56 44l948 457h14l-59 -205l-248 -115q-14 -10 -44 -27.5t-83 -43.5q-47 -23 -83 -41.5t-56 -32.5q41 -27 93 -58.5t99 -54.5l164 -102l-495 -270q25 -25 90 -74q61 -47 92 -58l188 -110l-63 -223h-15zM682 1532 l182 141l101 -141l-181 -141zM1032 1528l182 141l101 -141l-182 -142z" />
<glyph unicode="&#xcc;" horiz-adv-x="1196" d="M246 500q12 14 36.5 33.5t50 38t46 34t27.5 19.5l200 -265h15l186 650l-358 -248q-18 23 -43 60.5t-46 68.5q2 0 160 119q82 59 161 118.5t161 118.5q80 59 122 90t46 33l354 -498q-14 -14 -39 -33.5t-49.5 -38t-45 -33.5t-26.5 -19l-200 264l-185 -637l342 235 q18 -23 42 -60.5t44 -68.5q-4 -4 -43 -32.5t-114 -86.5q-80 -59 -160 -118.5t-162 -118.5q-160 -121 -168 -123zM891 1536l41 145h178l94 -258z" />
<glyph unicode="&#xcd;" horiz-adv-x="1196" d="M244 481q2 -4 92 -119q47 -59 92 -118.5t90 -118.5q47 -59 71.5 -90t26.5 -33l641 498q-4 14 -17 33.5t-28.5 38t-28 34t-16.5 19.5l-352 -265h-14l186 650l219 -248q31 23 77 60.5t85 68.5q-2 0 -94 119q-45 59 -91 118.5t-91 118.5q-92 119 -99 123l-641 -498 q6 -14 19.5 -33.5t28 -38t26.5 -33.5t16 -19l353 264l-185 -637l-207 235q-31 -23 -75.5 -60.5t-83.5 -68.5zM827 1423l379 113l41 145h-178z" />
<glyph unicode="&#xce;" horiz-adv-x="1196" d="M246 500l354 -498q8 2 168 123q82 59 162 118.5t160 118.5q76 57 114.5 86t42.5 33q-20 31 -43.5 69t-42.5 60l-342 -235l185 637l200 -264q6 4 26.5 19t45 33.5t49.5 38t39 33.5l-354 498q-4 -2 -46 -32.5t-122 -90.5q-82 -59 -161 -118.5t-161 -118.5 q-158 -119 -160 -119q20 -31 45 -69t44 -60l358 248l-186 -650h-15l-200 265q-6 -4 -27 -19.5t-46.5 -34t-50 -38t-36.5 -33.5zM748 1393l284 84l236 -84l-94 258h-185z" />
<glyph unicode="&#xcf;" horiz-adv-x="1196" d="M246 500l354 -498q6 2 47 33t121 90q82 59 162 118.5t160 118.5q76 57 114.5 86t42.5 33q-20 31 -43.5 69t-42.5 60l-342 -235l185 637l200 -264q6 4 26.5 19t45 33.5t49.5 38t39 33.5l-354 498q-8 -2 -168 -123q-82 -59 -161 -118.5t-161 -118.5q-158 -119 -160 -119 q20 -31 45 -69t44 -60l358 248l-186 -650h-15l-200 265q-6 -4 -27 -19.5t-46.5 -34t-50 -38t-36.5 -33.5zM715 1538l102 -141l180 141l-100 141zM1098 1534l100 -141l182 141l-100 141z" />
<glyph unicode="&#xd0;" horiz-adv-x="1366" d="M307 -12h142l1021 661l5 19l-613 653l2 8h-172l-139 -489q-156 65 -191 65l-55 -194l187 -74zM565 287l84 288l115 -43q27 35 53 101q27 76 31 78l-143 61l71 250l336 -354z" />
<glyph unicode="&#xd1;" horiz-adv-x="1046" d="M121 -4l391 1362l700 -385l-284 -991h-193l250 868q-27 20 -72 49t-112 66q-68 39 -114 60.5t-69 29.5l-305 -1059h-192zM506 1405l242 258h174l235 -82l285 84l-242 -258h-176l-236 82z" />
<glyph unicode="&#xd2;" horiz-adv-x="1415" d="M287 643l6 19l821 679l410 -675l-4 -19l-815 -684zM567 662l226 -390l456 394l-235 364zM991 1538l43 145h178l95 -258z" />
<glyph unicode="&#xd3;" horiz-adv-x="1415" d="M289 647l422 -684l807 680l6 19l-432 679l-799 -675zM567 666l445 364l237 -368l-450 -390zM948 1425l377 113l43 145h-178z" />
<glyph unicode="&#xd4;" horiz-adv-x="1415" d="M287 643l418 -680l815 684l4 19l-410 675l-821 -679zM567 662l447 368l235 -364l-456 -394zM850 1382l283 84l237 -84l-94 258h-184z" />
<glyph unicode="&#xd5;" horiz-adv-x="1415" d="M287 643l6 19l821 679l410 -675l-4 -19l-815 -684zM567 662l226 -390l456 394l-235 364zM690 1386l242 259h174l237 -82l285 84l-244 -258h-176l-233 81z" />
<glyph unicode="&#xd6;" horiz-adv-x="1415" d="M287 643l418 -680l815 684l4 19l-410 675l-821 -679zM567 662l447 368l235 -364l-456 -394zM811 1536l100 -141l183 141l-101 141zM1192 1532l102 -141l181 141l-101 141z" />
<glyph unicode="&#xd7;" horiz-adv-x="1095" d="M166 223l452 377l-229 350q27 14 94 33q35 10 60 17.5t41 9.5l180 -291h14l357 282l137 -59l-434 -350l235 -387q-10 -4 -28.5 -9.5t-40 -11.5t-44 -14t-38.5 -16h-43l-177 301h-26l-375 -301q-66 18 -95.5 29.5t-39.5 39.5z" />
<glyph unicode="&#xd8;" horiz-adv-x="1415" d="M287 643l6 19l821 679l127 -208l59 210h187l-121 -419l158 -258l-4 -19l-815 -684l-144 234l-57 -197h-187l115 403zM567 662l51 -91l353 236q76 51 129 92l-86 131zM700 432l93 -160l456 394l-61 94z" />
<glyph unicode="&#xd9;" horiz-adv-x="995" d="M207 367l285 991h192l-248 -869q27 -20 71 -48.5t111 -65.5q68 -39 114 -60.5t71 -29.5l303 1058h192l-391 -1361zM766 1528l41 145h178l94 -258z" />
<glyph unicode="&#xda;" horiz-adv-x="995" d="M207 367l700 -385l391 1361h-192l-303 -1058q-25 8 -71 29.5t-114 60.5q-68 37 -111.5 65.5t-70.5 48.5l248 869h-192zM748 1415l378 113l41 145h-178z" />
<glyph unicode="&#xdb;" horiz-adv-x="995" d="M207 367l285 991h192l-248 -869q27 -20 71 -48.5t111 -65.5q68 -39 114 -60.5t71 -29.5l303 1058h192l-391 -1361zM637 1417l244 258h184l92 -258l-235 84z" />
<glyph unicode="&#xdc;" horiz-adv-x="995" d="M207 367l700 -385l391 1361h-192l-303 -1058q-25 8 -71 29.5t-114 60.5q-68 37 -111.5 65.5t-70.5 48.5l248 869h-192zM633 1573l100 -141l182 141l-100 141zM1018 1577l100 -141l182 141l-100 141z" />
<glyph unicode="&#xdd;" horiz-adv-x="1216" d="M432 1149l287 -481l-193 -674h181l192 674q6 18 121 112q59 47 126.5 101.5t149.5 117.5q156 123 160 123q6 25 -26 64q-16 20 -31 35.5t-29 25.5l-364 -262h-15l115 399h-180l-119 -413h-27l-192 289q-37 -29 -79 -61t-77 -50zM840 1432l379 112l43 146h-179z" />
<glyph unicode="&#xde;" horiz-adv-x="972" d="M100 -8l385 1341h187l-99 -338l508 -331l-688 -297l-106 -371h-4v-4h-183zM457 571l227 101l-166 110z" />
<glyph unicode="&#xdf;" horiz-adv-x="1290" d="M47 -190l457 1591h172l784 -432l19 -27q-47 -33 -226 -111q-45 -20 -73.5 -38.5t-48 -35t-33 -30.5t-27.5 -27l272 -231l-4 -14l-903 -469h-14l63 223l252 110q18 4 49 19.5l76 38t78 41t55 33.5l-340 270l222 102q61 23 130.5 54.5t127.5 58.5l-514 272l-402 -1398h-172 z" />
<glyph unicode="&#xe0;" horiz-adv-x="991" d="M102 0l285 991l922 400l-396 -1377h-188l143 500l-532 -373l-41 -141h-193zM403 379l545 414l80 280q-29 -8 -86 -29.5t-147 -60.5q-90 -37 -151.5 -65.5t-98.5 -49.5zM784 1530l43 145h179l92 -258z" />
<glyph unicode="&#xe1;" horiz-adv-x="991" d="M102 0h193l41 141l532 373l-143 -500h188l396 1377l-922 -400zM403 379l142 489q37 20 98.5 49t151.5 66q90 39 147 60.5t86 29.5l-80 -280zM725 1417l379 113l43 145h-178z" />
<glyph unicode="&#xe2;" horiz-adv-x="991" d="M102 0h193l41 141l532 373l-143 -500h188l396 1377l-922 -400zM403 379l142 489q37 20 98.5 49t151.5 66q90 39 147 60.5t86 29.5l-80 -280zM670 1417l284 84l236 -84l-92 258h-185z" />
<glyph unicode="&#xe3;" horiz-adv-x="1046" d="M123 0l285 991l921 400l-395 -1377h-189l144 500l-533 -373l-41 -141h-192zM424 379l545 414l80 280q-29 -8 -86.5 -29.5t-147.5 -60.5q-90 -37 -151.5 -66t-98.5 -49zM506 1405l242 258h174l235 -82l285 84l-242 -258h-176l-236 82z" />
<glyph unicode="&#xe4;" horiz-adv-x="991" d="M102 0l285 991l922 400l-396 -1377h-188l143 500l-532 -373l-41 -141h-193zM403 379l545 414l80 280q-29 -8 -86 -29.5t-147 -60.5q-90 -37 -151.5 -65.5t-98.5 -49.5zM608 1536l183 141l100 -141l-182 -141zM989 1532l182 141l101 -141l-180 -141z" />
<glyph unicode="&#xe5;" horiz-adv-x="991" d="M102 0l285 991l922 400l-396 -1377h-188l143 500l-532 -373l-41 -141h-193zM403 379l545 414l80 280q-29 -8 -86 -29.5t-147 -60.5q-90 -37 -151.5 -65.5t-98.5 -49.5zM811 1532l182 141l101 -141l-181 -141z" />
<glyph unicode="&#xe6;" horiz-adv-x="1654" d="M98 -14h193l41 141l532 373l-143 -500h188l103 356l542 -372h15l63 223l-188 110q-31 10 -92 58q-66 49 -90 74l495 270l-164 102q-47 23 -99 54.5t-93 58.5q20 14 56 32.5t83 41.5q53 27 83 44t44 27l248 115l59 205h-14l-754 -363l99 340l-922 -399zM399 365l142 489 q37 20 98 49t152 66q90 39 147 60.5t86 29.5l-80 -281zM1071 567l80 277l20 -13q133 -80 158 -133z" />
<glyph unicode="&#xe7;" horiz-adv-x="1157" d="M279 -66l376 314l-366 401l4 19l1020 673l39 -55q10 -14 23.5 -46t33.5 -79l-754 -493l459 -529q-25 -25 -47.5 -46t-45 -41.5t-51 -39t-65.5 -37.5l-203 222l-141 -263l-182 -141z" />
<glyph unicode="&#xe8;" d="M233 455l682 -471h15l63 223l-188 110q-27 8 -92.5 57.5t-89.5 74.5l495 270l-164 102q-47 23 -99 54.5t-93 58.5q20 14 56 32.5t83 41.5q53 27 83 44t44 27l248 115l59 205h-14l-948 -457q16 -16 56 -44t103 -67q133 -80 158 -133l-452 -229zM784 1530l314 -113l-92 258 h-179z" />
<glyph unicode="&#xe9;" d="M233 455l5 14l452 229q-25 53 -158 133q-63 39 -103 67t-56 44l948 457h14l-59 -205l-248 -115q-14 -10 -44 -27.5t-83 -43.5q-47 -23 -83 -41.5t-56 -32.5q41 -27 93 -58.5t99 -54.5l164 -102l-495 -270q25 -25 90 -74t92 -58l188 -110l-63 -223h-15zM750 1417l243 258 h178l-43 -145z" />
<glyph unicode="&#xea;" d="M233 455l682 -471h15l63 223l-188 110q-31 10 -92 58q-66 49 -90 74l495 270l-164 102q-47 23 -99 54.5t-93 58.5q20 14 56 32.5t83 41.5q53 27 83 44t44 27l248 115l59 205h-14l-948 -457q16 -16 56 -44t103 -67q133 -80 158 -133l-452 -229zM725 1405l283 84l237 -84 l-94 258h-184z" />
<glyph unicode="&#xeb;" d="M233 455l5 14l452 229q-25 53 -158 133q-63 39 -103 67t-56 44l948 457h14l-59 -205l-248 -115q-14 -10 -44 -27.5t-83 -43.5q-47 -23 -83 -41.5t-56 -32.5q41 -27 93 -58.5t99 -54.5l164 -102l-495 -270q25 -25 90 -74q61 -47 92 -58l188 -110l-63 -223h-15zM682 1532 l182 141l101 -141l-181 -141zM1032 1528l182 141l101 -141l-182 -142z" />
<glyph unicode="&#xec;" horiz-adv-x="366" d="M100 -8h183l385 1341h-183zM467 1534l313 -113l-94 258h-178z" />
<glyph unicode="&#xed;" horiz-adv-x="366" d="M111 -8l385 1341h182l-385 -1341h-182zM432 1421l242 258h178l-41 -145z" />
<glyph unicode="&#xee;" horiz-adv-x="366" d="M111 -8h182l385 1341h-182zM348 1417l285 84l235 -84l-92 258h-184z" />
<glyph unicode="&#xef;" horiz-adv-x="366" d="M100 -8h183l385 1341h-183zM307 1534l101 -141l182 141l-101 141zM688 1530l100 -141l183 141l-101 141z" />
<glyph unicode="&#xf0;" horiz-adv-x="1124" d="M223 420q63 27 138 58.5t161 72.5q10 4 18.5 8t16.5 8l43 19q115 49 190.5 81.5t112.5 49.5l43 145h-196l-19 180q37 12 203 13h72l86 301h182l-86 -301q29 -2 49 -2h39h33v-2q-2 -8 0 -74l-2 -2q2 0 2 -2q-2 -49 -11 -82q-4 -8 -5 -12.5t-3 -8.5h-151l-252 -876h-15z M621 412l165 -111l62 211z" />
<glyph unicode="&#xf1;" horiz-adv-x="1046" d="M123 2l385 1344h186l-51 -179l221 -671l244 850h184l-385 -1344h-186l70 240l-238 620l-248 -860h-182zM506 1405l242 258h174l235 -82l285 84l-242 -258h-176l-236 82z" />
<glyph unicode="&#xf2;" horiz-adv-x="1415" d="M287 643l6 19l821 679l410 -675l-4 -19l-815 -684zM567 662l226 -390l456 394l-235 364zM991 1538l43 145h178l95 -258z" />
<glyph unicode="&#xf3;" horiz-adv-x="1415" d="M289 647l422 -684l807 680l6 19l-432 679l-799 -675zM567 666l445 364l237 -368l-450 -390zM948 1425l377 113l43 145h-178z" />
<glyph unicode="&#xf4;" horiz-adv-x="1415" d="M287 643l418 -680l815 684l4 19l-410 675l-821 -679zM567 662l447 368l235 -364l-456 -394zM850 1382l283 84l237 -84l-94 258h-184z" />
<glyph unicode="&#xf5;" horiz-adv-x="1415" d="M287 643l6 19l821 679l410 -675l-4 -19l-815 -684zM567 662l226 -390l456 394l-235 364zM690 1386l242 259h174l237 -82l285 84l-244 -258h-176l-233 81z" />
<glyph unicode="&#xf6;" horiz-adv-x="1415" d="M287 643l418 -680l815 684l4 19l-410 675l-821 -679zM567 662l447 368l235 -364l-456 -394zM811 1536l100 -141l183 141l-101 141zM1192 1532l102 -141l181 141l-101 141z" />
<glyph unicode="&#xf7;" horiz-adv-x="1116" d="M287 645l30 -156l850 -10q10 18 12.5 43t4.5 60q0 74 2 75l-66 1q-65 1 -200 1q-20 2 -48 3h-55q-76 0 -164 -2.5t-165.5 -4.5t-134 -5t-66.5 -5zM545 262l100 -141l182 141l-102 141zM717 864l100 -141l182 141l-100 142z" />
<glyph unicode="&#xf8;" horiz-adv-x="1415" d="M287 643l6 19l821 679l127 -208l59 210h187l-121 -419l158 -258l-4 -19l-815 -684l-144 234l-57 -197h-187l115 403zM567 662l51 -91l353 236q76 51 129 92l-86 131zM700 432l93 -160l456 394l-61 94z" />
<glyph unicode="&#xf9;" horiz-adv-x="995" d="M96 -18l391 1361h193l-303 -1058q29 8 86 29.5t147 60.5q90 37 151.5 65.5t100.5 48.5l248 869h193l-285 -991zM766 1528l41 145h178l94 -258z" />
<glyph unicode="&#xfa;" horiz-adv-x="995" d="M96 -18l922 385l285 991h-193l-248 -869q-39 -20 -100.5 -48.5t-151.5 -65.5q-90 -39 -147 -60.5t-86 -29.5l303 1058h-193zM748 1415l378 113l41 145h-178z" />
<glyph unicode="&#xfb;" horiz-adv-x="995" d="M96 -18l922 385l285 991h-193l-248 -869q-39 -20 -100.5 -48.5t-151.5 -65.5q-90 -39 -147 -60.5t-86 -29.5l303 1058h-193zM670 1417l284 84l236 -84l-92 258h-185z" />
<glyph unicode="&#xfc;" horiz-adv-x="995" d="M96 -18l391 1361h193l-303 -1058q29 8 86 29.5t147 60.5q90 37 151.5 65.5t100.5 48.5l248 869h193l-285 -991zM621 1577l182 141l100 -141l-182 -141zM1001 1573l183 141l100 -141l-182 -141z" />
<glyph unicode="&#xfd;" horiz-adv-x="1216" d="M432 1149l287 -481l-193 -674h181l192 674q6 18 121 112q59 47 126.5 101.5t149.5 117.5q156 123 160 123q6 25 -26 64q-16 20 -31 35.5t-29 25.5l-364 -262h-15l115 399h-180l-119 -413h-27l-192 289q-37 -29 -79 -61t-77 -50zM840 1432l379 112l43 146h-179z" />
<glyph unicode="&#xfe;" horiz-adv-x="972" d="M100 -8l385 1341h187l-99 -338l508 -331l-688 -297l-106 -371h-4v-4h-183zM457 571l227 101l-166 110z" />
<glyph unicode="&#xff;" horiz-adv-x="1216" d="M432 1149l287 -481l-193 -674h181l192 674q6 18 121 112q59 47 126.5 101.5t149.5 117.5q156 123 160 123q6 25 -26 64q-16 20 -31 35.5t-29 25.5l-364 -262h-15l115 399h-180l-119 -413h-27l-192 289q-37 -29 -79 -61t-77 -50zM721 1524l102 -142l181 142l-101 141z M1104 1520l100 -142l182 142l-100 141z" />
<glyph unicode="&#x152;" horiz-adv-x="1607" d="M299 688l616 -674q39 18 67 37t51.5 39.5t46 42t46.5 45.5l-147 170l528 -364h15l63 223l-188 110q-27 8 -92.5 57.5t-90.5 74.5l496 270l-164 102q-47 23 -99 54.5t-93 58.5q20 14 56 32.5t83 41.5q53 27 83 44t44 27l248 115l59 205h-14l-717 -346l223 147 q-39 100 -55 125l-41 55l-1018 -673zM668 707l362 223l305 -215l-475 -232z" />
<glyph unicode="&#x153;" horiz-adv-x="1607" d="M299 688l616 -674q39 18 67 37t51.5 39.5t46 42t46.5 45.5l-147 170l528 -364h15l63 223l-188 110q-27 8 -92.5 57.5t-90.5 74.5l496 270l-164 102q-47 23 -99 54.5t-93 58.5q20 14 56 32.5t83 41.5q53 27 83 44t44 27l248 115l59 205h-14l-717 -346l223 147 q-39 100 -55 125l-41 55l-1018 -673zM668 707l321 211q45 -32 135 -87q133 -80 158 -133l-422 -215z" />
<glyph unicode="&#x178;" horiz-adv-x="1216" d="M432 1149l287 -481l-193 -674h181l192 674q6 18 121 112q59 47 126.5 101.5t149.5 117.5q156 123 160 123q6 25 -26 64q-16 20 -31 35.5t-29 25.5l-364 -262h-15l115 399h-180l-119 -413h-27l-192 289q-37 -29 -79 -61t-77 -50zM721 1524l102 -142l181 142l-101 141z M1104 1520l100 -142l182 142l-100 141z" />
<glyph unicode="&#x2c6;" horiz-adv-x="704" d="M471 1282l283 84l237 -84l-94 258h-184z" />
<glyph unicode="&#x2dc;" horiz-adv-x="1046" d="M471 1282l242 258h174l235 -82l285 84l-242 -258h-176l-235 82z" />
<glyph unicode="&#x2000;" horiz-adv-x="859" />
<glyph unicode="&#x2001;" horiz-adv-x="1718" />
<glyph unicode="&#x2002;" horiz-adv-x="859" />
<glyph unicode="&#x2003;" horiz-adv-x="1718" />
<glyph unicode="&#x2004;" horiz-adv-x="572" />
<glyph unicode="&#x2005;" horiz-adv-x="429" />
<glyph unicode="&#x2006;" horiz-adv-x="286" />
<glyph unicode="&#x2007;" horiz-adv-x="286" />
<glyph unicode="&#x2008;" horiz-adv-x="214" />
<glyph unicode="&#x2009;" horiz-adv-x="343" />
<glyph unicode="&#x200a;" horiz-adv-x="95" />
<glyph unicode="&#x2010;" horiz-adv-x="724" d="M305 707l457 -179q25 27 53 101q27 74 31 78l-54 25q-55 24 -167 71q-214 98 -265 98z" />
<glyph unicode="&#x2011;" horiz-adv-x="724" d="M305 707l457 -179q25 27 53 101q27 74 31 78l-54 25q-55 24 -167 71q-214 98 -265 98z" />
<glyph unicode="&#x2012;" horiz-adv-x="724" d="M305 707l457 -179q25 27 53 101q27 74 31 78l-54 25q-55 24 -167 71q-214 98 -265 98z" />
<glyph unicode="&#x2013;" horiz-adv-x="724" d="M305 707l457 -179q25 27 53 101q27 74 31 78l-54 25q-55 24 -167 71q-214 98 -265 98z" />
<glyph unicode="&#x2014;" horiz-adv-x="724" d="M305 707l457 -179q25 27 53 101q27 74 31 78l-54 25q-55 24 -167 71q-214 98 -265 98z" />
<glyph unicode="&#x2018;" horiz-adv-x="466" d="M385 985l248 371l35 -371l-183 -141z" />
<glyph unicode="&#x2019;" horiz-adv-x="466" d="M451 1214l182 142l100 -142l-248 -370z" />
<glyph unicode="&#x201a;" horiz-adv-x="466" d="M82 -203l168 228l-100 141l182 141l100 -141l-41 -141z" />
<glyph unicode="&#x201c;" horiz-adv-x="794" d="M383 981l248 371l35 -371l-181 -141zM713 985l248 371l34 -371l-182 -141z" />
<glyph unicode="&#x201d;" horiz-adv-x="794" d="M449 1210l182 142l100 -142l-246 -370zM778 1214l183 142l100 -142l-248 -370z" />
<glyph unicode="&#x201e;" horiz-adv-x="804" d="M82 -201l170 228l-100 141l180 141l102 -141l-41 -141zM420 -203l168 228l-101 141l183 141l100 -141l-41 -141z" />
<glyph unicode="&#x2022;" horiz-adv-x="866" d="M293 662l225 -390l457 394l-236 364z" />
<glyph unicode="&#x2026;" horiz-adv-x="1318" d="M152 170l182 141l100 -141l-182 -141zM582 162l180 141l102 -141l-182 -142zM1001 166l183 141l100 -141l-182 -141z" />
<glyph unicode="&#x202f;" horiz-adv-x="343" />
<glyph unicode="&#x2039;" horiz-adv-x="987" d="M272 590l490 -459h33h-17l170 131l-348 328h-16l571 278l-49 172z" />
<glyph unicode="&#x203a;" horiz-adv-x="987" d="M211 262l537 328h16l-412 278l148 172l575 -450l-756 -459h-32h16z" />
<glyph unicode="&#x205f;" horiz-adv-x="429" />
<glyph unicode="&#x20ac;" horiz-adv-x="1241" d="M260 532l14 -182h381l334 -375q37 18 65.5 37t51 39.5t45.5 42t47 45.5l-176 217h162q2 4 4 9.5t4 15.5q8 31 12 80q-4 68 0 74v2l-64 1q-65 1 -200 3l-80 2l-121 125l222 143h352l6 20q6 16 7 37t3 47q0 63 4 76v2h-22h-29h-20t-21 2l252 166q-20 47 -33.5 79t-23.5 46 l-39 55l-516 -342q-78 0 -162 -1t-154.5 -3t-121 -4t-58.5 -4l16 -180h191l-215 -139l-4 -19l110 -106q-88 -2 -150.5 -4.5t-72.5 -6.5z" />
<glyph unicode="&#x2122;" horiz-adv-x="1134" d="M424 1120l80 62l160 116q82 62 84 62l178 -248q-6 -8 -18.5 -18.5t-25 -19.5t-23.5 -16t-13 -9l-103 133l-143 -506h-96l143 504l-180 -123q-10 10 -21.5 28.5t-21.5 34.5zM850 676l197 686h6l141 -158q8 0 40 20.5t70.5 47t77.5 50.5t60 32l-195 -678h-96l133 467 q-33 -6 -61.5 -24.5t-59.5 -37.5q-4 0 -43 35l-37 39l-137 -479h-96z" />
<glyph unicode="&#x25fc;" horiz-adv-x="1382" d="M0 0v1382h1382v-1382h-1382z" />
</font>
</defs>
</svg>
