<?xml version="1.0" standalone="no"?>
<!DOCTYPE svg PUBLIC "-//W3C//DTD SVG 1.1//EN" "http://www.w3.org/Graphics/SVG/1.1/DTD/svg11.dtd" >
<svg xmlns="http://www.w3.org/2000/svg" xmlns:xlink="http://www.w3.org/1999/xlink" version="1.1">
<metadata></metadata>
<defs>
<font id="heorot_shadowregular" horiz-adv-x="1077" >
<font-face units-per-em="2048" ascent="1638" descent="-410" />
<missing-glyph horiz-adv-x="743" />
<glyph horiz-adv-x="0" />
<glyph unicode="&#xd;" horiz-adv-x="1024" />
<glyph unicode=" "  horiz-adv-x="743" />
<glyph unicode="&#x09;" horiz-adv-x="743" />
<glyph unicode="&#xa0;" horiz-adv-x="743" />
<glyph unicode="!" horiz-adv-x="528" d="M66 166l178 -178l4 4l39 -39l170 170l-39 39l4 4l-164 164h143v981l-36 37v12h-226l-2 -993h13l36 -37h43zM102 166l142 141l141 -141l-141 -141zM164 393l2 940h172v-940h-174z" />
<glyph unicode="&#x22;" horiz-adv-x="856" d="M72 1217l172 172l162 -162l165 166l172 -172l-2 -7l37 -36l-164 -435l-39 37l-4 -12l-137 358l-147 -387l-39 37l-4 -12zM102 1210l142 -370l141 370l-141 142zM430 1214l141 -370l142 370l-142 142z" />
<glyph unicode="#" horiz-adv-x="1159" d="M76 506l14 -6l35 -33l131 -47v-397h12l37 -37h223v325l101 -35v-399h12l37 -37h223v340l135 -47q29 47 35 123q4 37 7 56.5t16 31.5l-39 39l6 6q-35 12 -70 26.5t-90 35.5v96l135 -47q29 47 35 123q4 37 7 56t16 32l-39 39l6 6q-35 12 -70 26.5t-90 34.5v406l-37 37v12 h-235v-348l-17 6q-4 2 -10 3t-12 5q-12 4 -25.5 10t-29.5 13q-4 0 -7 2v405l-36 37v12h-236v-350q-131 45 -156 45l-24 -25v-215l14 -6l35 -32l131 -48v-86q-66 23 -109 34t-71 11v-239zM102 524v195q27 0 181 -53v161l-181 64v194q27 0 181 -53v359h182v-430 q59 -23 97 -38.5t59 -23.5l34 -12v358h183v-430q92 -35 135 -53l43 -17q-2 -2 -8 -77q-6 -70 -25 -101l-145 51v-169q92 -35 135 -53l43 -17q-2 -2 -8 -78q-6 -70 -25 -100l-145 51v-348h-183v411l-180 64v14l-10 4v-348h-182v412zM465 594q59 -23 97 -38t59 -24l34 -12v162 l-180 63v15l-10 4v-170zM528 596v82l101 -35v-86l-17 6q-4 2 -10 3t-12 5q-12 4 -25.5 10.5t-29.5 12.5q-4 0 -7 2z" />
<glyph unicode="$" horiz-adv-x="1241" d="M66 868l430 -442v-133l-23 -21q-102 -96 -102 -135l6 -12q4 -8 8 -10q16 -23 34.5 -45.5t45.5 -38.5l10 -8q4 -4 9 -9.5t12 -9.5v-262h12l37 -37h213v416q61 59 122.5 120.5l127.5 127.5q68 72 107.5 115.5t51.5 66.5l-39 37l2 2q0 2 3 4l-375 358v178l129 130 q-18 29 -33.5 50t-32.5 38q-31 39 -63 69v99l-37 36v13h-225v-287zM102 868l420 400v270h172v-111q35 -18 64.5 -46.5t58.5 -75.5l-123 -123v-203l404 -389q-8 -14 -45 -54t-103 -110q-66 -68 -129 -131.5t-127 -122.5v-403h-172v274q-41 0 -70.5 33t-54.5 65q0 25 95 113 l30 29v153zM383 868l139 -145v285zM457 827l39 39v-78zM694 449q94 92 123 141l-123 123v-264zM758 555v55l22 -22q-6 -8 -11 -15.5t-11 -17.5z" />
<glyph unicode="%" horiz-adv-x="1617" d="M76 987v29l340 368l327 -366v-4l37 -41v-25l-329 -364l-39 39l-4 -5zM102 997l306 -340l309 342v9l-301 338l-314 -340v-9zM240 1006l170 184l170 -182l-172 -197zM309 963l99 -111l135 156l-97 102zM369 -25v508q18 10 69 50t113.5 91.5t127 104.5t109.5 90h-2 q180 156 181 180v373h239v-12l37 -37v-498l-221 -190l-377 -313v-383h-227l-37 36h-12zM395 2h187v373l385 319l213 185v467h-187v-347q0 -39 -176 -190q-43 -37 -109.5 -92t-131 -107.5t-115.5 -93.5t-66 -49v-465zM834 330v28l340 369l327 -367v-4l37 -41v-24l-330 -365 l-39 39l-4 -4zM860 340l305 -340l310 342v8l-301 338l-314 -340v-8zM997 348l170 184l170 -182l-172 -196zM1067 305l98 -110l135 155l-96 103z" />
<glyph unicode="&#x26;" d="M55 948q8 -8 16.5 -14t18.5 -14l19 -17q68 -55 219 -133q35 -18 63.5 -33.5t50.5 -31.5h2l-368 -220v-47l24 -14l25 -25l610 -354v-281h13l36 -36h213v950l-36 37v10l-232 121q-59 23 -133 61q16 10 32.5 18.5t37.5 20.5q41 23 66.5 41.5t39.5 30.5l225 121v237l-36 37 v12h-50zM102 455v14l387 229q-41 53 -194 133q-76 39 -124 67t-69 44l818 457h14v-205l-215 -115q-10 -10 -36 -27.5t-71 -43.5q-41 -23 -71.5 -41.5t-46.5 -32.5q49 -27 110.5 -58.5t114.5 -54.5l215 -112v-918h-172v283zM494 449q18 -14 45.5 -32.5t66.5 -41.5 q74 -47 109 -58l47 -24v330zM590 418l145 92v-172l-12 6q-35 10 -100 51v2q-10 4 -17.5 10.5t-15.5 10.5z" />
<glyph unicode="'" horiz-adv-x="528" d="M72 1221l172 172l172 -172l-2 -7l37 -36l-164 -435l-39 37l-4 -12zM102 1214l142 -370l141 370l-141 142z" />
<glyph unicode="(" horiz-adv-x="813" d="M72 723l401 -746h10l37 -36h64q23 18 50.5 33.5t51.5 29.5h-2q12 6 29.5 17.5t25.5 17.5l-348 627l338 571l-37 37l4 8l-200 125zM102 723l402 647l153 -96l-333 -565l346 -621q-8 -6 -24.5 -15.5t-37 -20.5t-41 -23.5t-35.5 -24.5h-43z" />
<glyph unicode=")" horiz-adv-x="813" d="M68 80l348 627l-340 575l200 125l21 -33l20 -20l418 -676l-397 -737h-64l-4 4q-23 16 -49 31.5t-49 27.5l-2 2q-12 6 -28.5 16.5t-22.5 16.5l-13 12q-29 14 -38 29zM102 88q8 -6 24.5 -15.5t37 -20.5t41 -23.5t35.5 -24.5h43l387 719l-402 647l-153 -96l334 -565z" />
<glyph unicode="*" horiz-adv-x="843" d="M74 1108l14 -180h10l39 -37l60 4l-105 -154q20 -43 53 -61l21 -18q16 -16 38.5 -24.5t61.5 -21.5l162 228l125 -187h10l37 -36h39q12 8 29.5 17t33.5 15l20 11q19 10 28 14l-177 221l170 -27l23 211l-39 37l2 13l-100 -5l114 166l-38 39l4 6l-142 72l-161 -223l-119 180 l-21 18l-20 33q-23 -10 -28 -13t-7 -3q-10 -4 -16.5 -5t-28.5 -12v-2q-23 -10 -42.5 -21t-31.5 -20l141 -235h-159zM102 1081h181l-154 254q8 4 21.5 11.5t29.5 15.5q20 10 33.5 14t24.5 8l159 -237h11l167 229l95 -47l-158 -231l188 8l-18 -166l-201 33l195 -246 q-10 -6 -38 -18.5t-46 -24.5h-25l-159 246h-17l-176 -246q-43 14 -63.5 23.5t-30.5 31.5l162 234l-170 -17z" />
<glyph unicode="+" horiz-adv-x="983" d="M68 688l86 -223h10l37 -37h153v-219q10 -12 25 -16l24 -25q10 -10 20.5 -12t22.5 -2q37 0 80 12h-2q2 2 4 2q59 20 74 20h23q0 27 1 49.5t1 49.5v59v86h262q10 10 12 20.5t2 22.5q0 39 -12 82l-4 2q-18 57 -19 72v22l-37 37v12q-47 2 -94 3h-108v20q0 74 -2 127t-9 68 l-34 34q-4 8 -4 13l-31 12l-199 -76v-196h-63q-74 0 -134.5 -4.5t-84.5 -14.5zM102 672q12 4 63.5 6t121.5 2h90v205l180 69q4 -12 6 -63t2 -123v-90q119 0 179 -1l61 -1v-2q0 -14 20 -74q0 -2 1 -4t1 -4q12 -43 13 -74q0 -20 -2 -22h-275q0 -123 -1 -184l-1 -60h-2 q-14 0 -74 -21q-2 0 -4 -1t-4 -1q-43 -12 -74 -12q-20 0 -22 2v273h-209zM360 211l5 -4q-4 0 -5 4z" />
<glyph unicode="," horiz-adv-x="528" d="M66 166l178 178l168 -168v-8l37 -37v-158l-259 -239l-30 22l-13 13l-38 28l102 221zM102 166l142 -141l-105 -228l246 228v141l-141 141z" />
<glyph unicode="-" horiz-adv-x="786" d="M76 688l14 -6l35 -33l539 -188q29 47 34 123q4 35 7.5 54t17.5 34l-39 39l6 6q-43 16 -77.5 30.5t-88.5 34.5q-23 10 -51.5 20.5l-66.5 24.5q-246 100 -306 101l-24 -25v-215zM102 707v194q49 0 293 -98q125 -47 187 -71l61 -25q-2 -2 -8 -78q-6 -70 -25 -101z" />
<glyph unicode="." horiz-adv-x="528" d="M66 166l178 178l178 -178l-4 -4l39 -39l-170 -170l-39 39l-4 -4zM102 166l142 -141l141 141l-141 141z" />
<glyph unicode="/" horiz-adv-x="1030" d="M76 -25v508q18 10 69.5 50t114 91.5t127 104.5t109.5 90h-2q180 156 180 180v373h239v-12l37 -37v-498l-221 -190l-377 -313v-383h-227l-37 36h-12zM102 2h187v373l385 319l213 185v467h-187v-347q0 -39 -176 -190q-43 -37 -109.5 -92t-131 -107.5t-115.5 -93.5t-66 -49 v-465z" />
<glyph unicode="0" horiz-adv-x="1476" d="M76 633l639 -709l4 4l39 -39l639 707v35l-37 41v4l-631 704l-653 -708v-39zM102 643v19l627 679l604 -675v-19l-618 -684zM377 662l338 -390l344 394l-340 364zM449 618l307 332l266 -284l-307 -353zM535 655l178 -178l4 4l39 -39l170 170l-39 39l4 4l-178 179zM571 655 l142 142l141 -142l-141 -141z" />
<glyph unicode="1" horiz-adv-x="890" d="M66 1004q2 -4 14 -26t41 -75q35 -55 90 -96h2l6 -4l16.5 -16.5t18.5 -14.5l274 154v-965h13l37 -37h233v1403l-37 37v12h-63zM102 991l619 359h27v-1362h-193v1030h-29l-315 -178q-35 25 -66 78q-31 55 -43 73z" />
<glyph unicode="2" horiz-adv-x="1241" d="M68 594l450 434q33 -20 55.5 -36.5t42 -34t39 -39t43.5 -50.5l-4 -4l33 -33l6 -6l-282 -282q0 -2 1 -3t1 -3q16 -16 35.5 -35t41.5 -39q100 -98 197 -191q57 -53 80 -88q59 -66 59 -94l-10 -10q-25 -35 -57.5 -67.5t-79.5 -32.5q-29 0 -121 79q-39 29 -100 86 q-66 61 -132.5 127t-134.5 136q-70 72 -110.5 117.5t-52.5 68.5zM102 590q8 -14 45 -54t103 -110q68 -70 134.5 -135.5t131.5 -126.5q133 -121 160 -121q41 0 71.5 33t55.5 65q0 25 -94 113q-96 92 -197 190q-104 94 -129 146l279 278q-23 25 -39.5 42.5t-30.5 31.5 t-30.5 26.5t-39.5 26.5zM227 418l13 -12l-2 2q0 2 -2 4t-4.5 3t-4.5 3zM305 338l2 -2q2 0 4 -2q-2 2 -4 2zM348 1303q37 61 77 98t87 61l623 -594l-5 -4l39 -39l-450 -463l-39 39l-4 -4l-176 178l280 293zM383 1305l434 -437l-280 -293l139 -141l422 434l-588 562 q-35 -18 -66.5 -47t-60.5 -78z" />
<glyph unicode="3" d="M72 721l225 121q43 18 91 42.5t91 47.5l-22 14q-41 23 -68 41.5t-39 30.5l-225 121l-29 26l-20 13v247h49l856 -477l-6 -6l39 -39q-68 -55 -219 -133q-109 -55 -156 -94l322 -191v-10l36 -37v-39l-831 -479h-41l-37 37h-12v266l237 121q33 12 103 53q20 12 38.5 23.5 t34.5 21.5l-360 236l-16 16zM102 -16h15l817 471v14l-387 229q41 53 194 133q76 39 124 67t69 44l-817 457h-15v-205l215 -115q10 -10 36 -27.5t71 -43.5q41 -23 71.5 -41.5t47.5 -32.5q-49 -27 -110.5 -58.5t-115.5 -54.5l-192 -102l418 -270q-18 -14 -46 -33t-67 -41 q-78 -49 -108 -58l-220 -110v-223z" />
<glyph unicode="4" horiz-adv-x="1030" d="M76 213v1159h239v-12l37 -37v-618q31 23 67 51t77 63h-2q180 156 180 180v373h239v-12l37 -37v-1384h-30q-18 0 -33 -2q-20 -2 -41 -3.5t-35 -1.5q-16 0 -37.5 2.5t-50.5 6.5l-35 34q-6 2 -14 2v617l-549 -412l-39 39zM102 266l572 428h26v-692q43 -6 68 -6t64.5 3 t54.5 3v1344h-187v-347q0 -39 -176 -190q-88 -74 -147.5 -119t-87.5 -61v717h-187v-1080z" />
<glyph unicode="5" horiz-adv-x="1333" d="M70 453l36 -27l15 -14l702 -510v1136l291 -217q47 47 84 102.5t59 102.5l-38 37q2 2 2 4t2 4l-703 483v-1103l-295 194q-41 -27 -82 -75t-73 -117zM102 461q27 57 59 95t62 58l324 -213v1104l643 -444q-16 -39 -48 -84t-73 -86l-309 231v-1136z" />
<glyph unicode="6" horiz-adv-x="1032" d="M76 -33v1415h239v-12l37 -37v-618q41 -20 96.5 -47t120.5 -58l37 -18q43 -23 91 -47.5t94.5 -47t86.5 -43t70 -34.5l-10 -6l39 -37l-811 -447h-41l-37 37h-12zM102 -6h15l772 426l-148 74t-182 92q-100 49 -167.5 81.5t-102.5 49.5v639h-187v-1362zM291 301v211l198 -100 zM354 369l64 32l-64 33v-65z" />
<glyph unicode="7" horiz-adv-x="1044" d="M68 1100l817 301h43v-12l37 -37v-1418h-222l-36 37h-13v1059l-438 -160h-70l-36 37h-11q-8 25 -19 54.5t-21.5 57.5t-18.5 49.5t-12 31.5zM102 1085q8 -20 23.5 -61t32.5 -90h55l494 180h14v-1116h180v1376h-14z" />
<glyph unicode="8" horiz-adv-x="1193" d="M57 -33l383 742l-366 661h1026l-8 -12l38 -37l-385 -657l349 -734h-983l-37 37h-17zM102 -6h916l-338 715l371 634h-932l352 -634zM406 1171v3h2h354l-195 -265q-162 242 -161 262zM408 180q160 295 159 312l209 -312h-368zM475 1110q10 -20 33.5 -57t62.5 -95l111 152 h-207zM510 207h217l-123 180q-16 -33 -38.5 -77t-55.5 -103z" />
<glyph unicode="9" horiz-adv-x="1032" d="M43 932l823 452h49v-12l37 -37v-1403h-227l-37 37h-12v631q-78 37 -209 105l-39 18q-43 23 -89 46.5t-89 45l-81 40.5t-69 34l-30 31q-10 4 -27 12zM102 932l148 -74t182 -92q100 -49 168 -82t102 -49v-639h187v1362h-15zM502 940l198 111v-211zM614 911l60 -28v61z" />
<glyph unicode=":" horiz-adv-x="528" d="M66 166l178 178l178 -178l-4 -4l39 -39l-170 -170l-39 39l-4 -4zM66 608l178 178l178 -178l-4 -4l39 -39l-170 -170l-39 39l-4 -4zM102 166l142 -141l141 141l-141 141zM102 608l142 -141l141 141l-141 142z" />
<glyph unicode=";" horiz-adv-x="532" d="M66 166l178 178l168 -168v-8l37 -37l4 -127l-260 -268l-31 20l-19 19l-32 22l100 221zM66 608l178 178l178 -178l-4 -4l39 -39l-170 -170l-39 39l-4 -4zM102 166l142 -141l-105 -228l250 258l-4 111l-141 141zM102 608l142 -141l141 141l-141 142z" />
<glyph unicode="&#x3c;" horiz-adv-x="813" d="M72 723l401 -746h10l37 -36h64q23 18 50.5 33.5t51.5 29.5h-2q12 6 29.5 17.5t25.5 17.5l-348 627l338 571l-37 37l4 8l-200 125zM102 723l402 647l153 -96l-333 -565l346 -621q-8 -6 -24.5 -15.5t-37 -20.5t-41 -23.5t-35.5 -24.5h-43z" />
<glyph unicode="=" horiz-adv-x="786" d="M76 401l14 -6l35 -33l539 -188q29 47 34 123q4 35 7.5 54.5t17.5 33.5l-39 39l6 6q-43 16 -77.5 30.5t-88.5 35.5q-23 10 -51.5 20t-66.5 25q-246 100 -306 100l-24 -25v-215zM76 768l14 -6l35 -33l539 -188q29 47 34 123q4 35 7.5 54t17.5 34l-39 39l6 6 q-43 16 -77.5 30.5t-88.5 34.5q-23 10 -51.5 20.5l-66.5 24.5q-246 100 -306 101l-24 -25v-215zM102 420v194q49 0 293 -98q125 -47 187 -72l61 -24q-2 -2 -8 -78q-6 -70 -25 -100zM102 786v195q49 0 293 -98q125 -47 187 -72l61 -25q-2 -2 -8 -77q-6 -70 -25 -101z" />
<glyph unicode="&#x3e;" horiz-adv-x="813" d="M68 80l348 627l-340 575l200 125l21 -33l20 -20l418 -676l-397 -737h-64l-4 4q-23 16 -49 31.5t-49 27.5l-2 2q-12 6 -28.5 16.5t-22.5 16.5l-13 12q-29 14 -38 29zM102 88q8 -6 24.5 -15.5t37 -20.5t41 -23.5t35.5 -24.5h43l387 719l-402 647l-153 -96l334 -565z" />
<glyph unicode="?" horiz-adv-x="1228" d="M53 762h645l-301 506q25 29 53.5 54.5t63.5 43.5l-2 -2q4 4 10 6t10 4l2 1q3 1 5 1v2q43 25 69 52l17 -29l24 -25l514 -907h-637l78 -133h-239l-37 37h-9zM102 735l230 -336h192l-75 133h636l-483 854q-4 -4 -23.5 -15t-52.5 -30q-33 -16 -56.5 -35.5t-39.5 -39.5 l318 -531h-646zM250 141l178 178l178 -178l-4 -4l39 -39l-170 -170l-39 39l-4 -4zM287 141l141 -141l141 141l-141 142z" />
<glyph unicode="@" horiz-adv-x="1388" d="M76 -238l10 2l39 -38l1169 112l-57 271l-35 32l-2 17l-860 -105v1075l600 -96l-61 -137l-119 102l-332 -344l322 -325l4 4l39 -39l284 248l238 620l-39 37l4 10l-1204 324v-1770zM102 -209v1706l1143 -307l-227 -592l-268 -233l-285 288l297 308l127 -109l102 231 l-700 111h-15v-1174l902 109l49 -229z" />
<glyph unicode="A" horiz-adv-x="1052" d="M76 -27h12l37 -36h233v149l336 293v-391h13l36 -37h230v1429l-37 37v17l-860 -426v-1035zM102 0v991l807 400v-1377h-188v500l-426 -373v-141h-193zM295 379l426 414v280q-27 -8 -79 -29.5t-130 -60.5q-78 -37 -131 -65.5t-86 -49.5v-489zM358 475v338q35 20 85 47 t120 62q39 18 71 33.5t60 25.5v-178z" />
<glyph unicode="B" d="M76 -35v1469h49l856 -478l-6 -6l39 -39q-68 -55 -219 -133q-109 -55 -156 -94l322 -190v-11l36 -37v-38l-831 -480h-41l-37 37h-12zM102 -8h15l817 471v14l-387 230q41 53 194 133q76 39 124 66.5t69 43.5l-817 457h-15v-1415zM303 1073q0 -4 4 -4zM317 588 q18 -10 54.5 -31.5l73 -43t65.5 -38t33 -18.5q-18 -14 -46 -32.5t-67 -41.5q-74 -47 -108 -57zM317 829v258q10 -10 36 -27.5t71 -43.5q41 -23 71.5 -41.5t47.5 -32.5q-49 -27 -110.5 -58.5t-115.5 -54.5zM381 510l2 -125q8 4 15.5 9t17.5 12q16 10 33.5 21.5t33.5 21.5 q-29 16 -54.5 32.5t-47.5 28.5zM381 887q51 25 100 53l-24 14q-25 14 -43.5 25.5t-32.5 21.5v-114z" />
<glyph unicode="C" horiz-adv-x="1142" d="M0 637v43l854 696l72 -71q10 -10 35 -45l4 -3q14 -14 39.5 -50t64.5 -93l-598 -483l565 -488l-1 -2t-3 -4l39 -37q-6 -8 -17.5 -23.5t-15.5 -21.5q-29 -41 -61.5 -75.5t-99.5 -71.5l-43 35l-785 653zM27 649l809 -674q66 37 96.5 76t66.5 88l-610 529l610 493 q-33 47 -55 79t-37 46l-55 55l-825 -673v-19z" />
<glyph unicode="D" horiz-adv-x="1167" d="M76 -39v1395h225v-13l37 -36v-4l764 -623v-8l37 -37v-39l-846 -672h-168l-37 37h-12zM102 -12h142l831 661v19l-801 653v8h-172v-1341zM274 287v735l439 -354zM338 375l332 291l-332 270v-561z" />
<glyph unicode="E" d="M55 948l856 477h50v-12l36 -37v-237l-225 -121q-14 -12 -39.5 -30.5t-66.5 -41t-68 -37.5q35 -18 71 -35.5t70 -31.5l226 -121l-9 -6l37 -37l-405 -262q8 -4 15 -9.5t18 -9.5q68 -43 102 -53l238 -121v-10l36 -37v-256h-41l-831 479l-25 25l-24 14v47l368 220h-2 q-23 16 -51.5 31.5t-62.5 33.5q-152 78 -219 133l-19 17q-10 8 -18.5 14t-16.5 14zM102 455l818 -471h14v223l-219 110q-35 10 -109 58q-39 23 -66.5 41t-45.5 33l417 270l-192 102q-53 23 -114.5 54.5t-110.5 58.5q16 14 46.5 32.5t71.5 41.5q45 27 71 44t36 27l215 115 v205h-14l-818 -457q20 -16 68.5 -44t124.5 -67q154 -80 194 -133l-387 -229v-14z" />
<glyph unicode="F" horiz-adv-x="1044" d="M76 -8v1429h43l817 -301q-2 -2 -2 -4t-2 -6l39 -37q-4 -10 -12.5 -30.5t-17.5 -46t-19.5 -53.5t-18.5 -52h-69l-488 176v-154q82 -25 240 -86q39 -14 67.5 -24t51.5 -21q53 -20 87.5 -34.5t77.5 -30.5l-6 -6l39 -39q-14 -14 -17 -34t-7 -54q-6 -76 -35 -123l-498 180 v-686h-221l-37 37h-12zM102 18h181v689h14l494 -179q18 31 24 101q6 76 8 78l-61 25q-62 24 -187 71q-244 98 -292 98v234h14l494 -181h55q16 49 31.5 90t23.5 62l-784 289h-15v-1377z" />
<glyph unicode="G" horiz-adv-x="1056" d="M76 -61l10 6l39 -39l860 409l-250 488l-30 28l-11 23l-264 -123l168 -285q-27 -8 -104 -47q-41 -20 -77 -36.5t-65 -28.5v713l553 -99l58 273l-37 36l2 13l-852 102v-1433zM102 -18v1361l793 -98l-49 -229l-557 98v-829q35 8 87 30.5t128 59.5q133 66 133 67h-4l-164 279 l213 98l231 -452z" />
<glyph unicode="H" horiz-adv-x="1030" d="M76 -25h12l37 -36h227v383l322 266v-611q8 0 14 -2l35 -34q29 -4 50.5 -6.5t37.5 -2.5q14 0 34.5 1t41.5 4q14 2 33 2h30v1384l-37 37v12h-239v-373q0 -25 -180 -180h2q-41 -35 -77 -63.5t-67 -50.5v618l-37 37v12h-239v-1397zM102 2v1344h187v-717q29 16 88 61t147 119 q176 152 176 190v347h187v-1344q-14 0 -54 -3t-65 -3t-68 6v692h-26l-385 -319v-373h-187z" />
<glyph unicode="I" horiz-adv-x="1257" d="M41 918q41 0 77 27.5t95 82.5q10 10 20.5 19.5t20.5 19.5q20 20 40.5 39.5t43.5 40.5q16 14 29.5 28.5t29.5 28.5l68 62q66 63 105.5 98t50.5 39l528 -529q-2 -2 -2 -4l-2 -2l39 -37q-23 -35 -61 -71.5t-60 -54.5h-2l-29 -29l-41 37l-2 -2l-213 202v-450l211 184l48 -48 t55 -56q6 -6 13 -13.5t15 -17.5q8 -8 16.5 -17.5t12.5 -13.5l-4 -4q6 -6 12 -13t12 -13l15 -13q-4 -4 -42 -40t-98 -93q-33 -31 -64.5 -60.5t-62.5 -58.5q-33 -29 -63.5 -59.5t-60.5 -58.5q-66 -61 -104 -95t-48 -39l-39 39l-4 -4l-528 529q20 29 55 63.5t59 59.5l19 18v-2 l14 14l7 7t5 4l265 -254v469l-220 -187q-10 6 -20 16.5t-21 20.5l-2 -2q-20 18 -56 55t-62 66q-4 4 -12.5 12t-18.5 18.5t-22.5 23.5t-16.5 18zM102 500l498 -498q8 4 133 123q63 59 126 118.5t126 118.5q119 113 125 119q-29 31 -63.5 69t-59.5 60l-274 -235v637l276 -264 q4 4 20.5 19t37 33.5t39 38t28.5 33.5l-498 498q-8 -4 -133 -123q-63 -59 -125.5 -118.5t-126.5 -118.5q-125 -119 -127 -119q29 -31 65 -69t60 -60l289 248v-650h-14l-277 265q-4 -4 -21.5 -19.5t-36.5 -34t-38.5 -38t-28.5 -33.5zM113 850l9 -9t9 -10q-12 12 -16 19h-2z " />
<glyph unicode="J" horiz-adv-x="854" d="M39 455q6 0 11 -1t11 -1l35 -35q25 0 58 -23q27 -25 57 -51q59 -61 125 -119q31 -29 62.5 -59.5t64.5 -59.5q63 -61 97 -91.5t44 -37.5q37 -32 47 -36l6 -2l117 -2v1411l-37 36v13h-248v-977l-262 227q-20 -18 -56 -55t-62 -66l-31 -30q-10 -10 -22.5 -23.5t-16.5 -17.5z M102 481q29 31 65 69t60 60l289 -248v1008h195v-1370l-97 2q-6 2 -133 123q-63 59 -125.5 118.5t-126.5 118.5q-125 119 -127 119z" />
<glyph unicode="K" horiz-adv-x="1034" d="M76 -43v1403l229 -2v-12l37 -37l-2 -494l471 279l10 -23l31 -31l96 -206l-430 -263q33 -25 73 -59.5t89 -77.5q201 -184 246 -241l-2 -3q12 -12 21 -22t16 -18q-2 -2 -17.5 -20.5t-35 -45.5t-37 -55.5t-21.5 -51.5l-39 33v-2l-469 408q-2 -47 -2 -94v-86v-234v-16 q0 -10 2 -25q0 -4 1 -20.5t1 -20.5h-219l-37 37h-12zM102 -16h179q-2 20 -3.5 35.5t-1.5 25.5v61q0 88 1.5 187.5t1.5 216.5l514 -449q2 12 17 35t32.5 44.5t32 37t16.5 17.5q-16 23 -73.5 77t-155.5 144q-207 188 -236 194l453 275l-78 170l-525 -307l3 583l-177 2v-1349z " />
<glyph unicode="L" horiz-adv-x="1044" d="M76 -29h12l37 -37h35l811 299q-4 10 -12.5 31t-17.5 46.5t-19.5 53t-18.5 52.5l-35 33q-2 4 -2 8t-2 8h-76l-442 -164v1051l-37 37v12h-233v-1430zM102 -2v1376h181v-1116h14l494 180h55q16 -49 31.5 -90t23.5 -61l-784 -289h-15z" />
<glyph unicode="M" horiz-adv-x="1042" d="M76 -37v1423h51l362 -309q57 33 156 113h-2q152 131 283 201v-17l37 -37v-1411h-234l-37 37h-12v866q-25 -14 -46.5 -30.5t-43.5 -32.5q-8 -6 -19.5 -15.5t-19.5 -15.5q-29 0 -127 76l-2 2q-35 25 -55 43q-4 2 -5.5 4t-3.5 4v-938h-233l-37 37h-12zM102 -10h193v958 q4 -4 28.5 -23.5t69.5 -54.5q89 -71 108 -71h1q47 37 95 74.5t110 48.5v-932h192v1356q-45 -23 -100.5 -65t-124.5 -101q-70 -57 -117 -91t-70 -45l-370 316h-15v-1370z" />
<glyph unicode="N" horiz-adv-x="1056" d="M76 -31v1432l864 -412v-10l37 -37v-1024h-234l-36 37h-13v868q-33 16 -70.5 37t-84.5 43q-59 29 -105.5 49.5t-75.5 30.5v-1051h-233l-37 37h-12zM102 -4h193v1059q27 -8 79 -29.5t130 -60.5q78 -37 131 -66t86 -49v-868h192v991l-811 385v-1362z" />
<glyph unicode="O" horiz-adv-x="1417" d="M16 633v39l654 708l630 -704v-4l37 -41v-35l-639 -707l-39 39l-4 -4zM43 643l612 -680l619 684v19l-604 675l-627 -679v-19zM317 662l342 368l340 -364l-344 -394zM389 618l266 -305l308 353l-267 284z" />
<glyph unicode="P" horiz-adv-x="1032" d="M76 -31v1415h49l823 -452q-8 -4 -10 -6l39 -37q-31 -14 -70 -33.5l-82 -41t-89 -45.5t-89 -46l-37 -18q-92 -47 -156.5 -78t-101.5 -49v-646h-227l-37 37h-12zM102 -4h187v639q35 16 102.5 49t167.5 82q100 51 182 92l148 74l-772 426h-15v-1362zM291 840v211l198 -111z M354 901l66 33l-66 37v-70z" />
<glyph unicode="Q" horiz-adv-x="1351" d="M70 141l403 402l-352 364l526 527l543 -541l-4 -4l39 -39l-348 -348l366 -377l-4 -4l39 -39q-31 -47 -73 -88t-95 -80l-39 39l-4 -4l-369 366q-45 -35 -95 -83t-101 -104t-99.5 -114.5t-91.5 -109.5q-27 18 -53.5 37.5t-50.5 42.5q-45 35 -83 73.5t-54 83.5zM102 137 q20 -47 67.5 -89t94.5 -75q43 53 93.5 113.5t102.5 117t103 105.5t99 80l407 -405q43 33 78 66.5t61 72.5l-405 420l350 350l-506 504l-489 -490l352 -364zM446 893q23 23 51.5 54.5t67.5 70.5q37 37 57.5 58.5t24.5 27.5q14 -14 43 -40t70 -67q43 -41 67.5 -63.5 t30.5 -26.5q-53 -49 -105.5 -98t-105.5 -98q-4 8 -86 86q-82 76 -115 96zM528 860q10 -10 23.5 -21.5t28.5 -23.5l39 -39t28 -31l86 82q18 16 40 37t44 41q-14 12 -32.5 30.5l-43.5 43.5q-16 14 -28.5 26.5t-24.5 22.5q-10 -12 -26.5 -28.5l-39 -39t-40 -42t-33.5 -35.5 q-6 -6 -11.5 -12.5t-9.5 -10.5zM633 1090q2 -4 14 -17z" />
<glyph unicode="R" horiz-adv-x="1034" d="M76 -43v1403h49l809 -475l-10 -6l39 -37l-445 -271q33 -25 73 -59.5t89 -77.5q201 -184 246 -241l-2 -3q12 -12 21 -22t16 -18q-2 -2 -17.5 -20.5t-35 -45.5t-37 -55.5t-21.5 -51.5l-39 33v-2l-469 408q-2 -47 -2 -94v-86v-234v-16q0 -10 2 -25q0 -4 1 -20.5t1 -20.5 h-219l-37 37h-12zM102 -16h179q-2 20 -3.5 35.5t-1.5 25.5v61q0 88 1.5 187.5t1.5 216.5l514 -449q2 12 17 35t32.5 44.5t32 37t16.5 17.5q-16 23 -73.5 77t-155.5 144q-207 188 -236 194l453 275l-764 448h-13v-1349zM276 748v286q4 -2 36 -19.5t91 -51.5 q59 -33 95.5 -52.5t48.5 -23.5zM340 811l133 70q-10 4 -18.5 9t-18.5 11q-35 18 -57.5 32.5t-38.5 22.5v-145z" />
<glyph unicode="S" horiz-adv-x="1228" d="M57 506l523 924q27 -27 69 -52v-2q2 0 3 -1t3 -1h-2q6 -2 23 -10l-2 2q35 -18 63.5 -44t53.5 -54l-3 -4l9 -9l15 -15t13 -15l-276 -463h586l-9 -12l39 -37l-530 -877l-184 144l-13 12l-39 31l269 446h-557l-37 37h-17zM102 532h637l-305 -505l152 -117l499 825h-645 l318 531q-16 20 -40 39.5t-56 35.5q-33 18 -52.5 29.5t-23.5 15.5z" />
<glyph unicode="T" horiz-adv-x="1255" d="M39 918q41 0 77 27.5t95 82.5q10 10 20.5 19.5t20.5 19.5q20 20 40.5 39.5t43.5 40.5q16 14 29.5 28.5t29.5 28.5l68 62q66 63 101.5 95t56.5 38l526 -525q-2 -2 -2 -4l-2 -2l39 -37q-23 -35 -61 -71.5t-60 -54.5h-2l-29 -29l-41 37l-2 -2l-217 204l4 -976h-235l-37 36 h-13v902l-219 -187q-10 6 -20 16.5t-21 20.5l-2 -2q-20 18 -56 55t-62 66q-4 4 -12.5 12t-18.5 18.5t-22.5 23.5t-16.5 18zM102 891q29 -31 65 -69t60 -60l289 248v-1008h195l-4 1010l280 -264q4 4 20.5 19t37 33.5t39 38t28.5 33.5l-498 498q-6 -2 -133 -123 q-63 -59 -125.5 -118.5t-126.5 -118.5q-125 -119 -127 -119zM111 850l9 -9t9 -10q-12 12 -16 19h-2z" />
<glyph unicode="U" horiz-adv-x="1056" d="M76 350l18 -10l31 -29l852 -405v1415l-37 37v12h-246v-1046q-33 12 -76 30.5t-96 44.5q-47 23 -88 44.5t-76 39.5v852l-36 37v12h-246v-1034zM102 367v991h193v-869q33 -20 86 -48.5t131 -65.5q78 -39 130 -60.5t79 -29.5v1058h192v-1361z" />
<glyph unicode="V" horiz-adv-x="1167" d="M72 1135l469 -1205l4 13l39 -39l506 1188l-181 225l-6 6l-39 49l-315 -721l-238 727l-32 31l-9 29zM102 1130l160 246l279 -841v28l329 758l154 -191l-483 -1130z" />
<glyph unicode="W" horiz-adv-x="1042" d="M76 -39v1428h246v-13l36 -37v-860q25 14 47.5 31.5t45.5 36.5q4 4 9 7t9 7t10 9t10 10q35 0 136 -78q12 -10 21 -18.5t20 -16.5q0 -2 14 -16v6q4 -4 6 -4q-2 2 -4 2l-2 2v932h246v-13l37 -37v-1411h-43l-43 37h-3l-321 275q-49 -29 -172 -129h2q-70 -59 -134.5 -104.5 t-123.5 -78.5l-39 39q-8 -4 -10 -6zM102 6q43 23 98.5 64t125.5 100q137 117 188 137l371 -315h14v1370h-192v-959q-4 4 -29 23.5t-70 54.5q-90 72 -108 72q-47 -37 -95.5 -75t-109.5 -48v932h-193v-1356zM666 467l4 -3t10 -7q-8 4 -14 10z" />
<glyph unicode="X" horiz-adv-x="1157" d="M74 117l340 604l-332 571q41 33 63.5 48.5t40.5 25.5q63 33 121 51l12 -24l29 -27l221 -397l269 440l202 -127l-4 -8l37 -37l-338 -571l348 -627q-8 -6 -25.5 -17.5t-29.5 -17.5h2q-25 -14 -52.5 -29.5t-49.5 -33.5h-64l-37 36h-10l-231 424l-279 -467q-53 23 -88 39.5 t-57 38.5l-17 15q-25 16 -41 36.5t-30 53.5zM102 115q18 -43 51 -62.5t103 -48.5l289 483h26l263 -483h43q14 12 34.5 24.5t41 23.5t37 20.5t24.5 15.5l-346 621l333 565l-153 96l-277 -455h-14l-262 469q-33 -8 -94 -43q-29 -16 -49.5 -29.5t-34.5 -23.5l329 -565z" />
<glyph unicode="Y" horiz-adv-x="1277" d="M61 1155q49 31 90.5 69t75.5 72l275 -288v403h233v-12l37 -37v-299l238 217q31 -20 53 -36.5t45 -37.5q12 -12 22.5 -23.5t16.5 -23.5l8 -8q43 -43 43 -92q-10 0 -41 -29t-90 -88q-125 -125 -213 -219q-82 -88 -82 -98v-695h-221l-37 37h-12v690zM102 1149l426 -481v-674 h181v674q0 18 88 112t213 219q123 123 125 123q0 25 -45 64q-23 20 -42.5 35.5t-35.5 25.5l-289 -262h-14v399h-181v-413h-26l-275 289q-29 -29 -62.5 -61t-62.5 -50z" />
<glyph unicode="Z" horiz-adv-x="1333" d="M70 1071q23 -49 61.5 -106.5t89.5 -108.5l4 2l39 -37l242 180v-1069l10 9l39 -39l702 510q-20 43 -43.5 76.5t-48.5 58.5q-23 33 -48 57.5t-50 40.5l-258 -170v1026l-37 37v16zM102 1061l643 444v-1104l324 213q31 -20 62.5 -58t58.5 -95l-658 -475v1136l-309 -231 q-41 41 -72.5 86t-48.5 84zM1149 563q2 0 2 -2z" />
<glyph unicode="[" horiz-adv-x="774" d="M76 -29h12l37 -37h39l536 138q-4 10 -12 31.5t-17 47t-19.5 54t-18.5 53.5l-35 33q-2 4 -2 8t-2 8h-82l-164 -45v823l209 -57h76q8 25 18.5 53.5t19.5 54t17 47t12 31.5l-38 39q0 4 4 9l-543 139h-47v-1430zM102 -2v1376h15l514 -131q-8 -20 -23.5 -61t-32.5 -90h-55 l-221 61h-14v-934h14l221 62h55q16 -49 32 -90t24 -62l-514 -131h-15z" />
<glyph unicode="\" horiz-adv-x="1030" d="M76 866l221 -192l47 -39l330 -275v-385h12l37 -36h227v497l-37 37v10q-18 10 -69 50t-113.5 91.5t-127 104.5t-109.5 90h2q-49 41 -84 73t-58 54q-2 4 -2 10v367l-37 37v12h-239v-506zM102 879v467h187v-347q0 -39 176 -190q43 -37 109.5 -92t131 -107.5t115.5 -93.5 t66 -49v-465h-187v373l-385 319zM369 926l26 -27q-4 4 -6 5t-6 5q-10 10 -14 17z" />
<glyph unicode="]" horiz-adv-x="774" d="M68 111q4 10 12 32.5t18.5 51t21.5 58.5t19 54h82l201 -55v819l-160 -43h-76l-36 37h-11q-8 25 -19 54.5t-21.5 58t-18.5 51t-12 33.5l542 139h47v-12l37 -37v-1418h-39l-536 138l-35 34zM102 129l514 -131h15v1376h-15l-514 -131q8 -20 23.5 -61t32.5 -90h55l221 61h15 v-934h-15l-221 62h-55q-16 -49 -31.5 -90t-24.5 -62z" />
<glyph unicode="^" horiz-adv-x="1155" d="M76 715h12l148 -148l2 4l41 -39l311 420l239 -415l7 4l38 -39l209 119l-479 747l-16 14l-25 41l-487 -661v-47zM102 721v33l459 622l451 -704l-172 -99l-279 492v-16l-328 -443l-131 131v-16z" />
<glyph unicode="_" horiz-adv-x="688" d="M-12 135l75 -198h11l37 -37l567 12q6 18 7 25.5t1 15.5q0 16 -3 32.5t-7 39.5q-2 4 -3 9t-3 9h-2q-2 10 -3 16.5t-3 12.5q-4 18 -8 28l-3 9v22l-37 37v12q-33 0 -57.5 1t-54.5 1h-72h-108q-16 0 -33 1t-33 1h-51q-160 0 -203 -18zM12 143q47 18 310 13q135 0 200 -1 l66 -1q-2 -2 20 -76q8 -35 12.5 -59.5t0.5 -43.5l-539 -12z" />
<glyph unicode="`" horiz-adv-x="595" d="M74 1077l18 246l244 -18l6 -17l33 -33l157 -436l-409 219l-27 27zM102 1094l351 -189l-136 373l-200 16z" />
<glyph unicode="a" horiz-adv-x="1052" d="M76 -27h12l37 -36h233v149l336 293v-391h13l36 -37h230v1429l-37 37v17l-860 -426v-1035zM102 0v991l807 400v-1377h-188v500l-426 -373v-141h-193zM295 379l426 414v280q-27 -8 -79 -29.5t-130 -60.5q-78 -37 -131 -65.5t-86 -49.5v-489zM358 475v338q35 20 85 47 t120 62q39 18 71 33.5t60 25.5v-178z" />
<glyph unicode="b" horiz-adv-x="1056" d="M76 -35v1469h49l856 -478l-6 -6l39 -39q-68 -55 -219 -133q-109 -55 -156 -94l322 -190v-11l36 -37v-38l-831 -480h-41l-37 37h-12zM102 -8h15l817 471v14l-387 230q41 53 194 133q76 39 124 66.5t69 43.5l-817 457h-15v-1415zM301 1108q6 -10 49 -32.5t95.5 -49.5 t97.5 -49.5t55 -28.5q-25 -12 -63.5 -29.5t-80.5 -35t-81 -35t-66 -29.5zM307 295v321l309 -143q-23 -10 -64.5 -34.5t-87.5 -52.5t-89 -53.5t-68 -37.5zM365 1026l4 -149q10 4 21 9t24 9q29 12 56 23.5t54 23.5q-43 23 -87 44.5t-72 39.5zM371 362q10 8 22.5 14.5 t24.5 14.5v-2l8 4t10 6q25 14 52.5 29.5t54.5 32.5l-172 80v-179z" />
<glyph unicode="c" horiz-adv-x="1126" d="M12 637v43l856 698l25 -35l18 -16l156 -207l-629 -489l586 -494l-4 -6l39 -37q-20 -27 -29.5 -39t-12.5 -17t-3 -7l-2 -2h2q-18 -31 -41 -58.5t-84 -62.5l-43 35l-785 653zM39 649l809 -674q33 18 52.5 37t32.5 38.5t24.5 40t29.5 44.5l-633 535l641 497l-131 174 l-825 -673v-19z" />
<glyph unicode="d" horiz-adv-x="1177" d="M76 -39v1395h225v-13l37 -36v-4l764 -623v-8l37 -37v-39l-846 -672h-168l-37 37h-12zM102 -12h142l831 661v19l-801 653v8h-172v-1341zM274 250v817l494 -399zM338 336l389 330l-242 196l-147 119v-645z" />
<glyph unicode="e" d="M55 948l856 477h50v-12l36 -37v-237l-225 -121q-14 -12 -39.5 -30.5t-66.5 -41t-68 -37.5q35 -18 71 -35.5t70 -31.5l226 -121l-9 -6l37 -37l-405 -262q8 -4 15 -9.5t18 -9.5q68 -43 102 -53l238 -121v-10l36 -37v-256h-41l-831 479l-25 25l-24 14v47l368 220h-2 q-23 16 -51.5 31.5t-62.5 33.5q-152 78 -219 133l-19 17q-10 8 -18.5 14t-16.5 14zM102 455l818 -471h14v223l-219 110q-35 10 -109 58q-39 23 -66.5 41t-45.5 33l417 270l-192 102q-53 23 -114.5 54.5t-110.5 58.5q16 14 46.5 32.5t71.5 41.5q45 27 71 44t36 27l215 115 v205h-14l-818 -457q20 -16 68.5 -44t124.5 -67q154 -80 194 -133l-387 -229v-14z" />
<glyph unicode="f" horiz-adv-x="1044" d="M76 -8v1429h43l817 -301q-2 -2 -2 -4t-2 -6l39 -37q-4 -10 -12.5 -30.5t-17.5 -46t-19.5 -53.5t-18.5 -52h-69l-488 176v-154q82 -25 240 -86q39 -14 67.5 -24t51.5 -21q53 -20 87.5 -34.5t77.5 -30.5l-6 -6l39 -39q-14 -14 -17 -34t-7 -54q-6 -76 -35 -123l-498 180 v-686h-221l-37 37h-12zM102 18h181v689h14l494 -179q18 31 24 101q6 76 8 78l-61 25q-62 24 -187 71q-244 98 -292 98v234h14l494 -181h55q16 49 31.5 90t23.5 62l-784 289h-15v-1377z" />
<glyph unicode="g" horiz-adv-x="1056" d="M76 -61v1433l852 -102l-4 -13l39 -36l-60 -260l-551 86v-713q29 12 65 28.5t77 36.5q78 39 104 47l-168 285l264 123l11 -23l30 -28l250 -488l-860 -409l-39 39zM102 -18l811 385l-231 452l-213 -98l164 -279h4q0 -2 -133 -67q-76 -37 -128 -59.5t-87 -30.5v829l555 -86 l51 217l-793 98v-1361z" />
<glyph unicode="h" horiz-adv-x="1030" d="M76 -25h12l37 -36h227v383l322 266v-611q8 0 14 -2l35 -34q29 -4 50.5 -6.5t37.5 -2.5q14 0 34.5 1t41.5 4q14 2 33 2h30v1384l-37 37v12h-239v-373q0 -25 -180 -180h2q-41 -35 -77 -63.5t-67 -50.5v618l-37 37v12h-239v-1397zM102 2v1344h187v-717q29 16 88 61t147 119 q176 152 176 190v347h187v-1344q-14 0 -54 -3t-65 -3t-68 6v692h-26l-385 -319v-373h-187z" />
<glyph unicode="i" horiz-adv-x="428" d="M76 -35v1395h235v-12l37 -37v-1383h-223l-37 37h-12zM102 -8h183v1341h-183v-1341z" />
<glyph unicode="j" horiz-adv-x="854" d="M39 455q6 0 11 -1t11 -1l35 -35q25 0 58 -23q27 -25 57 -51q59 -61 125 -119q31 -29 62.5 -59.5t64.5 -59.5q63 -61 97 -91.5t44 -37.5q37 -32 47 -36l6 -2l117 -2v1411l-37 36v13h-248v-977l-262 227q-20 -18 -56 -55t-62 -66l-31 -30q-10 -10 -22.5 -23.5t-16.5 -17.5z M102 481q29 31 65 69t60 60l289 -248v1008h195v-1370l-97 2q-6 2 -133 123q-63 59 -125.5 118.5t-126.5 118.5q-125 119 -127 119z" />
<glyph unicode="k" horiz-adv-x="1034" d="M76 -43v1403l229 -2v-12l37 -37l-2 -494l471 279l10 -23l31 -31l96 -206l-430 -263q33 -25 73 -59.5t89 -77.5q201 -184 246 -241l-2 -3q12 -12 21 -22t16 -18q-2 -2 -17.5 -20.5t-35 -45.5t-37 -55.5t-21.5 -51.5l-39 33v-2l-469 408q-2 -47 -2 -94v-86v-234v-16 q0 -10 2 -25q0 -4 1 -20.5t1 -20.5h-219l-37 37h-12zM102 -16h179q-2 20 -3.5 35.5t-1.5 25.5v61q0 88 1.5 187.5t1.5 216.5l514 -449q2 12 17 35t32.5 44.5t32 37t16.5 17.5q-16 23 -73.5 77t-155.5 144q-207 188 -236 194l453 275l-78 170l-525 -307l3 583l-177 2v-1349z " />
<glyph unicode="l" horiz-adv-x="1044" d="M76 -29h12l37 -37h35l811 299q-4 10 -12.5 31t-17.5 46.5t-19.5 53t-18.5 52.5l-35 33q-2 4 -2 8t-2 8h-76l-442 -164v1051l-37 37v12h-233v-1430zM102 -2v1376h181v-1116h14l494 180h55q16 -49 31.5 -90t23.5 -61l-784 -289h-15z" />
<glyph unicode="m" horiz-adv-x="1042" d="M76 -37v1423h51l362 -309q57 33 156 113h-2q152 131 283 201v-17l37 -37v-1411h-234l-37 37h-12v866q-25 -14 -46.5 -30.5t-43.5 -32.5q-8 -6 -19.5 -15.5t-19.5 -15.5q-29 0 -127 76l-2 2q-35 25 -55 43q-4 2 -5.5 4t-3.5 4v-938h-233l-37 37h-12zM102 -10h193v958 q4 -4 28.5 -23.5t69.5 -54.5q89 -71 108 -71h1q47 37 95 74.5t110 48.5v-932h192v1356q-45 -23 -100.5 -65t-124.5 -101q-70 -57 -117 -91t-70 -45l-370 316h-15v-1370z" />
<glyph unicode="n" horiz-adv-x="1030" d="M76 -25h12l37 -36h223v780l326 -488v-256h12l37 -36h227v1384l-37 37v12h-237v-766l-324 524v193l-37 37v12h-239v-1397zM102 2v1344h187v-179l413 -671v850h185v-1344h-187v240l-415 620v-860h-183z" />
<glyph unicode="o" horiz-adv-x="1427" d="M27 633v39l653 708l631 -704v-4l37 -41v-35l-639 -707l-39 39l-4 -4zM53 643l613 -680l618 684v19l-604 675l-627 -679v-19zM328 662l342 368l340 -364l-344 -394zM399 618l267 -305l307 353l-266 284z" />
<glyph unicode="p" horiz-adv-x="1032" d="M76 -31v1415h49l823 -452q-8 -4 -10 -6l39 -37q-31 -14 -70 -33.5l-82 -41t-89 -45.5t-89 -46l-37 -18q-92 -47 -156.5 -78t-101.5 -49v-646h-227l-37 37h-12zM102 -4h187v639q35 16 102.5 49t167.5 82q100 51 182 92l148 74l-772 426h-15v-1362zM291 840v211l198 -111z M354 901l66 33l-66 37v-70z" />
<glyph unicode="q" horiz-adv-x="1351" d="M70 141l403 402l-352 364l526 527l543 -541l-4 -4l39 -39l-348 -348l366 -377l-4 -4l39 -39q-31 -47 -73 -88t-95 -80l-39 39l-4 -4l-369 366q-45 -35 -95 -83t-101 -104t-99.5 -114.5t-91.5 -109.5q-27 18 -53.5 37.5t-50.5 42.5q-45 35 -83 73.5t-54 83.5zM102 137 q20 -47 67.5 -89t94.5 -75q43 53 93.5 113.5t102.5 117t103 105.5t99 80l407 -405q43 33 78 66.5t61 72.5l-405 420l350 350l-506 504l-489 -490l352 -364zM446 893q23 23 51.5 54.5t67.5 70.5q37 37 57.5 58.5t24.5 27.5q14 -14 43 -40t70 -67q43 -41 67.5 -63.5 t30.5 -26.5q-53 -49 -105.5 -98t-105.5 -98q-4 8 -86 86q-82 76 -115 96zM528 860q10 -10 23.5 -21.5t28.5 -23.5l39 -39t28 -31l86 82q18 16 40 37t44 41q-14 12 -32.5 30.5l-43.5 43.5q-16 14 -28.5 26.5t-24.5 22.5q-10 -12 -26.5 -28.5l-39 -39t-40 -42t-33.5 -35.5 q-6 -6 -11.5 -12.5t-9.5 -10.5zM633 1090q2 -4 14 -17z" />
<glyph unicode="r" horiz-adv-x="1034" d="M76 -43v1403h49l809 -475l-10 -6l39 -37l-445 -271q33 -25 73 -59.5t89 -77.5q201 -184 246 -241l-2 -3q12 -12 21 -22t16 -18q-2 -2 -17.5 -20.5t-35 -45.5t-37 -55.5t-21.5 -51.5l-39 33v-2l-469 410v-453q0 -10 1 -18t7 -27h-225l-37 37h-12zM102 -16h179q-2 6 -2 24 v23v479l514 -449q2 12 17 35t32.5 44.5t32 37t16.5 17.5q-16 23 -73.5 77t-155.5 144q-207 188 -236 194l453 275l-764 448h-13v-1349zM276 748v286q8 -2 127 -69q59 -35 95.5 -54.5t48.5 -23.5zM340 811l135 68q-10 6 -19.5 11t-19.5 13q-35 18 -57.5 30.5t-38.5 22.5v-145 z" />
<glyph unicode="s" horiz-adv-x="1191" d="M20 506l523 924q27 -27 69 -52v-2q2 0 3 -1t3 -1h-2q6 -2 23 -10l-2 2q35 -18 63.5 -44t53.5 -54l-2 -4l8 -9l15 -15t13 -15l-276 -463h586l-8 -12l38 -37l-530 -877l-184 144l-13 12l-39 31l269 446h-557l-37 37h-17zM66 532h636l-305 -505l152 -117l500 825h-646 l318 531q-16 20 -40 39.5t-56 35.5q-33 18 -52.5 29.5t-23.5 15.5z" />
<glyph unicode="t" horiz-adv-x="1255" d="M39 918q41 0 77 27.5t95 82.5q10 10 20.5 19.5t20.5 19.5q20 20 40.5 39.5t43.5 40.5q16 14 29.5 28.5t29.5 28.5l68 62q66 63 101.5 95t56.5 38l526 -525q-2 -2 -2 -4l-2 -2l39 -37q-23 -35 -61 -71.5t-60 -54.5h-2l-29 -29l-41 37l-2 -2l-213 202v-974h-235l-37 36h-13 v902l-219 -187q-10 6 -20 16.5t-21 20.5l-2 -2q-20 18 -56 55t-62 66q-4 4 -12.5 12t-18.5 18.5t-22.5 23.5t-16.5 18zM102 891q29 -31 65 -69t60 -60l289 248v-1008h195v1010l276 -264q4 4 20.5 19t37 33.5t39 38t28.5 33.5l-498 498q-6 -2 -133 -123 q-63 -59 -125.5 -118.5t-126.5 -118.5q-125 -119 -127 -119zM111 850l9 -9t9 -10q-12 12 -16 19h-2z" />
<glyph unicode="u" horiz-adv-x="1056" d="M76 -61l10 6l39 -39l852 405v1024l-37 37v12h-246v-878q-41 -23 -91 -50.5t-109 -56.5q-80 -41 -136 -61v983l-36 37v12h-246v-1431zM102 -18v1361h193v-1058q27 8 79 29.5t130 60.5q78 37 131 65.5t86 48.5v869h192v-991z" />
<glyph unicode="v" horiz-adv-x="1167" d="M72 1135l469 -1205l4 13l39 -39l506 1188l-181 225l-6 6l-39 49l-315 -721l-238 727l-32 31l-9 29zM102 1130l160 246l279 -841v28l329 758l154 -191l-483 -1130z" />
<glyph unicode="w" horiz-adv-x="1042" d="M76 -39v1428h246v-13l36 -37v-860q25 14 47.5 31.5t45.5 36.5q4 4 9 7t9 7t10 9t10 10q35 0 136 -78q12 -10 21 -18.5t20 -16.5q0 -2 14 -16v6q4 -4 6 -4q-2 2 -4 2l-2 2v932h246v-13l37 -37v-1411h-43l-43 37h-3l-321 275q-49 -29 -172 -129h2q-70 -59 -134.5 -104.5 t-123.5 -78.5l-39 39q-8 -4 -10 -6zM102 6q43 23 98.5 64t125.5 100q137 117 188 137l371 -315h14v1370h-192v-959q-4 4 -29 23.5t-70 54.5q-90 72 -108 72q-47 -37 -95.5 -75t-109.5 -48v932h-193v-1356zM666 467l4 -3t10 -7q-8 4 -14 10z" />
<glyph unicode="x" horiz-adv-x="1157" d="M74 117l340 604l-332 571q41 33 63.5 48.5t40.5 25.5q63 33 121 51l12 -24l29 -27l221 -397l269 440l202 -127l-4 -8l37 -37l-338 -571l348 -627q-8 -6 -25.5 -17.5t-29.5 -17.5h2q-25 -14 -52.5 -29.5t-49.5 -33.5h-64l-37 36h-10l-231 424l-279 -467q-53 23 -88 39.5 t-57 38.5l-17 15q-25 16 -41 36.5t-30 53.5zM102 115q18 -43 51 -62.5t103 -48.5l289 483h26l263 -483h43q14 12 34.5 24.5t41 23.5t37 20.5t24.5 15.5l-346 621l333 565l-153 96l-277 -455h-14l-262 469q-33 -8 -94 -43q-29 -16 -49.5 -29.5t-34.5 -23.5l329 -565z" />
<glyph unicode="y" horiz-adv-x="1277" d="M61 1155q49 31 90.5 69t75.5 72l275 -288v403h233v-12l37 -37v-299l238 217q31 -20 53 -36.5t45 -37.5q12 -12 22.5 -23.5t16.5 -23.5l8 -8q43 -43 43 -92q-10 0 -41 -29t-90 -88q-125 -125 -213 -219q-82 -88 -82 -98v-695h-221l-37 37h-12v690zM102 1149l426 -481v-674 h181v674q0 18 88 112t213 219q123 123 125 123q0 25 -45 64q-23 20 -42.5 35.5t-35.5 25.5l-289 -262h-14v399h-181v-413h-26l-275 289q-29 -29 -62.5 -61t-62.5 -50z" />
<glyph unicode="z" horiz-adv-x="1228" d="M53 762l541 -893l6 6l39 -39l184 144l-295 489h635l-514 907l-24 25l-17 29q-27 -27 -69 -52v-2q-2 0 -5 -1l-2 -1q-4 -2 -10 -4t-10 -6l2 2q-35 -18 -63.5 -44t-53.5 -54l301 -506h-645zM102 735h646l-318 531q16 20 40 39.5t56 35.5q33 18 52.5 29.5t23.5 15.5 l483 -854h-636l305 -505l-152 -117z" />
<glyph unicode="{" d="M76 438l24 -14l25 -25l831 -479h41v256l-36 37v10l-611 334v219l647 363v237l-36 37v12h-50l-835 -467v-520zM102 455v487l818 457h14v-205l-647 -363v-270l647 -354v-223h-14z" />
<glyph unicode="|" horiz-adv-x="417" d="M76 -227h12l37 -37h213v1777l-37 37v13h-225v-1790zM102 -201v1737h172v-1737h-172z" />
<glyph unicode="}" d="M76 -43v266l647 355v223l-598 338l-27 24l-22 15v247h49l836 -467v-10l36 -37v-512l-831 -479h-41l-37 37h-12zM102 -16h15l817 471v487l-817 457h-15v-205l648 -363v-270l-648 -354v-223z" />
<glyph unicode="~" horiz-adv-x="1107" d="M39 465l217 334h197l252 -80l323 104l-12 -18l39 -37l-205 -315h-193l-251 79l-308 -98l-39 37zM102 514l260 84l259 -82h176l168 258l-260 -84l-261 82h-174z" />
<glyph horiz-adv-x="526" />
<glyph unicode="&#xa1;" horiz-adv-x="528" d="M66 1190l178 -178l4 4l26 -27h-151v-993h12l37 -37h213l2 981l-37 37v12h-51l158 158l-39 39l4 4l-178 178zM102 1190l142 141l141 -141l-141 -141zM150 23v940h174l-2 -940h-172z" />
<glyph unicode="&#xa2;" horiz-adv-x="1218" d="M76 637l49 -41l518 -432v-391h12l37 -37h213v211l4 -4l43 -35q68 37 100.5 71.5t61.5 75.5q4 6 15.5 21.5t17.5 23.5l-39 37q2 2 3 4l1 2l-207 176v601l240 194q-39 57 -64.5 93t-40.5 50l-4 3q-25 35 -35 45l-71 71l-25 -20v157l-37 37v13h-225v-420l-567 -463v-43z M102 649v19l568 462v406h172v-266l86 71l55 -55q14 -14 36.5 -46t55.5 -79l-233 -188v-633l233 -201q-37 -49 -67.5 -88t-96.5 -76l-69 58v-234h-172v377zM465 668l205 -179v345zM547 631l96 76v-160z" />
<glyph unicode="&#xa3;" horiz-adv-x="1044" d="M76 -8h12l37 -37h35l811 299q-4 10 -12.5 30.5t-17.5 46t-19.5 53.5t-18.5 52l-35 33q-2 4 -2 8t-2 8h-76l-442 -163v129q72 12 281 98q61 25 101 39t68.5 25.5t52 20.5t54.5 21l-4 4q-12 12 -14 31t-6 53q-6 76 -35 123l-25 25q-4 6 -7 13t-7 14l-459 -168v622l-37 37 v12h-233v-1429zM102 18v1377h181v-688h14l494 178q18 -31 24 -101q6 -76 8 -77l-61 -25q-62 -25 -187 -72q-244 -98 -292 -98v-233h14l494 180h55q16 -49 31.5 -90t23.5 -62l-784 -289h-15z" />
<glyph unicode="&#xa4;" horiz-adv-x="1157" d="M74 117l225 403l-149 176l167 185l-235 411q41 33 63.5 48.5t40.5 25.5q63 33 121 51l12 -24l29 -27l156 -281l61 68l70 -78l203 334l202 -127l-4 -8l37 -37l-233 -391l139 -146l-4 -4l39 -39l-168 -194l237 -424q-8 -6 -25.5 -17.5t-29.5 -17.5h2q-25 -14 -52.5 -29.5 t-49.5 -33.5h-64l-37 36h-10l-151 277l-64 -74l-39 39l-4 -4l-51 57l-201 -338q-53 23 -88 39.5t-57 38.5l-15 13q-27 16 -43 36.5t-30 55.5zM102 115q18 -43 51 -62.5t103 -48.5l213 356l90 -104l84 98l191 -350h43q14 12 34.5 24.5t41 23.5t37 20.5t24.5 15.5l-236 422 l164 190l-170 185l229 389l-153 96l-207 -340l-76 84l-73 -82l-197 352q-33 -8 -94 -43q-29 -16 -49.5 -29.5t-34.5 -23.5l235 -407l-168 -185l148 -174zM369 692l188 221l188 -219l-190 -237zM438 649l117 -149l156 192l-119 137z" />
<glyph unicode="&#xa5;" horiz-adv-x="1277" d="M61 1153l408 -461q-78 -2 -126 -6t-64 -8l-15 -35l78 -201h10l37 -36l113 4v-70q-92 -4 -152.5 -10t-87.5 -13l86 -225h10l37 -37h107v-88h12l37 -37h221v136l182 8q10 10 12.5 20t2.5 23q0 20 -4 39.5t-11 44.5q-20 63 -20 67v23l-37 37v12h-125v78l176 8 q10 10 12.5 20.5t2.5 20.5q0 23 -4.5 43t-10.5 43q-20 63 -20 68v22l-37 37v12h-66q6 6 12.5 13.5t16.5 17.5q88 94 213 219q59 59 90 88t41 29q0 49 -43 92l-10 8q-12 27 -37 47q-23 20 -45.5 37t-52.5 37l-238 -217v299l-37 37v12h-233v-403l-275 288q-37 -37 -79 -75.5 t-87 -67.5zM102 1149q29 18 63 50t62 61l275 -289h26v413h181v-399h14l289 262q16 -10 35.5 -25.5t42.5 -35.5q45 -39 45 -64q-2 0 -125 -123q-125 -125 -213 -219t-88 -112v-2h155v-2q0 -10 21 -74q6 -23 10 -43.5t4 -36.5q0 -18 -2 -21l-188 -8v-168h161v-2q0 -8 21 -71 q6 -25 10 -44.5t4 -35.5q0 -20 -2 -23l-194 -8v-135h-181v125h-161l-70 180q16 4 73.5 8t157.5 6v162l-168 -6l-71 182q20 6 80.5 10.5t158.5 4.5z" />
<glyph unicode="&#xa6;" horiz-adv-x="417" d="M76 -260h12l37 -37h213v1810l-37 37v13h-225v-1823zM102 -233v1769h172v-1769h-172z" />
<glyph unicode="&#xa7;" horiz-adv-x="1144" d="M74 117l225 403l-149 176l415 457l70 -78l203 334l202 -127l-4 -8l37 -37l-233 -391l139 -146l-4 -4l39 -39l-412 -477l-39 39l-4 -4l-51 57l-201 -338q-53 23 -88 39.5t-57 38.5l-15 13q-27 16 -43 36.5t-30 55.5zM102 115q18 -43 51 -62.5t103 -48.5l213 356l90 -104 l383 444l-170 185l229 389l-153 96l-207 -340l-76 84l-381 -418l148 -174zM369 692l188 221l188 -219l-190 -237zM438 647l117 -147l156 192l-119 137z" />
<glyph unicode="&#xa8;" horiz-adv-x="911" d="M66 1397l178 -178l4 4l39 -39l170 170l-39 39l4 4l-178 178zM102 1397l142 141l141 -141l-141 -142zM449 1393l178 -179l4 5l39 -39l170 170l-39 39l4 4l-178 178zM485 1393l142 141l141 -141l-141 -142z" />
<glyph unicode="&#xa9;" horiz-adv-x="2988" d="M70 666l178 28l-84 90l24 138l211 -19q8 233 109 234h18l185 -62q129 156 231 197l162 -98l326 147l100 -70l-2 -8l28 -31l302 56l161 -17l-2 -10l39 -39l-10 -49h371l53 -51v-8l37 -37q0 -35 -10 -66l264 -59v-12l37 -37v-37q0 -51 -41 -82q94 -45 110 -84l23 -21 q18 -18 18 -34q0 -6 -2 -9.5t-4 -7.5l-41 -78h-133l43 -49q2 -4 6 -8l35 -41l-2 2q6 -6 7 -14t1 -19v-12q0 -74 -76 -94l-164 31l-16 -181q-29 -49 -92 -49q-37 0 -81 16.5t-101 45.5l-172 -172l-107 -23l-43 37h-2l-68 59l-335 -161l-76 22l-35 35l-14 4v45l-387 -53 l-78 43l-25 24l-26 15l8 39l-406 30l-37 35l-12 2v97l-168 28q-33 0 -47 19l-25 22q-49 14 -49 101l70 53l-109 47l-32 31l-17 8zM102 645l19 -82l201 -86l-111 -84q0 -66 55 -65l289 -47l-55 -54v-63l471 -35l-19 -82l58 -33l452 66v-100l56 -17l344 166l110 -100l90 18 l181 180q59 -33 104 -50t80 -17q49 0 72 37l18 196l180 -33q57 14 58 72v12q0 16 -2 19l-111 131h164l35 68q4 4 4 6q0 47 -240 125q129 14 129 96v10v10l-364 86q74 12 73 97l-37 34h-434l17 101l-127 14l-363 -65l-16 16l16 49l-72 51l-327 -149l-164 98 q-90 -35 -215 -197l-203 66h-10q-82 0 -82 -236l-215 19l-18 -100l108 -117zM158 610l233 17l-125 149l-18 68l235 -17l35 232q115 -72 178 -72q29 0 43 8l197 197l145 -100l328 149l37 -14l16 -101l473 66l-37 -117h490l-145 -98l417 -84l21 -33h-21l-182 -49l291 -135 l18 -31l-233 -18q147 -152 147 -201l-4 -16l-237 34l-17 -233l-235 70l-180 -201l-166 98l-363 -164l19 66l-56 65l-452 -82l53 115l-508 19l147 96l-436 86l199 84zM319 778l11 -37l145 -176l-143 -10l196 -94l33 317l113 23l-2 -15l39 -36l-2 -29q74 61 233 82l-2 -12 l39 -37l-4 -27q31 37 74 61q6 0 10 -12l8 -6v21h25q100 0 141 -74l-2 98l190 -192l9 180l108 -33v-10l33 -35l8 66l115 22l-2 -14l39 -37l-9 -117q39 84 95 154q27 12 59 12q55 0 88 -57l16 -17q4 -4 5.5 -6t5.5 -6l-2 100l188 -192l10 182l107 -33v-10l33 -33l4 74l118 -29 l-20 21l-31 14l152 39l-318 66l-34 32l-25 7l72 49h-332l-37 37h-14l20 65l-393 -53l-39 37h-10l-13 67l-305 -139l-141 96l-188 -188q-16 -10 -54 -10q-57 0 -164 59l-30 -221zM444 371l328 -66l-12 -8l37 -37l-68 -45l375 -12l-6 -13l39 -36l-23 -45l359 65l36 -45l4 -4 l46 -55l307 139l157 -92l177 194l219 -65l8 123l-33 -29l-43 35l-39 33q-76 8 -162 92q-4 4 -8 7t-8 7v-102l-88 -9l-18 19v-21l-76 23l-33 33l-14 4q-4 8 -8.5 15t-8.5 13q-29 -4 -65 -67h-101l-10 10v-2l-123 -33l-14 15v-15q-88 0 -178 88q-4 4 -9.5 8.5t-9.5 8.5v-101 l-90 -14l-39 37h-10l-2 37q-37 -63 -96 -64h-6q-12 -2 -23.5 -3t-21.5 -1q-74 0 -111 37l-16 16q-18 10 -33 21l8 -80q-8 -2 -23.5 -5t-21.5 -5q-25 -6 -43 -6q-55 0 -92 37l-15 12q-29 14 -49 43l-2 -45l-119 -35l-30 29zM518 455l8 -9l2 13zM555 455l74 22l16 289l-59 -12 zM678 602q0 -10 1 -17t3 -22q31 -129 125 -129q10 0 26.5 4t38.5 8l-4 52q-25 -8 -61 -9q-70 0 -70 58q0 63 49 119q47 41 86 41q10 0 17.5 -1t17.5 -6l6 72q-236 -33 -235 -170zM801 516h6q16 0 36.5 3t49.5 13v-16l16 -16q0 82 21 141q-6 2 -15 2q-29 0 -71 -37h-2 q-39 -45 -41 -90zM936 506q20 -49 111 -49q12 0 24 1t27 3q94 0 125 205q-29 98 -131 98h-19q2 0 -2 -1t-14 -1q-121 -68 -121 -256zM997 584q0 18 2 20q39 92 95 92q39 0 59 -39q10 -9 10 -32q0 -47 -28 -88q-53 -25 -84 -25q-53 0 -54 72zM1059 549h2v-10q16 2 55 16 q21 33 21 70q0 2 -1 3t-1 5q-41 -4 -76 -84zM1260 750l6 -295l49 8v141q117 -143 196 -143v289l-57 16l-8 -203zM1571 469l78 20l16 289l-61 -12zM1702 485h65q39 68 82 68t74 -68l41 -12l-6 219q-23 92 -82 92q-27 0 -43 -8q-117 -147 -131 -291zM1800 616l66 99l39 -99 h-105zM2017 760l6 -291l48 4v143q121 -145 196 -145v291l-55 16l-12 -205zM2312 442l39 -32l53 45l-49 18zM2331 487l20 15l2 -2l-22 24v-37zM2343 553l51 -8l39 215l-78 18zM2390 487l45 -16v4l236 -35q-27 53 -174 207l202 17l-235 108v-2l37 -37l-47 -256z" />
<glyph unicode="&#xaa;" horiz-adv-x="649" d="M76 625h12l37 -37h137v78l123 106v-141h12l37 -37h135v741l-37 37v17l-456 -226v-538zM102 651v496l404 199v-689h-94v250l-213 -186v-70h-97zM199 840l213 207v141q-14 -4 -40 -15.5t-65 -29.5q-41 -18 -66.5 -32.5t-41.5 -25.5v-245zM262 936v96q24 16 96 49 q10 4 27 13v-37z" />
<glyph unicode="&#xab;" horiz-adv-x="1671" d="M55 602l39 -29l17 -16l651 -479h39v8l145 145l-39 39l4 4l-395 291l461 262l-119 209l-24 25l-17 29zM102 600l705 451l98 -172l-491 -279h16l442 -328l-131 -131h17h-33zM678 592l39 -29l16 -16l651 -479h39v8l146 145l-39 39l4 4l-395 291l460 262l-118 209l-25 25 l-16 28zM725 590l705 450l98 -172l-492 -278h17l442 -328l-131 -131h16h-32z" />
<glyph unicode="&#xac;" horiz-adv-x="1191" d="M68 657q16 8 72.5 14.5t132 10.5t161.5 5t162 1q12 0 23.5 -1t21.5 -1h90h109h71q31 0 55.5 -1t57.5 -1v-12l37 -37v-23l5 -16t15 -51l-2 2l11 -25q4 -8 4 -33v-63q0 -72 18 -201l-113 -176l-38 37l-3 -4l-145 170l80 174h-686l-37 37h-10zM102 645l74 -156h778 l-108 -233l110 -129l93 143q-18 129 -19 199q0 76 -8 102l-4 11q-20 68 -21 73v2l-65 1q-66 1 -201 1q-29 0 -61.5 1.5t-73.5 1.5q-74 0 -157 -1.5t-155.5 -3.5t-122.5 -5t-59 -7z" />
<glyph unicode="&#xad;" horiz-adv-x="786" d="M76 688l14 -6l35 -33l539 -188q29 47 34 123q4 35 7.5 54t17.5 34l-39 39l6 6q-43 16 -77.5 30.5t-88.5 34.5q-23 10 -51.5 20.5l-66.5 24.5q-246 100 -306 101l-24 -25v-215zM102 707v194q49 0 293 -98q125 -47 187 -71l61 -25q-2 -2 -8 -78q-6 -70 -25 -101z" />
<glyph unicode="&#xae;" horiz-adv-x="2359" d="M74 262l39 461l118 29l-2 -15l39 -37l-4 -63q72 84 271 119l-3 -15l39 -36l-8 -72q31 57 90 96q20 12 35 12h17q104 0 151 -86l8 -8q0 -2 2 -4l-2 123l215 -248l11 234l116 -39v-11l37 -36v-107l17 182l120 21l-2 -14l39 -37l-10 -187q41 117 119 221q31 23 63 23 q63 0 94 -66l13 -10q16 -16 24 -39l-2 129l215 -250l13 234l110 -41v-10l37 -37v-182l12 268l142 -37l-2 -10l39 -37l-52 -322l-94 13l-37 35l-8 2v-74l35 26l100 -49l-6 -6l39 -39l-94 -92l-39 39l-4 -4l-53 53q-70 10 -140 82q-16 10 -30.5 22.5t-28.5 28.5v-127l-94 -14 l-31 29l2 -27l-76 31l-33 32l-14 7q-12 25 -24 43q-33 0 -78 -86h-109l-18 16v-10l-129 -39l-25 24v-24q-82 0 -164 80q-14 10 -28.5 22.5t-28.5 26.5v-127l-98 -16l-39 38l-11 -2l-2 74q-43 -96 -114 -96q-6 0 -23 -4q-10 -2 -18 -2h-19q-80 0 -116 37l-19 18 q-33 16 -47 43l4 -102q-31 -18 -50 -21.5t-42 -3.5q-55 0 -94 39l-12 10q-43 20 -70 76l-2 -61l-127 -50l-39 37zM102 303l84 33l17 381l-66 -17zM242 500q0 -14 1 -23.5t3 -27.5q31 -170 139 -170q18 0 34.5 2t37.5 14l-2 65q-14 -8 -70 -8q-78 0 -78 76q0 82 55 154 q43 55 95 55q25 0 39 -8l10 94q-264 -43 -264 -223zM371 379h14q23 0 45.5 7t48.5 24v-21l27 -27v5q0 117 26 196q-20 10 -32 10q-41 0 -78 -47q-51 -66 -51 -141v-6zM532 375q20 -68 123 -68q14 0 27.5 2t32.5 4q104 1 139 269q-31 133 -149 133h-17q-6 0 -20 -8 q-135 -86 -136 -332zM602 475v27q47 121 109 121q39 0 67 -50q10 -16 10 -47q0 -27 -6 -54.5t-24 -53.5q-63 -39 -99 -39q-57 0 -57 96zM666 406q27 4 73 32q12 23 17.5 45.5t5.5 42.5q0 16 -8 33q-49 0 -88 -104v-23v-26zM893 692l8 -389l57 10v189q127 -188 222 -189v381 l-66 23l-10 -268zM1247 322l86 26l19 381l-68 -12zM1395 346h73q45 86 91 86q45 0 86 -86l41 -16l-5 288q-23 123 -92 123q-25 0 -45 -14q-137 -186 -149 -381zM1505 518l72 127l45 -127h-117zM1747 707l8 -385l53 8v188q131 -193 222 -192v381l-60 22l-14 -264zM2079 293 l45 -47l59 57l-53 27zM2116 432l55 -8l45 283l-86 22z" />
<glyph unicode="&#xaf;" horiz-adv-x="688" d="M-31 1544q31 10 90.5 18.5t137.5 8.5h53q16 0 31.5 -1t31.5 -1h109h72q31 0 55 -1t57 -1v-13l37 -36v-23l3 -9t7 -28q2 -6 3 -12t3 -16h3q2 -4 3 -9.5t3 -9.5q4 -23 7 -39t3 -33q0 -8 -1 -15t-7 -26l-568 -12l-36 37h-11zM4 1530l70 -180l538 12q4 18 0 43t-12 59 q-23 74 -20 76l-66 1q-65 1 -201 1q-262 6 -309 -12z" />
<glyph unicode="&#xb0;" horiz-adv-x="860" d="M76 985v29l340 368l327 -366v-4l37 -41v-25l-329 -364l-39 39l-4 -5zM102 995l306 -340l309 342v9l-301 337l-314 -339v-9zM240 1004l170 184l170 -182l-172 -197zM309 961l99 -111l135 156l-97 102z" />
<glyph unicode="&#xb1;" horiz-adv-x="983" d="M68 758l86 -223h10l37 -37h153v-219q10 -12 25 -17l24 -24q10 -10 20.5 -12.5t22.5 -2.5q37 0 80 13h-2q2 2 4 2q59 20 74 20h23q0 27 1 49.5t1 48.5v60v86h262q10 10 12 20t2 23q0 39 -12 82l-4 2q-18 57 -19 71v23l-37 37v12q-47 2 -94 2h-108v21q0 74 -2 127t-9 67 l-34 35q-4 8 -4 12l-31 13l-199 -76v-197h-63q-74 0 -134.5 -4t-84.5 -14zM102 741q12 4 63.5 6.5t121.5 2.5h90v204l180 70q4 -12 6 -63.5t2 -122.5v-90q119 0 179 -2l61 -1v-2q0 -14 20 -73q0 -2 1 -4t1 -4q12 -43 13 -74q0 -20 -2 -23h-275q0 -123 -1 -183l-1 -60h-2 q-14 0 -74 -21q-2 0 -4 -1t-4 -1q-43 -12 -74 -12q-20 0 -22 2v272h-209zM125 168l76 -199h10l37 -37l567 13q6 18 7 25t1 16q0 16 -3 32.5l-7 38.5q-2 4 -3 9.5t-3 9.5h-2q-2 10 -3 16t-3 12q-4 18 -7 28l-4 9v23l-36 37v12q-33 0 -57.5 1t-55.5 1h-72h-108q-16 0 -32.5 1 t-33.5 1h-51q-160 0 -203 -18zM150 176q47 18 309 12q135 0 201 -1l65 -1q-2 -2 20 -75q8 -35 12.5 -59.5t0.5 -43.5l-539 -12z" />
<glyph unicode="&#xb2;" horiz-adv-x="743" d="M70 938l239 229q25 -18 39 -29.5t31 -27.5l-172 174q25 35 49.5 56.5t52.5 41.5l328 -313l-4 -4l39 -39l-240 -246l-39 39l-4 -4l-74 74l-4 -4q4 -4 7.5 -5t7.5 -6q25 -25 49 -48t49 -46q14 -16 24.5 -28.5t18.5 -22.5q49 -53 49 -74q-16 -23 -36.5 -43t-47.5 -20 q-16 0 -74 47q-10 8 -24.5 20.5t-32.5 28.5v-2q-20 18 -48 45t-56 57l-19 19q-4 4 -9 10t-11 12q-37 37 -58.5 63t-29.5 46zM102 930q6 -14 74 -82q35 -35 66.5 -67.5t66.5 -63.5q63 -61 80 -62q20 0 35.5 16.5t28.5 33.5q0 10 -47 57q-25 23 -49.5 46t-49.5 48 q-27 25 -42 43.5t-23 30.5l139 139q-23 25 -35 36t-35 28zM217 776q6 -10 16 -16zM242 1286l217 -217l-140 -147l70 -70l211 217l-295 281q-16 -10 -31.5 -24.5t-31.5 -39.5zM387 1104q6 -8 13.5 -16.5t17.5 -18.5l-4 -4l4 -2l4 4z" />
<glyph unicode="&#xb3;" horiz-adv-x="661" d="M59 1006l129 69q16 4 35 13.5l39 19.5q-16 12 -18 14l2 -2l-121 66l-29 26l-20 13v145h41l452 -252q-2 -2 -4 -3t-4 -3l39 -37q-23 -16 -54.5 -35.5t-70.5 -40.5q-18 -10 -32.5 -17t-24.5 -13l127 -74v-10l37 -37v-31l-424 -244h-33l-37 37h-12v154l123 63l14 7v2 q8 4 17.5 8t17.5 8l4 2l14 8l-149 101l-17 16zM102 637h7l409 235v7l-194 114q20 27 98 68q39 20 62.5 33.5t33.5 21.5l-409 227h-7v-102l107 -57q6 -4 18.5 -13.5t34.5 -21.5q23 -14 38 -23.5t22 -13.5q-25 -14 -54.5 -29.5t-58.5 -27.5l-96 -51l209 -136l-56 -37 q-20 -12 -33.5 -18t-21.5 -10l-109 -55v-111z" />
<glyph unicode="&#xb4;" horiz-adv-x="595" d="M53 848l166 457l244 18v-14l37 -35l18 -236l-409 -219l-39 37zM102 905l351 189l-15 200l-200 -16z" />
<glyph unicode="&#xb5;" horiz-adv-x="1030" d="M76 -25h12l37 -36h29q20 0 34 -2q20 -2 41 -3.5t35 -1.5q16 0 38 2.5t50 6.5v688l598 -447v1141l-37 37v12h-239v-692q-70 45 -182 139h4q-49 41 -84 73t-58 54q-2 4 -2 10v367l-37 37v12h-239v-1397zM102 2v1344h187v-347q0 -39 176 -190q88 -74 147.5 -119t87.5 -61 v717h187v-1080l-572 428h-26v-692q-43 -6 -68 -6t-64.5 3t-54.5 3z" />
<glyph unicode="&#xb6;" horiz-adv-x="1034" d="M68 193q2 -2 18 -21.5t35.5 -48.5t38 -62.5t24.5 -60.5l9 10l38 -39l451 531l6 -494q0 -6 -2 -14t-16 -37h16l37 -37h231v1391l-36 37v12h-50l-794 -668l30 -18l23 -23l258 -155q-14 -10 -31.5 -25.5t-40.5 -36.5q-197 -178 -245 -241zM102 195q39 49 230 221 q51 47 74.5 65.5t31.5 21.5t9.5 -2t7.5 -3l-336 200l760 635h12v-1349h-178q2 4 2 24l-8 852q-8 -2 -127 -69q-59 -35 -95 -54.5t-49 -23.5l223 -113l-458 -539q-2 12 -17.5 35t-33 44.5t-32 37t-16.5 17.5zM553 682q16 10 35.5 21.5t44.5 25.5q14 8 25.5 14.5t21.5 12.5 l2 -138z" />
<glyph unicode="&#xb7;" horiz-adv-x="528" d="M66 655l178 -178l4 4l39 -39l170 170l-39 39l4 4l-178 179zM102 655l142 142l141 -142l-141 -141z" />
<glyph unicode="&#xb8;" horiz-adv-x="593" d="M66 -207l321 350l92 -77l-2 -7l39 -39l-70 -280l-159 -160l-39 39l-4 -4zM102 -207l142 -141l141 141l66 262l-62 51z" />
<glyph unicode="&#xb9;" horiz-adv-x="567" d="M59 1174q6 -6 16.5 -18.5t16.5 -22.5v2q8 -14 21.5 -35t42.5 -41l4 2l18 -19q12 -12 21 -18l102 55v-440h12l37 -37h137v721l-36 37v12h-50zM102 1167l310 179h12v-680h-96v514h-15l-157 -88q-8 6 -16.5 17t-15.5 23.5t-13.5 21.5t-8.5 13z" />
<glyph unicode="&#xba;" horiz-adv-x="860" d="M76 985v29l340 368l327 -366v-4l37 -41v-25l-329 -364l-39 39l-4 -5zM102 995l306 -340l309 342v9l-301 337l-314 -339v-9zM240 1004l170 184l170 -182l-172 -197zM309 961l99 -111l135 156l-97 102z" />
<glyph unicode="&#xbb;" horiz-adv-x="1671" d="M66 858l124 221l762 -487l-8 -6l39 -39l-651 -479h-39l-37 36h-12v13l-148 147l430 320l-409 233l-29 27zM102 868l492 -278h-16l-443 -328l131 -131h-16h33l622 459l-704 450zM688 868l125 222l762 -488l-8 -6l39 -39l-652 -479h-39l-36 37h-13v12l-147 147l430 320 l-410 233l-28 27zM725 879l492 -279h-17l-442 -328l131 -131h-17h33l623 459l-705 451z" />
<glyph unicode="&#xbc;" horiz-adv-x="1566" d="M59 1184l318 186h49v-12l37 -37v-686q59 49 119.5 99t103.5 85h-2q180 156 180 180v373h240v-12l37 -37v-498l-221 -190l-377 -313v-383h-228l-36 36h-13v508q16 10 57.5 42t94.5 75h-92l-37 37h-13v440l-77 -43q-8 6 -21 19l-18 18l-4 -2q-29 20 -42.5 40.5t-21.5 35.5 v-2q-6 10 -16 22.5t-17 18.5zM102 1178q2 -4 8.5 -13.5t13.5 -22t15 -23.5t17 -17l133 76h14v-514h96v679h-12zM293 2h186v373l385 319l213 185v467h-186v-347q0 -39 -176 -190q-43 -37 -109.5 -92t-131 -107.5t-116 -93.5t-65.5 -49v-465zM1006 80v618h145v-12l37 -37v-258 q6 4 12 10.5t14 12.5h-2q92 80 93 86v198h145v-12l37 -37v-712h-41q-10 0 -20.5 -1.5t-18.5 -1.5h-14q-6 0 -13.5 1.5t-25.5 7.5l-35 34q-2 0 -14 5v254l-250 -187l-39 39zM1032 133l285 213h14v-346q6 -2 19 -2h14q12 0 32.5 1t26.5 1v672h-92v-172q0 -20 -88 -97 q-45 -37 -73.5 -58t-45.5 -32v359h-92v-539z" />
<glyph unicode="&#xbd;" horiz-adv-x="1560" d="M59 1184q6 -6 16.5 -18.5t16.5 -22.5v2q8 -14 21.5 -34.5t42.5 -41.5l4 2l18 -18q12 -12 21 -19l77 43v-440h13l37 -37h92q-53 -43 -94 -74.5t-58 -42.5v-508h13l36 -36h228v383l377 313l221 190v498l-37 37v12h-240v-373q0 -25 -180 -180h2q-43 -35 -103.5 -85 t-119.5 -99v686l-37 37v12h-49zM102 1178l285 165h12v-679h-96v514h-14l-133 -76q-8 6 -16.5 17t-15.5 23.5t-13.5 22t-8.5 13.5zM293 2v465q14 8 65.5 49t116 93.5t131 107.5t109.5 92q176 152 176 190v347h186v-467l-213 -185l-385 -319v-373h-186zM770 233 q6 -14 18.5 -26t28.5 -23l17 -14q12 -16 38 -29h2q14 -8 30 -16t32 -19q4 -4 5 -6t5 -4l19 -18q29 -31 56.5 -57.5t47.5 -45.5v2l17.5 -14t15.5 -12q0 -2 2 -2q6 -6 18 -15q59 -53 78 -53q27 0 47.5 20.5t36.5 43.5q0 20 -49 73q-8 10 -18.5 22.5t-24.5 29.5 q-25 23 -49.5 46t-48.5 48q-4 4 -7.5 5t-7.5 5l54 53l73 -73l4 4l39 -39l240 246l-39 38l4 5l-328 313q-29 -20 -53 -42t-49 -56l215 -217l-53 -56l-1 1t-1 3h-2l4 4l-52.5 52.5t-39.5 33.5h-29zM805 225l274 197q23 -16 35 -27.5t35 -36.5l-139 -139q8 -12 23.5 -30.5 t41.5 -43.5q25 -25 49.5 -48t49.5 -46q47 -47 47 -57q-12 -16 -27.5 -32.5t-36.5 -16.5q-16 0 -80 61q-35 31 -66.5 63.5t-66.5 67.5q-16 16 -39.5 30.5t-45 26t-37 19.5t-17.5 12zM997 53l4 -4q-4 0 -4 4zM1001 49l11 -10h-2q-5 2 -9 10zM1001 49l11 -10h-2q-4 2 -9 10z M1059 625q16 25 31.5 39t31.5 24l295 -280l-211 -218l-69 70l139 148zM1126 121l2 -2q3 0 5 -2t2 -4l2 -2z" />
<glyph unicode="&#xbe;" horiz-adv-x="1548" d="M59 1008l129 69q16 4 35 13.5l39 19.5q-16 12 -18 14l2 -2l-121 66l-29 26l-20 13v145h41l452 -252q-2 -2 -4 -3t-4 -3l39 -37q-23 -16 -54.5 -35.5t-70.5 -40.5q-18 -10 -32.5 -17t-24.5 -13l127 -74v-10l37 -37v-31l-424 -244h-33l-37 37h-12v154l123 63l14 7v2 q10 4 20.5 9t18.5 9l14 8l-149 101l-17 16zM102 639h7l409 235v7l-194 114q20 27 98 68q39 20 62.5 33.5t33.5 21.5l-409 228h-7v-103l107 -57q6 -4 18.5 -13.5t34.5 -21.5q23 -14 38 -23.5t22 -13.5q-25 -14 -54.5 -29.5t-58.5 -27.5l-96 -51l209 -136l-56 -36 q-20 -12 -33.5 -18.5t-21.5 -10.5l-109 -55v-111zM248 -25v508q18 10 69.5 50t114 91.5t127 104.5t109.5 90h-2q180 156 180 180v373h239v-12l37 -37l4 -502l-602 -499v-383h-227l-37 36h-12zM274 2h187v373l602 499l-4 472h-187v-347q0 -39 -176 -190q-43 -37 -109.5 -92 t-131 -107.5t-115.5 -93.5t-66 -49v-465zM987 80v618h146v-12l36 -37v-258q6 4 12.5 10.5t14.5 12.5h-2q92 80 92 86v198h146v-12l36 -37v-712h-41q-10 0 -20 -1.5t-18 -1.5h-15q-6 0 -13 1.5t-26 7.5l-35 34q-2 0 -14 5v254l-250 -187l-39 39zM1014 133l284 213h15v-346 q6 -2 18 -2h15q12 0 32.5 1t26.5 1v672h-92v-172q0 -20 -88 -97q-45 -37 -74 -58t-45 -32v359h-92v-539z" />
<glyph unicode="&#xbf;" horiz-adv-x="1228" d="M57 879h635l-76 133h252l17 -27l24 -22l258 -377h-647l305 -512q-23 -29 -49 -52.5t-61 -39.5q-8 -4 -15.5 -6.5t-13.5 -6.5l2 -2q-43 -25 -63 -45l-39 39l-6 -6zM102 852l484 -854q4 4 23.5 15.5t52.5 29.5q33 16 56 35.5t40 40.5l-318 530h645l-229 336h-192l75 -133 h-637zM582 1243l178 178l178 -178l-4 -4l39 -39l-170 -170l-39 39l-4 -4zM618 1243l142 -141l141 141l-141 141z" />
<glyph unicode="&#xc0;" horiz-adv-x="1052" d="M76 -27v1035l680 335l-387 127l-35 33l-15 6v193h220l18 -29l21 -20l192 -301l166 82v-17l37 -37v-1429h-230l-36 37h-13v391l-336 -293v-149h-233l-37 36h-12zM102 0h193v141l426 373v-500h188v1377l-807 -400v-991zM295 379v489q33 20 86 49t131 66q78 39 130 60.5 t79 29.5v-280zM346 1530l346 -113l-168 258h-178v-145zM358 475l336 328v178q-29 -10 -60.5 -25.5t-70.5 -33.5q-70 -35 -120 -61.5t-85 -47.5v-338z" />
<glyph unicode="&#xc1;" horiz-adv-x="1052" d="M76 -27h12l37 -36h233v149l336 293v-391h13l36 -37h230v1429l-37 37v17l-860 -426v-1035zM102 0v991l807 400v-1377h-188v500l-426 -373v-141h-193zM256 1366l20 6l39 -37l414 135v183l-37 37v12h-219zM295 379l426 414v280q-27 -8 -79 -29.5t-130 -60.5 q-78 -37 -131 -65.5t-86 -49.5v-489zM319 1417l168 258h179v-145zM358 475v338q35 20 85 47t120 62q39 18 71 33.5t60 25.5v-178z" />
<glyph unicode="&#xc2;" horiz-adv-x="1052" d="M76 -27h12l37 -36h233v149l336 293v-391h13l36 -37h230v1429l-37 37v17l-94 -48l-172 267l-21 18l-18 31h-213l-217 -334l20 6l39 -37l307 99l226 -74l-717 -354v-1035zM102 0v991l807 400v-1377h-188v500l-426 -373v-141h-193zM264 1417l168 258h184l168 -258l-260 84z M295 379l426 414v280q-27 -8 -79 -29.5t-130 -60.5q-78 -37 -131 -65.5t-86 -49.5v-489zM358 475v338q35 20 85 47t120 62q39 18 71 33.5t60 25.5v-178z" />
<glyph unicode="&#xc3;" horiz-adv-x="1107" d="M39 1356l217 334h197l252 -80l323 104l-12 -18l39 -37l-170 -262l71 37v-17l37 -37v-1429h-229l-37 37h-12v391l-336 -293v-149h-234l-36 36h-13v1035l678 335h-117l-251 80l-308 -98l-39 37zM102 1405l260 84l259 -82h176l168 258l-260 -84l-261 82h-174zM123 0h192v141 l426 373v-500h189v1377l-807 -400v-991zM315 379v489q33 20 86.5 49t130.5 66q78 39 130.5 60.5t78.5 29.5v-280zM379 475l336 328v178q-29 -10 -60.5 -25.5t-70.5 -33.5q-70 -35 -120 -61.5t-85 -47.5v-338z" />
<glyph unicode="&#xc4;" horiz-adv-x="1052" d="M76 -27v1035l647 319l-27 31l-4 -4l-178 178l178 178l178 -178l-4 -4l39 -39l-141 -141l172 86v-17l37 -37v-1429h-230l-36 37h-13v391l-336 -293v-149h-233l-37 36h-12zM102 0h193v141l426 373v-500h188v1377l-807 -400v-991zM131 1536l178 178l178 -178l-4 -4l39 -39 l-170 -170l-39 39l-4 -4zM168 1536l141 -141l142 141l-142 141zM295 379v489q33 20 86 49t131 66q78 39 130 60.5t79 29.5v-280zM358 475l336 328v178q-29 -10 -60.5 -25.5t-70.5 -33.5q-70 -35 -120 -61.5t-85 -47.5v-338zM551 1532l141 -141l142 141l-142 141z" />
<glyph unicode="&#xc5;" horiz-adv-x="1052" d="M76 -27v1035l860 426v-17l37 -37v-1429h-230l-36 37h-13v391l-336 -293v-149h-233l-37 36h-12zM102 0h193v141l426 373v-500h188v1377l-807 -400v-991zM295 379v489q33 20 86 49t131 66q78 39 130 60.5t79 29.5v-280zM336 1532l178 178l178 -178l-4 -4l39 -39l-170 -170 l-39 39l-4 -4zM358 475l336 328v178q-29 -10 -60.5 -25.5t-70.5 -33.5q-70 -35 -120 -61.5t-85 -47.5v-338zM373 1532l141 -141l141 141l-141 141z" />
<glyph unicode="&#xc6;" horiz-adv-x="1716" d="M76 -41h12l37 -37h233v150l336 293v-392h13l36 -36h230v339l622 -356h41v256l-37 37v10l-237 121q-35 10 -102 53q-10 4 -17.5 9.5t-15.5 9.5l405 262l-37 37l9 6l-226 121q-35 14 -70.5 31.5t-70.5 35.5q27 14 68 37t66.5 41.5t39.5 30.5l225 121v237l-37 37v12h-49 l-577 -321v262l-37 37v16l-860 -426v-1034zM102 -14v991l807 399v-340l650 363h14v-205l-215 -115q-10 -10 -36 -27.5t-71 -43.5q-41 -23 -71.5 -41.5t-46.5 -32.5q49 -27 110.5 -58.5t114.5 -54.5l192 -102l-417 -270q18 -14 45.5 -33t66.5 -41q74 -47 109 -58l219 -110 v-223h-14l-650 372v-356h-188v500l-426 -373v-141h-193zM295 365l426 413v281q-27 -8 -79 -29.5t-130 -60.5q-78 -37 -131 -66t-86 -49v-489zM358 461v338q35 20 85 46.5t120 61.5q39 18 71 33.5t60 26.5v-179zM909 567l219 131q-41 53 -194 133l-25 13v-277zM973 637v129 q31 -16 58.5 -30.5t47.5 -28.5q2 0 2 -2h2z" />
<glyph unicode="&#xc7;" horiz-adv-x="1218" d="M76 637v43l854 696l71 -71q10 -10 35 -45l4 -3q14 -14 40 -50t65 -93l-598 -483l565 -488l-1 -2t-3 -4l39 -37q-6 -8 -17.5 -23.5t-15.5 -21.5q-29 -41 -61.5 -75.5t-100.5 -71.5l-43 35l-209 172l-59 -234l-160 -160l-39 39l-4 -4l-178 178l285 310zM102 649l482 -401 l-287 -314l141 -141l142 141l65 263l266 -222q66 37 96.5 76t67.5 88l-610 529l610 493q-33 47 -55.5 79t-36.5 46l-55 55l-826 -673v-19z" />
<glyph unicode="&#xc8;" d="M55 948q8 -8 16.5 -14t18.5 -14l19 -17q68 -55 219 -133q35 -18 63.5 -33.5t50.5 -31.5h2l-368 -220v-47l24 -14l25 -25l831 -479h41v256l-36 37v10l-238 121q-33 12 -102 53q-10 4 -17.5 9.5t-15.5 9.5l405 262l-37 37l9 6l-226 121q-35 14 -70.5 31.5t-70.5 35.5 q27 14 68 37t66.5 41.5t39.5 30.5l225 121v237l-36 37v12h-50l-139 -77l-194 305l-21 20l-18 29h-220v-193l15 -6l35 -33l393 -129zM102 455v14l387 229q-41 53 -194 133q-76 39 -124 67t-69 44l818 457h14v-205l-215 -115q-10 -10 -36 -27.5t-71 -43.5q-41 -23 -71.5 -41.5 t-46.5 -32.5q49 -27 110.5 -58.5t114.5 -54.5l192 -102l-417 -270q18 -14 45.5 -33t66.5 -41q78 -49 109 -58l219 -110v-223h-14zM346 1530v145h178l168 -258z" />
<glyph unicode="&#xc9;" d="M55 948l856 477h50v-12l36 -37v-237l-225 -121q-14 -12 -39.5 -30.5t-66.5 -41t-68 -37.5q35 -18 71 -35.5t70 -31.5l226 -121l-9 -6l37 -37l-405 -262q8 -4 15 -9.5t18 -9.5q70 -41 102 -53l238 -121v-10l36 -37v-256h-41l-831 479l-25 25l-24 14v47l368 220h-2 q-23 16 -51.5 31.5t-62.5 33.5q-152 78 -219 133l-19 17q-10 8 -18.5 14t-16.5 14zM102 455l818 -471h14v223l-219 110q-31 8 -109 58q-39 23 -66.5 41t-45.5 33l417 270l-192 102q-53 23 -114.5 54.5t-110.5 58.5q16 14 46.5 32.5t71.5 41.5q45 27 71 44t36 27l215 115v205 h-14l-818 -457q20 -16 68.5 -44t124.5 -67q154 -80 194 -133l-387 -229v-14zM281 1366l217 336h219v-12l37 -37v-183l-414 -135l-39 37zM344 1417l346 113v145h-178z" />
<glyph unicode="&#xca;" d="M55 948q8 -8 16.5 -14t18.5 -14l19 -17q68 -55 219 -133q35 -18 63.5 -33.5t50.5 -31.5h2l-368 -220v-47l24 -14l25 -25l831 -479h41v256l-36 37v10l-238 121q-35 10 -102 53q-10 4 -17.5 9.5t-15.5 9.5l405 262l-37 37l9 6l-226 121q-35 14 -70.5 31.5t-70.5 35.5 q27 14 68 37t66.5 41.5t39.5 30.5l225 121v237l-36 37v12h-50l-34 -18l-150 233l-20 21l-19 29h-213l-217 -334l21 6l38 -37l308 98l178 -59zM102 455v14l387 229q-41 53 -194 133q-76 39 -124 67t-69 44l818 457h14v-205l-215 -115q-10 -10 -36 -27.5t-71 -43.5 q-41 -23 -71.5 -41.5t-46.5 -32.5q49 -27 110.5 -58.5t114.5 -54.5l192 -102l-417 -270q18 -14 45.5 -33t66.5 -41q74 -47 109 -58l219 -110v-223h-14zM322 1405l167 258h185l168 -258l-260 84z" />
<glyph unicode="&#xcb;" d="M55 948l699 389l-15 17l-4 -4l-139 137l-168 -168l-39 39l-4 -4l-178 178l178 178l176 -178l174 174l178 -178l-4 -4l39 -39l-88 -88l51 28h50v-12l36 -37v-237l-225 -121q-14 -12 -39.5 -30.5t-66.5 -41t-68 -37.5q35 -18 71 -35.5t70 -31.5l226 -121l-9 -6l37 -37 l-405 -262q8 -4 15 -9.5t18 -9.5q68 -43 102 -53l238 -121v-10l36 -37v-256h-41l-831 479l-25 25l-24 14v47l368 220h-2q-23 16 -51.5 31.5t-62.5 33.5q-152 78 -219 133l-19 17q-10 8 -18.5 14t-16.5 14zM102 455l818 -471h14v223l-219 110q-35 10 -109 58q-39 23 -66.5 41 t-45.5 33l417 270l-192 102q-53 23 -114.5 54.5t-110.5 58.5q16 14 46.5 32.5t71.5 41.5q45 27 71 44t36 27l215 115v205h-14l-818 -457q20 -16 68.5 -44t124.5 -67q154 -80 194 -133l-387 -229v-14zM244 1532l141 -141l141 141l-141 141zM594 1528l141 -142l142 142 l-142 141z" />
<glyph unicode="&#xcc;" horiz-adv-x="1257" d="M41 918q41 0 77 27.5t95 82.5q10 10 20.5 19.5t20.5 19.5q20 20 40.5 39.5t43.5 40.5q16 14 29.5 28.5t29.5 28.5l68 62q66 63 105.5 98t50.5 39l528 -529q-2 -2 -2 -4l-2 -2l39 -37q-23 -35 -61 -71.5t-60 -54.5h-2l-29 -29l-41 37l-2 -2l-213 202v-450l211 184l48 -48 t55 -56q6 -6 13 -13.5t15 -17.5q8 -8 16.5 -17.5t12.5 -13.5l-4 -4q6 -6 12 -13t12 -13l15 -13q-4 -4 -42 -40t-98 -93q-33 -31 -64.5 -60.5t-62.5 -58.5q-33 -29 -63.5 -59.5t-60.5 -58.5q-66 -61 -104 -95t-48 -39l-39 39l-4 -4l-528 529q20 29 55 63.5t59 59.5l19 18v-2 l14 14l7 7t5 4l265 -254v469l-220 -187q-10 6 -20 16.5t-21 20.5l-2 -2q-20 18 -56 55t-62 66q-4 4 -12.5 12t-18.5 18.5t-22.5 23.5t-16.5 18zM102 500l498 -498q8 4 133 123q63 59 126 118.5t126 118.5q119 113 125 119q-29 31 -63.5 69t-59.5 60l-274 -235v637l276 -264 q4 4 20.5 19t37 33.5t39 38t28.5 33.5l-498 498q-8 -4 -133 -123q-63 -59 -125.5 -118.5t-126.5 -118.5q-125 -119 -127 -119q29 -31 65 -69t60 -60l289 248v-650h-14l-277 265q-4 -4 -21.5 -19.5t-36.5 -34t-38.5 -38t-28.5 -33.5zM113 850l9 -9t9 -10q-12 12 -16 19h-2z M424 1516v192h219l19 -29l20 -20l205 -318l-414 136l-35 32zM451 1536l346 -113l-168 258h-178v-145z" />
<glyph unicode="&#xcd;" horiz-adv-x="1257" d="M68 874q12 -16 29.5 -36.5t36 -39t36.5 -36t33 -27.5l24 -24l2 2q2 -4 11 -8v2l30 -31l207 196v-440l-248 215q-16 -16 -47.5 -48t-54.5 -56l-13.5 -13.5t-15.5 -17.5q-8 -8 -16 -17.5t-12 -13.5q2 -2 23.5 -22.5t43.5 -42.5q16 -14 34.5 -31.5t41.5 -40.5 q59 -61 125 -119q31 -29 62.5 -59.5t64.5 -59.5q63 -59 97 -91.5t44 -37.5q41 -35 45 -36l23 4l510 510q-8 10 -17.5 22t-21.5 25q-20 29 -54 61.5t-57 57.5l-18 18v-2l-15 14l-7 7t-5 4l-227 -220v476l225 -193l43 -35q20 18 54 53t61 64l11 11t18.5 19.5t17.5 18.5l12 12 l-39 39l11 11q-41 0 -77 27.5t-95 82.5q-33 29 -65 59.5t-62 59.5q-66 57 -125 119q-61 59 -100.5 92t-53.5 43l231 76v182l-36 37v12h-220l-217 -336l21 6l39 -37l176 58zM102 872l498 498q8 -4 133 -123q63 -59 126 -118.5t126 -118.5q125 -119 127 -119 q-29 -31 -64.5 -69t-60.5 -60l-289 248v-650h15l276 265q4 -4 21.5 -19.5t37 -34t39 -38t27.5 -33.5l-498 -498q-8 4 -133 123q-63 59 -125.5 118.5t-126.5 118.5q-59 57 -90.5 86t-34.5 33q29 31 64 69t59 60l275 -235v637l-277 -264q-4 4 -20.5 19t-36.5 33.5t-38.5 38 t-29.5 33.5zM145 795l37 -37q-10 6 -20 18q-12 12 -17 19zM420 1423l168 258h178v-145z" />
<glyph unicode="&#xce;" horiz-adv-x="1257" d="M41 918q4 -4 16.5 -17.5t22.5 -24t18 -18.5t13 -12q27 -29 62.5 -66t55.5 -55l2 2l20.5 -20.5t20.5 -16.5l220 187v-469l-265 254q-4 -2 -5 -3.5t-7 -7.5l-14 -14q-12 -12 -30.5 -28.5t-37 -34t-34 -34t-21.5 -26.5l4 -31l514 -514l4 4l39 -39q10 4 48 38t104 96 q31 29 61.5 59.5t62.5 58.5q31 29 63 58.5t64 60.5q59 57 97.5 93t42.5 40q-4 2 -7.5 5t-7.5 8q-6 6 -12 13t-12 13l4 4q-4 4 -12.5 13.5t-16.5 17.5q-8 10 -15 17.5t-13 13.5q-23 25 -54.5 56.5t-48.5 47.5l-211 -184v450l213 -202l2 2l41 -37l29 29h2q23 18 60.5 55 t60.5 71l-39 37l2 2q0 2 2 4l-528 527l30 10l307 -98l-204 315l-21 19l-18 30h-213l-217 -334l20 7l39 -37l270 86q-16 -10 -53 -44t-96 -89l-68 -62q-16 -14 -29.5 -28.5t-29.5 -28.5q-23 -20 -43.5 -40t-40.5 -40q-10 -10 -20.5 -19.5t-20.5 -19.5q-59 -55 -95 -82.5 t-77 -27.5zM102 500q8 14 28 33.5t39 38t36.5 34t21.5 19.5l277 -265h14v650l-289 -248q-25 23 -60.5 60.5t-64.5 68.5q2 0 127 119q63 59 126 118.5t126 118.5q125 119 133 123l498 -498q-10 -14 -28.5 -33.5t-39 -38t-37 -33.5t-20.5 -19l-276 264v-637l274 235 q25 -23 59.5 -60.5t63.5 -68.5q-6 -6 -125 -119q-63 -59 -125.5 -118.5t-126.5 -118.5q-125 -119 -133 -123zM113 850h2q4 -6 16 -19q-4 4 -9 9.5t-9 9.5zM348 1393l168 258h184l168 -258l-260 84zM614 1399l2 2q-2 0 -2 -2z" />
<glyph unicode="&#xcf;" horiz-adv-x="1257" d="M41 918q4 -4 16.5 -17.5t22.5 -24t18 -18.5t13 -12q27 -29 62.5 -66t55.5 -55l2 2l20.5 -20.5t20.5 -16.5l220 187v-469l-265 254q-4 -2 -5 -3.5t-7 -7.5l-14 -14v2l-19 -18q-25 -25 -59.5 -60t-54.5 -63l524 -527l2 2q2 0 4 2l39 -38q18 6 53 37.5t101 93.5 q31 29 61.5 59.5t62.5 58.5q31 29 63 58.5t64 60.5q59 57 97.5 93t42.5 40l-15 13q-6 6 -12 13t-12 13l4 4q-4 4 -12.5 13.5t-16.5 17.5q-8 10 -15 17.5t-13 13.5q-23 25 -54.5 56.5t-48.5 47.5l-211 -184v450l213 -202l2 2l41 -37l29 29h2q23 18 60.5 55t60.5 71l-39 37 l2 2q0 2 2 4l-526 525q-20 -6 -56.5 -38t-101.5 -95l-68 -62q-16 -14 -29.5 -28.5t-29.5 -28.5q-23 -20 -43.5 -40t-40.5 -40q-10 -10 -20.5 -19.5t-20.5 -19.5q-59 -55 -95 -82.5t-77 -27.5zM102 500q8 14 28 33.5t39 38t36.5 34t21.5 19.5l277 -265h14v650l-289 -248 q-25 23 -60.5 60.5t-64.5 68.5q2 0 127 119q63 59 126 118.5t126 118.5q127 121 133 123l498 -498q-10 -14 -28.5 -33.5t-39 -38t-37 -33.5t-20.5 -19l-276 264v-637l274 235q25 -23 59.5 -60.5t63.5 -68.5q-6 -6 -125 -119q-63 -59 -125.5 -118.5t-126.5 -118.5 q-127 -121 -133 -123zM113 850h2q4 -6 16 -19q-4 4 -9 9.5t-9 9.5zM238 1538l178 -178l4 4l39 -39l170 170l-39 39l4 4l-178 178zM274 1538l142 141l141 -141l-141 -141zM621 1534l178 -178l4 4l39 -39l170 170l-39 39l4 4l-178 178zM657 1534l142 141l141 -141l-141 -141z " />
<glyph unicode="&#xd0;" horiz-adv-x="1427" d="M76 692l14 -6l35 -33l160 -55v-637h12l37 -37h168l846 672v39l-37 37v8l-764 623v4l-37 36v13h-225v-477q-147 53 -185 53l-24 -25v-215zM102 711v194q35 0 209 -65v489h172v-8l801 -653v-19l-831 -661h-142v649zM483 287l439 381l-439 354v-250l160 -61q-2 -2 -8 -78 q-6 -70 -25 -101l-127 43v-288zM547 375v129l106 -37zM547 776v160l332 -270l-203 -179q10 20 14 46t8 55q4 35 7.5 54.5t17.5 33.5l-39 39l6 6z" />
<glyph unicode="&#xd1;" horiz-adv-x="1107" d="M39 1356l217 334h197l252 -80l323 104l-12 -18l39 -37l-205 -316h-193l-251 80l-216 -69l771 -365v-10l36 -37v-1024h-233l-37 37h-12v868q-33 16 -71 37t-85 43q-59 29 -105 49.5t-75 30.5v-1051h-234l-36 37h-13v1358l-37 35zM102 1405l260 84l259 -82h176l168 258 l-260 -84l-261 82h-174zM123 -4h192v1059q27 -8 79 -29.5t130 -60.5q78 -37 131.5 -66t85.5 -49v-868h193v991l-811 385v-1362z" />
<glyph unicode="&#xd2;" horiz-adv-x="1476" d="M76 633v39l653 708l631 -704v-4l37 -41v-35l-639 -707l-39 39l-4 -4zM102 643l613 -680l618 684v19l-604 675l-627 -679v-19zM377 662l342 368l340 -364l-344 -394zM449 618l266 -305l307 353l-266 284zM524 1518v192h219l19 -29l20 -20l205 -318l-414 136l-34 32z M551 1538l346 -113l-168 258h-178v-145z" />
<glyph unicode="&#xd3;" horiz-adv-x="1476" d="M76 637l645 -713l4 4l39 -39l633 703v35l-37 39v6l-653 708l-631 -704v-39zM102 647v19l605 675l626 -679v-19l-612 -680zM377 666l344 -394l338 390l-342 368zM449 623l305 327l268 -288l-301 -349zM475 1374l21 6l39 -37l413 136v182l-37 37v12h-219zM539 1425l168 258 h178v-145z" />
<glyph unicode="&#xd4;" horiz-adv-x="1476" d="M76 633l639 -709l4 4l39 -39l639 707v35l-37 41v4l-631 704l-653 -708v-39zM102 643v19l627 679l604 -675v-19l-618 -684zM377 662l338 -390l344 394l-340 364zM389 1333l21 6l39 -36l307 98l307 -98l-205 315l-20 18l-19 31h-213zM449 618l307 332l266 -284l-307 -353z M453 1382l168 258h184l168 -258l-260 84z" />
<glyph unicode="&#xd5;" horiz-adv-x="1476" d="M76 633v39l639 694l-119 39l-307 -98l-39 36l-21 -6l217 334h197l252 -80l324 105l-13 -19l39 -37l-205 -315h-192l-96 31l608 -680v-4l37 -41v-35l-639 -707l-39 39l-4 -4zM102 643l613 -680l618 684v19l-604 675l-627 -679v-19zM293 1386l260 84l258 -81h176l168 258 l-260 -84l-260 82h-174zM377 662l342 368l340 -364l-344 -394zM449 618l266 -305l307 353l-266 284z" />
<glyph unicode="&#xd6;" horiz-adv-x="1476" d="M76 633l639 -709l4 4l39 -39l639 707v35l-37 41v4l-631 704l-653 -708v-39zM102 643v19l627 679l604 -675v-19l-618 -684zM334 1536l178 -178l4 4l39 -39l170 170l-39 39l4 4l-178 178zM371 1536l141 141l141 -141l-141 -141zM377 662l338 -390l344 394l-340 364z M449 618l307 332l266 -284l-307 -353zM717 1532l178 -178l4 4l39 -39l170 170l-39 39l4 4l-178 178zM754 1532l141 141l141 -141l-141 -141z" />
<glyph unicode="&#xd7;" horiz-adv-x="1157" d="M70 225l342 375l-338 358q51 31 127 54v-2q29 10 52 16t52 10l258 -286l279 284l205 -82l-7 -6l39 -39l-340 -356l318 -354q-2 0 -2 -2h-2l37 -39l-27 -12q-27 -11 -43 -15q-20 -6 -44 -14.5t-50 -24.5h-60l-37 37h-8l-229 260l-287 -299l-35 8q-47 12 -74.5 22.5 t-50.5 33.5l-12 12q-35 16 -63 61zM102 223q18 -29 51 -40t103 -29l289 301h26l263 -301h43q14 8 34.5 16t41 14t37 11.5t24.5 9.5l-346 387l333 350l-153 59l-277 -282h-14l-262 291q-16 -2 -40 -9.5t-54 -17.5q-57 -18 -84 -33l329 -350z" />
<glyph unicode="&#xd8;" horiz-adv-x="1476" d="M76 633v39l653 708l160 -178v168h239v-12l37 -37v-430l195 -215v-4l37 -41v-35l-639 -707l-39 39l-4 -4l-148 162v-149h-227l-37 36h-12v420zM102 643l215 -240v-403h187v197l211 -234l618 684v19l-231 258v419h-187v-210l-186 208l-627 -679v-19zM377 662l342 368 l123 -131q-20 -20 -46 -42.5t-57 -49.5l-284 -236zM449 621l10 -13l264 219q23 18 43 37t39 35l-49 53zM575 432l396 328l88 -94l-344 -394zM649 389l66 -76l307 353l-16 16z" />
<glyph unicode="&#xd9;" horiz-adv-x="1056" d="M76 350v1034h246v-12l36 -37v-852q35 -18 76 -39.5t88 -44.5q53 -27 96.5 -45t75.5 -30v1032l-344 112l-35 33l-14 6v193h219l19 -29l20 -20l180 -281h201v-12l37 -37v-1415l-852 405l-31 29zM102 367l811 -385v1361h-192v-1058q-27 8 -79 29.5t-130 60.5 q-78 37 -131 65.5t-86 48.5v869h-193v-991zM328 1528l346 -113l-168 258h-178v-145z" />
<glyph unicode="&#xda;" horiz-adv-x="1056" d="M76 350l18 -10l31 -29l852 -405v1415l-37 37v12h-246v-1046q-33 12 -76 30.5t-96 44.5q-47 23 -88 44.5t-76 39.5v852l-4 2l398 131v183l-37 37v12h-219l-205 -316h-215v-1034zM102 367v991h193v-869q33 -20 86 -48.5t131 -65.5q78 -39 130 -60.5t79 -29.5v1058h192 v-1361zM342 1415l168 258h178v-145z" />
<glyph unicode="&#xdb;" horiz-adv-x="1056" d="M76 350v1034h102l207 318h213l18 -29l21 -20l182 -283h121v-12l37 -37v-1415l-852 405l-31 29zM102 367l811 -385v1361h-192v-1058q-27 8 -79 29.5t-130 60.5q-78 37 -131 65.5t-86 48.5v869h-193v-991zM231 1417l261 84l260 -84l-168 258h-185zM324 1368l34 -33v-852 q35 -18 76 -39.5t88 -44.5q53 -27 96.5 -45t75.5 -30v1046h43l-202 66z" />
<glyph unicode="&#xdc;" horiz-adv-x="1056" d="M76 350l18 -10l31 -29l852 -405v1415l-37 37v12h-184l164 164l-39 39l4 4l-178 178l-179 -178l179 -178l4 4l32 -33h-49v-1046q-33 12 -76 30.5t-96 44.5q-47 23 -88 44.5t-76 39.5v852l-36 37v12h-246v-1034zM102 367v991h193v-869q33 -20 86 -48.5t131 -65.5 q78 -39 130 -60.5t79 -29.5v1058h192v-1361zM145 1573l179 -178l4 4l39 -39l170 170l-39 39l4 4l-178 178zM182 1573l142 141l141 -141l-141 -141zM565 1577l142 141l141 -141l-141 -141z" />
<glyph unicode="&#xdd;" horiz-adv-x="1277" d="M61 1155l441 -498v-690h12l37 -37h221v695q0 10 82 98q88 94 213 219q59 59 90 88t41 29q0 49 -43 92l-10 8q-12 27 -37 47q-23 20 -45.5 37t-52.5 37l-238 -217v299l-37 37v12h-123l228 74v182l-37 37v12h-219l-217 -336l20 6l39 -36l76 24v-366l-275 288 q-35 -35 -75.5 -72.5t-90.5 -68.5zM102 1149q29 18 63 50t62 61l275 -289h26v413h181v-399h14l289 262q16 -10 35.5 -25.5t42.5 -35.5q45 -39 45 -64q-2 0 -125 -123q-125 -125 -213 -219t-88 -112v-674h-181v674zM430 1432l168 258h178v-146z" />
<glyph unicode="&#xde;" horiz-adv-x="1034" d="M76 -35v1395h239v-12l37 -37v-320l598 -327l-10 -7l39 -36l-627 -310v-379h-4v-4h-223l-37 37h-12zM102 -8h183v4h4v371l602 297l-602 331v338h-187v-1341zM293 571v211l199 -110zM356 633l66 33l-66 36v-69z" />
<glyph unicode="&#xdf;" horiz-adv-x="1351" d="M76 -217v1644h205l915 -436l51 -51l-4 -4l39 -39q-59 -49 -213 -127q-55 -29 -79.5 -51.5t-39.5 -42.5l285 -195v-8l37 -37v-37l-783 -477h-40l-37 37h-13v266l238 121q33 12 102 53q20 12 39 23.5t35 21.5l-360 236l-17 16l-41 27l226 121q39 16 83 37.5t84 44.5 l-450 207v-1387h-213l-37 37h-12zM102 -190h172v1398l592 -272q-49 -27 -110.5 -58.5t-114.5 -54.5l-192 -102l417 -270q-18 -14 -45.5 -33t-66.5 -41q-78 -49 -109 -58l-219 -110v-223h14l768 469v14l-338 231q10 12 19.5 26.5t25 31t39 35t62.5 38.5q76 39 124 67t68 44 l-26 27l-908 432h-172v-1591z" />
<glyph unicode="&#xe0;" horiz-adv-x="1052" d="M76 -27v1035l680 335l-387 127l-35 33l-15 6v193h220l18 -29l21 -20l192 -301l166 82v-17l37 -37v-1429h-230l-36 37h-13v391l-336 -293v-149h-233l-37 36h-12zM102 0h193v141l426 373v-500h188v1377l-807 -400v-991zM295 379v489q33 20 86 49t131 66q78 39 130 60.5 t79 29.5v-280zM346 1530l346 -113l-168 258h-178v-145zM358 475l336 328v178q-29 -10 -60.5 -25.5t-70.5 -33.5q-70 -35 -120 -61.5t-85 -47.5v-338z" />
<glyph unicode="&#xe1;" horiz-adv-x="1052" d="M76 -27h12l37 -36h233v149l336 293v-391h13l36 -37h230v1429l-37 37v17l-860 -426v-1035zM102 0v991l807 400v-1377h-188v500l-426 -373v-141h-193zM256 1366l20 6l39 -37l414 135v183l-37 37v12h-219zM295 379l426 414v280q-27 -8 -79 -29.5t-130 -60.5 q-78 -37 -131 -65.5t-86 -49.5v-489zM319 1417l168 258h179v-145zM358 475v338q35 20 85 47t120 62q39 18 71 33.5t60 25.5v-178z" />
<glyph unicode="&#xe2;" horiz-adv-x="1052" d="M76 -27h12l37 -36h233v149l336 293v-391h13l36 -37h230v1429l-37 37v17l-94 -48l-172 267l-21 18l-18 31h-213l-217 -334l20 6l39 -37l307 99l226 -74l-717 -354v-1035zM102 0v991l807 400v-1377h-188v500l-426 -373v-141h-193zM264 1417l168 258h184l168 -258l-260 84z M295 379l426 414v280q-27 -8 -79 -29.5t-130 -60.5q-78 -37 -131 -65.5t-86 -49.5v-489zM358 475v338q35 20 85 47t120 62q39 18 71 33.5t60 25.5v-178z" />
<glyph unicode="&#xe3;" horiz-adv-x="1107" d="M39 1356l217 334h197l252 -80l323 104l-12 -18l39 -37l-170 -262l71 37v-17l37 -37v-1429h-229l-37 37h-12v391l-336 -293v-149h-234l-36 36h-13v1035l678 335h-117l-251 80l-308 -98l-39 37zM102 1405l260 84l259 -82h176l168 258l-260 -84l-261 82h-174zM123 0h192v141 l426 373v-500h189v1377l-807 -400v-991zM315 379v489q33 20 86.5 49t130.5 66q78 39 130.5 60.5t78.5 29.5v-280zM379 475l336 328v178q-29 -10 -60.5 -25.5t-70.5 -33.5q-70 -35 -120 -61.5t-85 -47.5v-338z" />
<glyph unicode="&#xe4;" horiz-adv-x="1052" d="M76 -27v1035l647 319l-27 31l-4 -4l-178 178l178 178l178 -178l-4 -4l39 -39l-141 -141l172 86v-17l37 -37v-1429h-230l-36 37h-13v391l-336 -293v-149h-233l-37 36h-12zM102 0h193v141l426 373v-500h188v1377l-807 -400v-991zM131 1536l178 178l178 -178l-4 -4l39 -39 l-170 -170l-39 39l-4 -4zM168 1536l141 -141l142 141l-142 141zM295 379v489q33 20 86 49t131 66q78 39 130 60.5t79 29.5v-280zM358 475l336 328v178q-29 -10 -60.5 -25.5t-70.5 -33.5q-70 -35 -120 -61.5t-85 -47.5v-338zM551 1532l141 -141l142 141l-142 141z" />
<glyph unicode="&#xe5;" horiz-adv-x="1052" d="M76 -27v1035l860 426v-17l37 -37v-1429h-230l-36 37h-13v391l-336 -293v-149h-233l-37 36h-12zM102 0h193v141l426 373v-500h188v1377l-807 -400v-991zM295 379v489q33 20 86 49t131 66q78 39 130 60.5t79 29.5v-280zM336 1532l178 178l178 -178l-4 -4l39 -39l-170 -170 l-39 39l-4 -4zM358 475l336 328v178q-29 -10 -60.5 -25.5t-70.5 -33.5q-70 -35 -120 -61.5t-85 -47.5v-338zM373 1532l141 -141l141 141l-141 141z" />
<glyph unicode="&#xe6;" horiz-adv-x="1716" d="M76 -41h12l37 -37h233v150l336 293v-392h13l36 -36h230v339l622 -356h41v256l-37 37v10l-237 121q-35 10 -102 53q-10 4 -17.5 9.5t-15.5 9.5l405 262l-37 37l9 6l-226 121q-35 14 -70.5 31.5t-70.5 35.5q27 14 68 37t66.5 41.5t39.5 30.5l225 121v237l-37 37v12h-49 l-577 -321v262l-37 37v16l-860 -426v-1034zM102 -14v991l807 399v-340l650 363h14v-205l-215 -115q-10 -10 -36 -27.5t-71 -43.5q-41 -23 -71.5 -41.5t-46.5 -32.5q49 -27 110.5 -58.5t114.5 -54.5l192 -102l-417 -270q18 -14 45.5 -33t66.5 -41q74 -47 109 -58l219 -110 v-223h-14l-650 372v-356h-188v500l-426 -373v-141h-193zM295 365l426 413v281q-27 -8 -79 -29.5t-130 -60.5q-78 -37 -131 -66t-86 -49v-489zM358 461v338q35 20 85 46.5t120 61.5q39 18 71 33.5t60 26.5v-179zM909 567l219 131q-41 53 -194 133l-25 13v-277zM973 637v129 q31 -16 58.5 -30.5t47.5 -28.5q2 0 2 -2h2z" />
<glyph unicode="&#xe7;" horiz-adv-x="1218" d="M76 637v43l854 696l71 -71q10 -10 35 -45l4 -3q14 -14 40 -50t65 -93l-598 -483l565 -488l-1 -2t-3 -4l39 -37q-6 -8 -17.5 -23.5t-15.5 -21.5q-29 -41 -61.5 -75.5t-100.5 -71.5l-43 35l-209 172l-59 -234l-160 -160l-39 39l-4 -4l-178 178l285 310zM102 649l482 -401 l-287 -314l141 -141l142 141l65 263l266 -222q66 37 96.5 76t67.5 88l-610 529l610 493q-33 47 -55.5 79t-36.5 46l-55 55l-826 -673v-19z" />
<glyph unicode="&#xe8;" d="M55 948q8 -8 16.5 -14t18.5 -14l19 -17q68 -55 219 -133q35 -18 63.5 -33.5t50.5 -31.5h2l-368 -220v-47l24 -14l25 -25l831 -479h41v256l-36 37v10l-238 121q-33 12 -102 53q-10 4 -17.5 9.5t-15.5 9.5l405 262l-37 37l9 6l-226 121q-35 14 -70.5 31.5t-70.5 35.5 q27 14 68 37t66.5 41.5t39.5 30.5l225 121v237l-36 37v12h-50l-139 -77l-194 305l-21 20l-18 29h-220v-193l15 -6l35 -33l393 -129zM102 455v14l387 229q-41 53 -194 133q-76 39 -124 67t-69 44l818 457h14v-205l-215 -115q-10 -10 -36 -27.5t-71 -43.5q-41 -23 -71.5 -41.5 t-46.5 -32.5q49 -27 110.5 -58.5t114.5 -54.5l192 -102l-417 -270q18 -14 45.5 -33t66.5 -41q78 -49 109 -58l219 -110v-223h-14zM346 1530v145h178l168 -258z" />
<glyph unicode="&#xe9;" d="M55 948l856 477h50v-12l36 -37v-237l-225 -121q-14 -12 -39.5 -30.5t-66.5 -41t-68 -37.5q35 -18 71 -35.5t70 -31.5l226 -121l-9 -6l37 -37l-405 -262q8 -4 15 -9.5t18 -9.5q70 -41 102 -53l238 -121v-10l36 -37v-256h-41l-831 479l-25 25l-24 14v47l368 220h-2 q-23 16 -51.5 31.5t-62.5 33.5q-152 78 -219 133l-19 17q-10 8 -18.5 14t-16.5 14zM102 455l818 -471h14v223l-219 110q-31 8 -109 58q-39 23 -66.5 41t-45.5 33l417 270l-192 102q-53 23 -114.5 54.5t-110.5 58.5q16 14 46.5 32.5t71.5 41.5q45 27 71 44t36 27l215 115v205 h-14l-818 -457q20 -16 68.5 -44t124.5 -67q154 -80 194 -133l-387 -229v-14zM281 1366l217 336h219v-12l37 -37v-183l-414 -135l-39 37zM344 1417l346 113v145h-178z" />
<glyph unicode="&#xea;" d="M55 948q8 -8 16.5 -14t18.5 -14l19 -17q68 -55 219 -133q35 -18 63.5 -33.5t50.5 -31.5h2l-368 -220v-47l24 -14l25 -25l831 -479h41v256l-36 37v10l-238 121q-35 10 -102 53q-10 4 -17.5 9.5t-15.5 9.5l405 262l-37 37l9 6l-226 121q-35 14 -70.5 31.5t-70.5 35.5 q27 14 68 37t66.5 41.5t39.5 30.5l225 121v237l-36 37v12h-50l-34 -18l-150 233l-20 21l-19 29h-213l-217 -334l21 6l38 -37l308 98l178 -59zM102 455v14l387 229q-41 53 -194 133q-76 39 -124 67t-69 44l818 457h14v-205l-215 -115q-10 -10 -36 -27.5t-71 -43.5 q-41 -23 -71.5 -41.5t-46.5 -32.5q49 -27 110.5 -58.5t114.5 -54.5l192 -102l-417 -270q18 -14 45.5 -33t66.5 -41q74 -47 109 -58l219 -110v-223h-14zM322 1405l167 258h185l168 -258l-260 84z" />
<glyph unicode="&#xeb;" d="M55 948l699 389l-15 17l-4 -4l-139 137l-168 -168l-39 39l-4 -4l-178 178l178 178l176 -178l174 174l178 -178l-4 -4l39 -39l-88 -88l51 28h50v-12l36 -37v-237l-225 -121q-14 -12 -39.5 -30.5t-66.5 -41t-68 -37.5q35 -18 71 -35.5t70 -31.5l226 -121l-9 -6l37 -37 l-405 -262q8 -4 15 -9.5t18 -9.5q68 -43 102 -53l238 -121v-10l36 -37v-256h-41l-831 479l-25 25l-24 14v47l368 220h-2q-23 16 -51.5 31.5t-62.5 33.5q-152 78 -219 133l-19 17q-10 8 -18.5 14t-16.5 14zM102 455l818 -471h14v223l-219 110q-35 10 -109 58q-39 23 -66.5 41 t-45.5 33l417 270l-192 102q-53 23 -114.5 54.5t-110.5 58.5q16 14 46.5 32.5t71.5 41.5q45 27 71 44t36 27l215 115v205h-14l-818 -457q20 -16 68.5 -44t124.5 -67q154 -80 194 -133l-387 -229v-14zM244 1532l141 -141l141 141l-141 141zM594 1528l141 -142l142 142 l-142 141z" />
<glyph unicode="&#xec;" horiz-adv-x="428" d="M0 1513l14 -6l35 -32l414 -136l-205 318l-20 20l-19 29h-219v-193zM27 1534v145h178l168 -258zM76 -35h12l37 -37h223v1383l-37 37v12h-235v-1395zM102 -8v1341h183v-1341h-183z" />
<glyph unicode="&#xed;" horiz-adv-x="428" d="M-39 1370l217 336h219v-12l37 -37v-182l-414 -136l-36 37zM25 1421l346 113v145h-178zM86 -35v1395h236v-12l36 -37v-1383h-223l-37 37h-12zM113 -8h182v1341h-182v-1341z" />
<glyph unicode="&#xee;" horiz-adv-x="428" d="M-121 1368l23 6l37 -37l307 99l307 -99l-205 316l-20 18l-19 31h-213zM-57 1417l168 258h184l168 -258l-260 84zM86 -35h12l37 -37h223v1383l-36 37v12h-236v-1395zM113 -8v1341h182v-1341h-182z" />
<glyph unicode="&#xef;" horiz-adv-x="428" d="M-170 1534l178 -178l4 4l39 -39l25 25v-1381h12l37 -37h223v1383l-37 37v12h-221l131 131l-39 39l4 4l-178 178zM-133 1534l141 141l142 -141l-142 -141zM102 -8v1341h183v-1341h-183zM213 1530l178 -178l4 4l39 -39l170 170l-39 39l4 4l-178 178zM250 1530l141 141 l141 -141l-141 -141z" />
<glyph unicode="&#xf0;" horiz-adv-x="1185" d="M43 420q27 12 64.5 30.5t79.5 40t85 43t80 41.5l-2 -2q4 4 9.5 5.5t9.5 3.5q6 6 12 8l41 20q18 10 36.5 18.5t35 16.5t31 15.5t30.5 15.5q33 18 61 31q12 6 26.5 13t29.5 13v66h-142l-36 37h-11l-86 221q35 14 92.5 19t141.5 5h45v301h235v-12l37 -37v-256q8 0 14.5 1 t12.5 1h59v-12l37 -37v-22l3 -14q3 -13 11 -40l7 -4q2 -2 2 -16q12 -53 12 -86q0 -10 -1 -17.5t-9 -23.5h-144v-877h-41l-811 447l-26 24zM102 420l772 -426h15v876h151q2 4 2 21q0 29 -12 82q0 2 -2 2v2q-20 68 -20 74v2h-33h-39t-51 2v301h-183v-301h-71q-166 0 -199 -13 l70 -180h196v-145q-33 -16 -99.5 -49t-166.5 -82l-37 -19q-8 -4 -15 -8t-15 -8q-76 -41 -141.5 -73t-121.5 -58zM502 412l198 100v-211zM612 381l62 -33v62z" />
<glyph unicode="&#xf1;" horiz-adv-x="1107" d="M39 1356l217 334h197l252 -80l323 104l-12 -18l39 -37l-187 -287h66v-12l37 -37v-1384h-228l-36 36h-13v256l-325 488v-780h-224l-36 36h-13v1352l-37 35zM102 1405l260 84l259 -82h176l168 258l-260 -84l-261 82h-174zM123 2h182v860l416 -620v-240h186v1344h-184v-850 l-414 671v179h-186v-1344zM244 1372h92v-12l37 -37v-193l323 -524v737h-39l-251 80z" />
<glyph unicode="&#xf2;" horiz-adv-x="1476" d="M76 633v39l653 708l631 -704v-4l37 -41v-35l-639 -707l-39 39l-4 -4zM102 643l613 -680l618 684v19l-604 675l-627 -679v-19zM377 662l342 368l340 -364l-344 -394zM449 618l266 -305l307 353l-266 284zM524 1518v192h219l19 -29l20 -20l205 -318l-414 136l-34 32z M551 1538l346 -113l-168 258h-178v-145z" />
<glyph unicode="&#xf3;" horiz-adv-x="1476" d="M76 637l645 -713l4 4l39 -39l633 703v35l-37 39v6l-653 708l-631 -704v-39zM102 647v19l605 675l626 -679v-19l-612 -680zM377 666l344 -394l338 390l-342 368zM449 623l305 327l268 -288l-301 -349zM475 1374l21 6l39 -37l413 136v182l-37 37v12h-219zM539 1425l168 258 h178v-145z" />
<glyph unicode="&#xf4;" horiz-adv-x="1476" d="M76 633l639 -709l4 4l39 -39l639 707v35l-37 41v4l-631 704l-653 -708v-39zM102 643v19l627 679l604 -675v-19l-618 -684zM377 662l338 -390l344 394l-340 364zM389 1333l21 6l39 -36l307 98l307 -98l-205 315l-20 18l-19 31h-213zM449 618l307 332l266 -284l-307 -353z M453 1382l168 258h184l168 -258l-260 84z" />
<glyph unicode="&#xf5;" horiz-adv-x="1476" d="M76 633v39l639 694l-119 39l-307 -98l-39 36l-21 -6l217 334h197l252 -80l324 105l-13 -19l39 -37l-205 -315h-192l-96 31l608 -680v-4l37 -41v-35l-639 -707l-39 39l-4 -4zM102 643l613 -680l618 684v19l-604 675l-627 -679v-19zM293 1386l260 84l258 -81h176l168 258 l-260 -84l-260 82h-174zM377 662l342 368l340 -364l-344 -394zM449 618l266 -305l307 353l-266 284z" />
<glyph unicode="&#xf6;" horiz-adv-x="1476" d="M76 633l639 -709l4 4l39 -39l639 707v35l-37 41v4l-631 704l-653 -708v-39zM102 643v19l627 679l604 -675v-19l-618 -684zM334 1536l178 -178l4 4l39 -39l170 170l-39 39l4 4l-178 178zM371 1536l141 141l141 -141l-141 -141zM377 662l338 -390l344 394l-340 364z M449 618l307 332l266 -284l-307 -353zM717 1532l178 -178l4 4l39 -39l170 170l-39 39l4 4l-178 178zM754 1532l141 141l141 -141l-141 -141z" />
<glyph unicode="&#xf7;" horiz-adv-x="1177" d="M78 637l82 -174h10l37 -37l385 -4l-160 -160l178 -178l4 4l39 -39l170 170l-39 39l4 4l-159 160l458 -6q6 18 7.5 25.5t1.5 15.5q0 16 -3 32.5t-8 38.5q-2 4 -3 9.5t-3 9.5h-2q-2 10 -3 16t-3 12q-4 18 -7 27l-3 10v23l-37 37v12q-33 0 -57.5 1t-55.5 1h-71h-107 q-10 0 -21.5 1t-21.5 1l133 133l-39 39l4 4l-178 178l-178 -178l176 -176q-78 0 -164 -2t-160.5 -4t-128 -5t-61.5 -5zM102 645q10 2 64.5 5t131.5 5t165 4.5t164 2.5h55q27 0 49 -3q135 0 201 -1l65 -1q-2 -2 21 -75q8 -35 12 -59.5t0 -43.5l-854 10zM469 262l141 141 l142 -141l-142 -141zM469 864l141 142l142 -142l-142 -141zM612 688l2 2l2 -2h-4z" />
<glyph unicode="&#xf8;" horiz-adv-x="1476" d="M76 633v39l653 708l160 -178v168h239v-12l37 -37v-430l195 -215v-4l37 -41v-35l-639 -707l-39 39l-4 -4l-148 162v-149h-227l-37 36h-12v420zM102 643l215 -240v-403h187v197l211 -234l618 684v19l-231 258v419h-187v-210l-186 208l-627 -679v-19zM377 662l342 368 l123 -131q-20 -20 -46 -42.5t-57 -49.5l-284 -236zM449 621l10 -13l264 219q23 18 43 37t39 35l-49 53zM575 432l396 328l88 -94l-344 -394zM649 389l66 -76l307 353l-16 16z" />
<glyph unicode="&#xf9;" horiz-adv-x="1056" d="M76 -61v1431h246v-12l36 -37v-983q55 20 136 61q59 29 109 56.5t91 50.5v850l-344 112l-35 33l-14 6v193h219l19 -29l20 -20l172 -267h209v-12l37 -37v-1024l-852 -405l-39 39zM102 -18l811 385v991h-192v-869q-33 -20 -86 -48.5t-131 -65.5q-78 -39 -130 -60.5 t-79 -29.5v1058h-193v-1361zM328 1528l346 -113l-168 258h-178v-145z" />
<glyph unicode="&#xfa;" horiz-adv-x="1056" d="M76 -61l10 6l39 -39l852 405v1024l-37 37v12h-246v-878q-41 -23 -91 -50.5t-109 -56.5q-80 -41 -136 -61v983l-14 14l408 133v183l-37 37v12h-219l-213 -330h-207v-1431zM102 -18v1361h193v-1058q27 8 79 29.5t130 60.5q78 37 131 65.5t86 48.5v869h192v-991zM297 1370h2 h2h-4zM342 1415l168 258h178v-145z" />
<glyph unicode="&#xfb;" horiz-adv-x="1056" d="M76 -61l10 6l39 -39l852 405v1024l-37 37v12h-96l-174 269l-21 18l-18 31h-213l-217 -332h-125v-1431zM102 -18v1361h193v-1058q27 8 79 29.5t130 60.5q78 37 131 65.5t86 48.5v869h192v-991zM207 1370l14 4l6 -4h-20zM264 1417l168 258h184l168 -258l-260 84zM322 1356 l245 80l158 -52h-31v-878q-41 -23 -91 -50.5t-109 -56.5q-80 -41 -136 -61v983z" />
<glyph unicode="&#xfc;" horiz-adv-x="1056" d="M76 -61v1431h246v-12l36 -37v-983q55 20 136 61q59 29 109 56.5t91 50.5v878h17l-15 15l-4 -4l-178 178l178 178l178 -178l-4 -4l39 -39l-145 -146h180v-12l37 -37v-1024l-852 -405l-39 39zM102 -18l811 385v991h-192v-869q-33 -20 -86 -48.5t-131 -65.5 q-78 -39 -130 -60.5t-79 -29.5v1058h-193v-1361zM131 1577l178 178l178 -178l-4 -4l39 -39l-170 -170l-39 39l-4 -4zM168 1577l141 -141l142 141l-142 141zM551 1573l141 -141l142 141l-142 141z" />
<glyph unicode="&#xfd;" horiz-adv-x="1277" d="M61 1155l441 -498v-690h12l37 -37h221v695q0 10 82 98q88 94 213 219q59 59 90 88t41 29q0 49 -43 92l-10 8q-12 27 -37 47q-23 20 -45.5 37t-52.5 37l-238 -217v299l-37 37v12h-123l228 74v182l-37 37v12h-219l-217 -336l20 6l39 -36l76 24v-366l-275 288 q-35 -35 -75.5 -72.5t-90.5 -68.5zM102 1149q29 18 63 50t62 61l275 -289h26v413h181v-399h14l289 262q16 -10 35.5 -25.5t42.5 -35.5q45 -39 45 -64q-2 0 -125 -123q-125 -125 -213 -219t-88 -112v-674h-181v674zM430 1432l168 258h178v-146z" />
<glyph unicode="&#xfe;" horiz-adv-x="1034" d="M76 -35v1395h239v-12l37 -37v-320l598 -327l-10 -7l39 -36l-627 -310v-379h-4v-4h-223l-37 37h-12zM102 -8h183v4h4v371l602 297l-602 331v338h-187v-1341zM293 571v211l199 -110zM356 633l66 33l-66 36v-69z" />
<glyph unicode="&#xff;" horiz-adv-x="1277" d="M61 1155l441 -498v-690h12l37 -37h221v695q0 10 82 98q88 94 213 219q59 59 90 88t41 29q0 49 -43 92l-10 8q-12 27 -37 47q-23 20 -45.5 37t-52.5 37l-238 -217v299l-37 37v12h-166l70 70l-39 39l4 4l-178 178l-178 -178l178 -178l4 4l39 -39l33 32v-335l-275 288 q-35 -35 -75.5 -72.5t-90.5 -68.5zM102 1149q29 18 63 50t62 61l275 -289h26v413h181v-399h14l289 262q16 -10 35.5 -25.5t42.5 -35.5q45 -39 45 -64q-2 0 -125 -123q-125 -125 -213 -219t-88 -112v-674h-181v674zM285 1524l141 141l141 -141l-141 -142zM631 1520l178 -179 l4 5l39 -39l170 170l-39 39l4 4l-178 178zM668 1520l141 141l141 -141l-141 -142z" />
<glyph unicode="&#x152;" horiz-adv-x="1669" d="M76 676l49 -41l784 -653l43 -35q68 37 100.5 71.5t61.5 75.5q4 6 15.5 21.5t17.5 23.5l-29 27l430 -246h41v256l-37 37v10l-237 121q-33 12 -103 53q-10 4 -17 9.5t-15 9.5l405 262l-37 37l8 6l-225 121q-35 14 -70.5 31.5t-70.5 35.5q27 14 67.5 37t66.5 41.5t40 30.5 l225 121v237l-37 37v12h-49l-395 -221q-23 35 -40 58.5t-28 33.5l-6 4q-10 16 -19 26.5t-14 16.5l-71 72l-854 -696v-43zM102 688v19l826 673l55 -55q14 -14 36.5 -46t55.5 -79l-180 -147l616 346h15v-205l-215 -115q-10 -10 -36 -27.5t-71 -43.5q-41 -23 -71.5 -41.5 t-47.5 -32.5q49 -27 110.5 -58.5t115.5 -54.5l192 -102l-418 -270q18 -14 46 -33t67 -41q78 -49 109 -58l219 -110v-223h-15l-632 364l196 -170q-37 -49 -67.5 -88t-96.5 -76zM465 707l256 -224l409 232l-366 215zM549 668l258 194l258 -151l-342 -195z" />
<glyph unicode="&#x153;" horiz-adv-x="1669" d="M76 676l49 -41l784 -653l43 -35q68 37 100.5 71.5t61.5 75.5q4 6 15.5 21.5t17.5 23.5l-29 27l430 -246h41v256l-37 37v10l-237 121q-33 12 -103 53q-10 4 -17 9.5t-15 9.5l405 262l-37 37l8 6l-225 121q-35 14 -70.5 31.5t-70.5 35.5q27 14 67.5 37t66.5 41.5t40 30.5 l225 121v237l-37 37v12h-49l-395 -221q-23 35 -40 58.5t-28 33.5l-6 4q-10 16 -19 26.5t-14 16.5l-71 72l-854 -696v-43zM102 688v19l826 673l55 -55q14 -14 36.5 -46t55.5 -79l-180 -147l616 346h15v-205l-215 -115q-10 -10 -36 -27.5t-71 -43.5q-41 -23 -71.5 -41.5 t-47.5 -32.5q49 -27 110.5 -58.5t115.5 -54.5l192 -102l-418 -270q18 -14 46 -33t67 -41q78 -49 109 -58l219 -110v-223h-15l-632 364l196 -170q-37 -49 -67.5 -88t-96.5 -76zM465 707l256 -224l360 215q-40 53 -194 133q-109 55 -160 87zM547 670l223 178 q27 -14 63.5 -33.5t86.5 -44.5q35 -18 63.5 -33.5t50.5 -31.5h2l-313 -187z" />
<glyph unicode="&#x178;" horiz-adv-x="1277" d="M61 1155l441 -498v-690h12l37 -37h221v695q0 10 82 98q88 94 213 219q59 59 90 88t41 29q0 49 -43 92l-10 8q-12 27 -37 47q-23 20 -45.5 37t-52.5 37l-238 -217v299l-37 37v12h-166l70 70l-39 39l4 4l-178 178l-178 -178l178 -178l4 4l39 -39l33 32v-335l-275 288 q-35 -35 -75.5 -72.5t-90.5 -68.5zM102 1149q29 18 63 50t62 61l275 -289h26v413h181v-399h14l289 262q16 -10 35.5 -25.5t42.5 -35.5q45 -39 45 -64q-2 0 -125 -123q-125 -125 -213 -219t-88 -112v-674h-181v674zM285 1524l141 141l141 -141l-141 -142zM631 1520l178 -179 l4 5l39 -39l170 170l-39 39l4 4l-178 178zM668 1520l141 141l141 -141l-141 -142z" />
<glyph unicode="&#x2c6;" horiz-adv-x="765" d="M39 1233l20 6l39 -37l308 98l307 -98l-205 316l-21 18l-18 31h-213zM102 1282l168 258h185l168 -258l-261 84z" />
<glyph unicode="&#x2dc;" horiz-adv-x="1107" d="M39 1233l217 334h197l252 -80l323 104l-12 -18l39 -37l-205 -315h-193l-251 79l-308 -98l-39 37zM102 1282l260 84l259 -82h176l168 258l-260 -84l-261 82h-174z" />
<glyph unicode="&#x2000;" horiz-adv-x="877" />
<glyph unicode="&#x2001;" horiz-adv-x="1755" />
<glyph unicode="&#x2002;" horiz-adv-x="877" />
<glyph unicode="&#x2003;" horiz-adv-x="1755" />
<glyph unicode="&#x2004;" horiz-adv-x="585" />
<glyph unicode="&#x2005;" horiz-adv-x="438" />
<glyph unicode="&#x2006;" horiz-adv-x="292" />
<glyph unicode="&#x2007;" horiz-adv-x="292" />
<glyph unicode="&#x2008;" horiz-adv-x="219" />
<glyph unicode="&#x2009;" horiz-adv-x="351" />
<glyph unicode="&#x200a;" horiz-adv-x="97" />
<glyph unicode="&#x2010;" horiz-adv-x="786" d="M76 688l14 -6l35 -33l539 -188q29 47 34 123q4 35 7.5 54t17.5 34l-39 39l6 6q-43 16 -77.5 30.5t-88.5 34.5q-23 10 -51.5 20.5l-66.5 24.5q-246 100 -306 101l-24 -25v-215zM102 707v194q49 0 293 -98q125 -47 187 -71l61 -25q-2 -2 -8 -78q-6 -70 -25 -101z" />
<glyph unicode="&#x2011;" horiz-adv-x="786" d="M76 688l14 -6l35 -33l539 -188q29 47 34 123q4 35 7.5 54t17.5 34l-39 39l6 6q-43 16 -77.5 30.5t-88.5 34.5q-23 10 -51.5 20.5l-66.5 24.5q-246 100 -306 101l-24 -25v-215zM102 707v194q49 0 293 -98q125 -47 187 -71l61 -25q-2 -2 -8 -78q-6 -70 -25 -101z" />
<glyph unicode="&#x2012;" horiz-adv-x="786" d="M76 688l14 -6l35 -33l539 -188q29 47 34 123q4 35 7.5 54t17.5 34l-39 39l6 6q-43 16 -77.5 30.5t-88.5 34.5q-23 10 -51.5 20.5l-66.5 24.5q-246 100 -306 101l-24 -25v-215zM102 707v194q49 0 293 -98q125 -47 187 -71l61 -25q-2 -2 -8 -78q-6 -70 -25 -101z" />
<glyph unicode="&#x2013;" horiz-adv-x="786" d="M76 688l14 -6l35 -33l539 -188q29 47 34 123q4 35 7.5 54t17.5 34l-39 39l6 6q-43 16 -77.5 30.5t-88.5 34.5q-23 10 -51.5 20.5l-66.5 24.5q-246 100 -306 101l-24 -25v-215zM102 707v194q49 0 293 -98q125 -47 187 -71l61 -25q-2 -2 -8 -78q-6 -70 -25 -101z" />
<glyph unicode="&#x2014;" horiz-adv-x="786" d="M76 688l14 -6l35 -33l539 -188q29 47 34 123q4 35 7.5 54t17.5 34l-39 39l6 6q-43 16 -77.5 30.5t-88.5 34.5q-23 10 -51.5 20.5l-66.5 24.5q-246 100 -306 101l-24 -25v-215zM102 707v194q49 0 293 -98q125 -47 187 -71l61 -25q-2 -2 -8 -78q-6 -70 -25 -101z" />
<glyph unicode="&#x2018;" horiz-adv-x="528" d="M72 979l172 453l10 -31l33 -31l164 -434l-164 -164l-39 39l-4 -4zM102 985l142 -141l141 141l-141 371z" />
<glyph unicode="&#x2019;" horiz-adv-x="528" d="M72 1221l172 172l172 -172l-2 -7l37 -36l-164 -435l-39 37l-4 -12zM102 1214l142 -370l141 370l-141 142z" />
<glyph unicode="&#x201a;" horiz-adv-x="528" d="M66 166l178 178l168 -168v-8l37 -37v-158l-259 -239l-30 22l-13 13l-38 28l102 221zM102 166l142 -141l-105 -228l246 228v141l-141 141z" />
<glyph unicode="&#x201c;" horiz-adv-x="856" d="M72 975l172 452l10 -30l33 -31l129 -344l155 410l11 -31l32 -31l164 -434l-164 -164l-39 39l-4 -4l-122 123l-162 -162l-39 39l-4 -4zM102 981l142 -141l141 141l-141 371zM430 985l141 -141l142 141l-142 371z" />
<glyph unicode="&#x201d;" horiz-adv-x="856" d="M72 1217l172 172l162 -162l165 166l172 -172l-2 -7l37 -36l-164 -435l-39 37l-4 -12l-137 358l-147 -387l-39 37l-4 -12zM102 1210l142 -370l141 370l-141 142zM430 1214l141 -370l142 370l-142 142z" />
<glyph unicode="&#x201e;" horiz-adv-x="866" d="M66 168l178 178l168 -168v-4l170 170l168 -168v-8l36 -37v-158l-258 -239l-30 22l-13 13l-39 28l103 221l-100 101v-144l-259 -239l-30 22l-13 13l-38 28l102 221zM102 168l142 -141l-105 -228l246 228v141l-141 141zM440 166l142 -141l-105 -228l246 228v141l-141 141z " />
<glyph unicode="&#x2022;" horiz-adv-x="927" d="M66 662l374 -431l4 5l39 -39l373 426l-39 39l4 4l-377 403zM102 662l342 368l340 -364l-344 -394z" />
<glyph unicode="&#x2026;" horiz-adv-x="1380" d="M66 170l178 178l178 -178l-4 -4l39 -39l-170 -170l-39 39l-4 -4zM102 170l142 -141l141 141l-141 141zM498 162l178 178l178 -178l-4 -4l39 -39l-170 -170l-39 39l-4 -4zM535 162l141 -142l141 142l-141 141zM918 166l178 178l178 -178l-4 -4l39 -39l-170 -170l-39 39 l-4 -4zM954 166l142 -141l141 141l-141 141z" />
<glyph unicode="&#x202f;" horiz-adv-x="351" />
<glyph unicode="&#x2039;" horiz-adv-x="1048" d="M55 592l39 -29l17 -16l651 -479h39v8l145 145l-39 39l4 4l-395 291l461 262l-119 209l-24 25l-17 28zM102 590l705 450l98 -172l-491 -278h16l442 -328l-131 -131h17h-33z" />
<glyph unicode="&#x203a;" horiz-adv-x="1048" d="M66 858l124 221l762 -487l-8 -6l39 -39l-651 -479h-39l-37 36h-12v13l-148 147l430 320l-409 233l-29 27zM102 868l492 -278h-16l-443 -328l131 -131h-16h33l622 459l-704 450z" />
<glyph unicode="&#x205f;" horiz-adv-x="438" />
<glyph unicode="&#x20ac;" horiz-adv-x="1302" d="M68 1006l84 -226h10l37 -37h39l-78 -63v-43l35 -29l14 -12l37 -29q-59 -2 -99.5 -4t-52.5 -8l-12 -29l76 -202h10l37 -37h383l405 -344v2l43 -37q68 37 100.5 71.5t61.5 75.5q4 6 15.5 20.5t17.5 22.5l-39 39l4 4l-168 152h109q8 16 9 25.5t1 19.5q0 35 -12 84 q-20 63 -21 70v22l-37 37v12q-27 0 -48 1t-46 1q-23 0 -50.5 1t-68.5 1h-80l-71 2l-80 64l143 115h365l4 38q0 23 -4 43.5t-11 47.5q-18 68 -18 71v23l-27 26l144 117q-39 57 -64.5 93t-40.5 50l-4 3q-25 35 -35 45l-71 71l-428 -350q-78 0 -164 -2t-161 -5t-128 -7t-65 -6z M102 987q8 2 57.5 4t120 4t153.5 3t161 1l418 342l55 -55q14 -14 36.5 -46t55.5 -79l-203 -166q10 -2 21 -2h20h29h23v-2q0 -8 18 -76q6 -27 10 -47t4 -37l-2 -20h-352l-178 -143l156 -125l79 -2q135 -2 201 -3l66 -1v-2q0 -10 20 -74q12 -49 12 -80q0 -20 -2 -25h-161 l239 -217q-37 -49 -67.5 -88t-96.5 -76l-440 375h-381l-68 182q10 4 72 6.5t150 4.5l-142 106v19l174 139h-190z" />
<glyph unicode="&#x2122;" horiz-adv-x="1196" d="M68 1122l31.5 31.5t47.5 46.5l125 117q76 70 97 69l260 -260v263h43l178 -154q16 14 28.5 22.5t34.5 26.5q35 29 75 58.5t91 50.5v-17l37 -37v-727h-137l-37 37h-12v389l-2 -2q-4 -4 -12.5 -9t-12.5 -9q-25 0 -67 35l-5 4l-16 12v-457h-137l-37 37h-12v363 q-14 -14 -19 -17h-2q-4 -4 -11 -10t-9 -8l-41 37l-2 -2l-76 71v-471h-137l-37 37h-12v400l-78 -64q-4 2 -17 14l-24 23l-2 -2q-14 10 -40 38.5t-54 63.5zM102 1120q14 -16 32 -34.5t30 -28.5l145 123v-504h97v506l139 -133q2 2 10 9t18.5 16t19.5 19.5t13 18.5l-248 248 q-4 0 -67 -62l-125 -116q-33 -31 -48 -46zM655 676h97v479l49 -39q47 -35 53 -35q25 18 48.5 37t53.5 25v-467h97v678q-18 -8 -50 -32t-64 -50.5t-57.5 -47t-33.5 -20.5l-186 158h-7v-686z" />
<glyph unicode="&#x25fc;" horiz-adv-x="1413" d="M0 0v1413h1413v-1413h-1413z" />
</font>
</defs>
</svg>
