<?xml version="1.0" standalone="no"?>
<!DOCTYPE svg PUBLIC "-//W3C//DTD SVG 20010904//EN"
 "http://www.w3.org/TR/2001/REC-SVG-20010904/DTD/svg10.dtd">
<svg version="1.0" xmlns="http://www.w3.org/2000/svg"
 width="768.000000pt" height="768.000000pt" viewBox="0 0 768.000000 768.000000"
 preserveAspectRatio="xMidYMid meet">
<metadata>
Created by potrace 1.14, written by Peter Selinger 2001-2017
</metadata>
<g transform="translate(0.000000,768.000000) scale(0.100000,-0.100000)"
fill="#000000" stroke="none">
<path d="M0 3840 l0 -3840 3840 0 3840 0 0 3840 0 3840 -3840 0 -3840 0 0
-3840z m3884 3629 c39 -46 44 -85 21 -165 -6 -20 -4 -21 42 -17 88 8 147 -55
117 -125 -16 -38 -30 -41 -38 -7 -4 14 -17 32 -30 41 -22 14 -28 14 -53 0 -41
-21 -54 -39 -60 -84 -5 -34 -2 -41 28 -66 27 -23 38 -26 67 -21 25 5 33 3 30
-6 -5 -14 -21 -25 -61 -39 l-28 -10 21 -38 c12 -20 37 -48 57 -62 43 -29 28
-38 -23 -14 -42 20 -89 87 -105 149 -15 61 -26 83 -32 65 -2 -8 -13 -42 -23
-74 -22 -69 -73 -129 -126 -151 -42 -17 -53 -5 -13 13 25 12 85 86 85 106 0 7
-19 18 -42 26 -58 21 -61 39 -5 37 61 -3 87 21 87 80 0 56 -33 93 -83 93 -36
0 -52 -12 -58 -44 -6 -31 -25 -29 -39 5 -27 65 23 121 112 124 41 1 52 5 49
16 -2 8 -6 39 -9 70 -4 52 -2 59 28 92 18 21 38 37 45 37 7 0 25 -14 39 -31z
m-505 -213 c43 -23 56 -44 61 -105 l5 -55 54 3 c66 3 101 -23 101 -76 0 -36
-13 -42 -37 -17 -9 9 -28 14 -46 12 -26 -2 -32 -8 -38 -34 -12 -60 26 -102
105 -114 l41 -6 -42 -14 c-39 -12 -44 -11 -86 13 l-44 26 -37 -40 c-21 -21
-45 -39 -54 -39 -12 0 -10 6 10 28 37 39 43 66 21 102 -15 26 -23 30 -53 28
-25 -2 -38 -10 -47 -28 -17 -34 -34 -31 -49 6 -11 26 -10 36 4 65 16 31 29 39
89 55 9 2 5 18 -12 53 -31 60 -32 98 -3 128 25 27 22 27 57 9z m994 -32 l22
-46 -28 -49 c-30 -54 -28 -69 6 -69 60 -1 97 -83 59 -130 l-19 -24 -14 30
c-11 23 -22 30 -50 32 -30 3 -39 -2 -54 -24 -21 -32 -14 -78 17 -111 17 -19
19 -23 6 -23 -9 0 -32 18 -51 40 l-35 41 -38 -26 c-30 -21 -47 -25 -73 -21
-47 7 -64 26 -25 26 43 0 86 24 107 59 16 27 16 35 5 58 -16 33 -67 44 -88 19
-7 -9 -16 -16 -21 -16 -16 0 -9 68 10 91 15 19 27 22 73 21 61 -1 68 6 68 72
0 31 57 96 84 96 9 0 26 -20 39 -46z m-1411 -110 c25 -13 50 -40 73 -79 9 -15
12 -15 38 5 17 13 42 22 63 22 50 0 61 -15 30 -40 -41 -32 -52 -74 -31 -127
24 -63 62 -92 132 -100 78 -9 94 -15 68 -25 -36 -15 -105 -10 -152 11 -25 11
-47 18 -50 15 -3 -3 2 -23 11 -46 9 -22 16 -54 16 -70 0 -20 11 -39 37 -63
l37 -35 -30 6 c-46 11 -63 25 -77 67 -13 36 -17 40 -42 37 -60 -8 -76 -19 -69
-49 3 -16 15 -43 26 -62 10 -18 17 -35 15 -37 -2 -2 -60 -15 -128 -28 -69 -14
-143 -31 -165 -38 -38 -13 -39 -15 -46 -68 -3 -30 -7 -163 -8 -295 -1 -132 -5
-260 -9 -285 -8 -44 -9 -44 -11 -10 -1 23 -4 28 -7 15 -6 -24 -23 -44 -23 -27
0 6 -7 9 -17 5 -13 -5 -15 -2 -11 15 4 15 2 22 -8 22 -8 0 -14 11 -15 28 0 24
-1 25 -9 7 -13 -30 -12 -42 6 -59 14 -15 14 -16 -1 -16 -19 0 -139 -78 -235
-153 -302 -236 -569 -586 -715 -938 -36 -85 -98 -277 -120 -366 l-17 -73 -38
0 c-22 0 -41 4 -44 8 -11 19 55 257 115 408 145 369 412 734 722 989 78 64
269 195 293 201 30 8 39 81 12 95 -10 6 -19 5 -23 -1 -3 -5 -14 -10 -23 -9
-13 0 -12 3 4 11 14 6 21 19 20 34 -1 25 -10 31 -21 14 -9 -14 -62 -12 -68 3
-4 8 -8 9 -14 1 -11 -15 -52 -24 -59 -13 -3 6 0 16 6 24 9 11 9 15 1 15 -6 0
-11 -4 -11 -10 0 -5 -8 -10 -17 -10 -19 0 -103 -71 -103 -86 0 -5 -14 -15 -32
-23 -26 -12 -40 -12 -77 -2 -25 7 -48 17 -50 23 -2 6 -6 6 -11 -2 -9 -14 71
-60 102 -60 32 0 87 33 91 54 3 18 5 17 12 -8 13 -47 -12 -71 -100 -95 -55
-15 -91 -46 -76 -65 10 -12 4 -19 -32 -40 -24 -14 -50 -26 -58 -26 -8 0 -45
-11 -84 -25 -45 -16 -61 -25 -44 -25 15 0 46 7 70 15 28 10 46 12 52 6 16 -16
-10 -39 -53 -46 -21 -4 -64 -22 -95 -40 -31 -19 -71 -37 -88 -40 -42 -8 -91
10 -83 30 3 8 0 14 -7 12 -7 -1 -14 15 -18 38 l-6 40 -2 -37 c0 -20 -10 -57
-20 -81 l-19 -45 26 14 c15 8 56 14 95 14 48 0 79 6 107 20 39 20 70 26 70 13
0 -15 -35 -43 -54 -43 -34 0 -52 -16 -38 -32 9 -12 2 -21 -36 -50 -26 -20 -78
-66 -117 -102 -52 -48 -83 -69 -122 -81 -70 -21 -74 -20 -63 11 15 37 11 43
-6 11 -15 -28 -34 -28 -34 -1 0 8 -10 33 -22 54 l-23 39 32 98 c18 54 37 118
43 143 17 71 31 110 38 110 4 0 7 -80 7 -178 0 -128 -4 -183 -13 -200 -21 -37
-11 -33 41 14 30 27 43 44 33 44 -9 0 -16 6 -16 13 0 8 -7 29 -16 46 -22 44
-15 125 16 182 39 74 44 83 66 114 11 17 30 51 42 76 29 60 79 109 92 89 7
-12 10 -11 16 5 5 12 3 20 -5 23 -9 3 -9 9 2 25 20 32 28 57 17 57 -5 0 -12
-9 -15 -20 -4 -11 -11 -17 -17 -14 -6 4 -2 14 10 26 21 22 47 16 38 -8 -10
-27 12 -14 35 21 13 19 27 35 32 35 4 0 7 5 7 12 0 6 -13 -1 -29 -16 -18 -17
-31 -24 -35 -17 -4 6 20 31 54 57 33 26 75 60 92 76 64 57 355 248 378 248 4
0 10 3 12 8 2 4 43 27 93 50 49 24 100 53 114 63 13 10 30 19 37 19 8 0 74 22
146 49 73 27 174 59 223 72 50 13 94 26 99 31 14 12 -11 58 -31 58 -19 0 -224
-56 -258 -70 -11 -5 -41 -16 -67 -24 -26 -9 -69 -25 -95 -37 -98 -44 -111 -49
-123 -49 -7 0 -10 7 -6 16 3 8 2 12 -4 9 -5 -3 -17 -2 -27 3 -13 8 -4 13 40
26 31 9 59 21 62 27 8 11 -30 4 -85 -17 -34 -13 -35 -13 -11 4 14 9 38 22 55
28 17 7 65 26 106 44 87 36 333 120 355 120 42 0 27 32 -79 170 -36 46 -62 88
-59 93 6 10 58 0 95 -19z m1858 15 c0 -6 -21 -39 -47 -72 -75 -98 -123 -169
-123 -181 0 -6 37 -22 83 -35 305 -90 652 -260 923 -454 146 -105 253 -196
390 -332 462 -457 759 -1017 884 -1661 11 -58 20 -107 20 -110 0 -3 -23 -4
-52 -2 l-51 3 -28 137 c-206 1028 -936 1887 -1924 2265 -49 19 -135 48 -189
64 -105 31 -130 28 -124 -15 2 -17 21 -26 98 -49 145 -44 289 -83 350 -97 63
-15 80 -25 80 -51 0 -12 17 -27 53 -45 52 -26 108 -59 247 -143 65 -40 276
-192 290 -210 3 -3 41 -38 85 -76 44 -39 87 -79 96 -90 19 -22 16 -36 -3 -17
-7 7 -19 12 -27 12 -12 0 -12 -3 -3 -12 7 -7 12 -21 12 -32 0 -18 1 -18 13 -3
6 9 19 15 28 14 19 -3 50 -32 43 -40 -6 -6 41 -104 61 -127 7 -8 31 -52 54
-96 32 -64 41 -92 41 -133 0 -51 -25 -116 -52 -132 -8 -5 -4 -11 14 -18 27
-10 80 -78 92 -118 9 -28 -1 -29 -69 -8 -27 8 -51 12 -54 10 -5 -5 52 -30 93
-41 16 -4 49 -26 74 -50 25 -24 47 -44 48 -44 2 0 -6 19 -16 43 -24 52 -25 79
-4 119 15 29 17 67 11 182 -3 41 18 43 32 4 10 -29 29 -138 48 -273 6 -48 -26
-100 -57 -90 -13 4 -17 1 -16 -12 1 -14 -8 -19 -37 -21 -49 -4 -92 23 -154 95
-26 30 -74 75 -106 100 -41 32 -55 49 -48 56 7 7 28 -1 67 -27 31 -21 53 -32
48 -24 -18 29 -83 92 -147 141 -60 46 -66 53 -51 64 15 11 14 13 -10 23 -15 5
-32 10 -38 10 -14 0 -48 30 -48 42 0 14 34 9 75 -12 28 -14 59 -20 110 -20 46
0 78 -5 91 -15 21 -14 21 -14 10 20 -7 19 -15 38 -19 41 -4 4 -8 30 -8 58 -1
30 -4 39 -6 21 -7 -56 -14 -76 -33 -95 -29 -29 -74 -25 -145 14 -34 18 -86 41
-114 51 -49 16 -72 37 -57 52 4 4 29 -1 56 -11 27 -10 56 -16 65 -14 10 2 -16
14 -57 27 -40 13 -90 30 -111 39 -41 17 -66 47 -44 55 26 10 -70 67 -113 67
-12 0 -35 13 -51 30 -29 28 -31 29 -55 14 -14 -10 -24 -12 -24 -6 0 6 10 17
23 23 26 14 38 30 31 41 -10 15 -24 8 -24 -12 0 -11 -4 -20 -10 -20 -5 0 -10
6 -10 14 0 8 5 18 10 21 6 3 10 14 10 23 -1 15 -2 15 -13 2 -14 -18 -63 -50
-75 -50 -6 0 -12 9 -15 20 -3 11 -12 20 -20 20 -19 0 -28 -35 -13 -50 8 -10 7
-11 -4 -6 -8 3 -23 9 -32 12 -25 9 -22 24 4 24 12 0 18 3 15 7 -4 3 -2 12 4
19 14 17 -6 28 -30 15 -28 -15 -31 -44 -37 -296 -5 -263 -24 -395 -77 -551
-34 -98 -91 -224 -137 -300 -42 -69 -144 -197 -148 -185 -2 7 2 18 8 26 20 24
3 17 -24 -10 -21 -21 -22 -26 -10 -33 14 -8 13 -10 0 -21 -11 -9 -16 -10 -16
-2 0 6 -5 11 -11 11 -6 0 -9 -9 -6 -20 3 -10 -1 -24 -8 -30 -10 -9 -16 -6 -25
11 -11 19 -10 21 3 16 11 -4 15 0 14 14 -1 11 -7 17 -14 15 -7 -3 -15 -1 -19
5 -3 6 -12 8 -20 5 -21 -8 -17 8 9 35 13 13 33 38 45 56 16 22 28 30 40 27 12
-4 13 -3 5 3 -10 7 -6 20 16 55 83 131 142 250 175 356 56 179 58 207 63 757
2 281 0 515 -4 521 -4 7 -80 28 -167 48 -88 20 -162 39 -165 42 -3 3 0 14 7
25 7 11 10 23 8 28 -5 7 -121 -3 -157 -14 -28 -9 -24 20 6 42 19 13 28 32 35
75 5 31 14 66 20 78 14 25 4 25 -56 -2 -49 -21 -112 -26 -141 -10 -10 6 1 11
36 15 142 17 220 142 141 227 -36 38 -37 46 -7 54 35 9 42 8 81 -19 l36 -24
22 33 c25 38 65 65 112 77 44 10 46 10 46 -2z m-914 -374 c65 -39 121 -58 232
-75 40 -7 71 -14 68 -17 -10 -10 -193 -53 -226 -53 -46 0 -50 4 -98 77 l-40
63 -43 -68 c-53 -80 -62 -83 -193 -52 -125 30 -124 30 -106 39 8 5 39 11 68
15 79 10 173 42 223 76 24 16 47 30 50 30 4 0 33 -16 65 -35z m-1466 -127 c0
-13 -23 -5 -28 10 -2 7 2 10 12 6 9 -3 16 -11 16 -16z m974 -20 c14 -23 23
-45 20 -49 -5 -8 -164 38 -178 52 -13 12 51 38 96 39 33 0 40 -5 62 -42z
m1010 22 c16 -16 -14 -36 -83 -55 -31 -9 -64 -19 -75 -22 -16 -4 -18 -1 -12
22 4 15 14 38 23 52 16 24 21 25 76 20 33 -3 64 -10 71 -17z m-2049 -27 c-11
-3 -24 -9 -29 -14 -16 -15 -29 -10 -16 6 7 8 24 14 39 14 20 -1 22 -2 6 -6z
m103 -15 c-24 -19 -55 -20 -48 -3 3 6 10 9 17 7 7 -2 13 2 13 7 0 5 9 9 20 8
20 -1 20 -2 -2 -19z m1089 -28 c29 -17 82 -57 118 -91 36 -34 65 -56 65 -50 0
17 -28 70 -57 109 -14 18 -23 36 -20 39 10 9 76 -38 103 -73 29 -38 54 -44 54
-15 0 33 17 33 29 0 l11 -32 41 47 c64 72 144 106 85 35 -35 -41 -68 -106 -58
-113 5 -3 26 14 48 36 74 77 192 153 210 136 2 -3 -3 -24 -11 -48 -8 -23 -15
-51 -15 -61 0 -18 3 -18 48 5 50 25 100 40 170 50 52 8 55 -7 5 -22 -52 -16
-105 -50 -100 -65 2 -6 -28 -35 -67 -63 -39 -29 -84 -62 -99 -74 -35 -28 -41
-22 -22 23 22 54 2 54 -55 1 -40 -37 -53 -45 -63 -35 -9 9 -9 14 3 21 8 5 11
12 8 16 -11 10 -129 -37 -135 -53 -6 -16 -48 -10 -73 11 -18 16 -79 46 -93 46
-5 0 -6 -7 -3 -16 14 -36 -8 -32 -57 11 -28 25 -56 45 -61 45 -8 0 -4 -37 10
-75 6 -16 1 -15 -24 8 -16 16 -32 28 -34 26 -9 -7 -127 88 -127 103 -1 19 -94
78 -123 78 -10 0 -18 4 -18 10 0 19 117 -6 204 -45 64 -28 67 -24 41 50 -8 22
-15 43 -15 48 0 14 26 6 77 -23z m-1159 -5 c-2 -1 -14 -8 -28 -15 -25 -13 -25
-13 -6 8 10 12 23 19 28 16 5 -3 8 -7 6 -9z m-98 -49 c0 -3 -4 -8 -10 -11 -5
-3 -10 -1 -10 4 0 6 5 11 10 11 6 0 10 -2 10 -4z m951 -43 c22 -8 51 -29 65
-46 24 -29 25 -32 9 -43 -15 -11 -16 -18 -6 -45 11 -33 7 -56 -5 -25 -3 9 -12
16 -20 16 -7 0 -18 9 -24 20 -17 32 -30 23 -30 -20 0 -22 -4 -40 -10 -40 -5 0
-10 4 -10 8 0 14 -58 77 -65 70 -4 -4 0 -29 10 -57 12 -38 14 -55 5 -70 -6
-12 -13 -21 -16 -21 -3 0 -28 23 -55 50 -45 46 -49 54 -49 98 0 90 10 120 39
125 40 7 119 -2 162 -20z m1325 21 c12 -3 27 -17 33 -30 16 -36 14 -116 -4
-139 -8 -11 -31 -41 -50 -67 -20 -27 -41 -48 -47 -48 -7 0 -9 26 -6 80 3 44 2
80 -2 80 -4 0 -19 -18 -34 -40 -14 -22 -31 -40 -36 -40 -6 0 -10 18 -10 41 l0
41 -29 -31 c-47 -51 -71 -39 -40 20 11 23 17 48 13 62 -5 21 1 27 43 44 73 32
123 39 169 27z m180 -116 c15 -18 35 -51 45 -74 10 -23 37 -60 59 -84 22 -23
37 -47 34 -52 -4 -6 -29 -8 -60 -5 -43 4 -54 3 -54 -9 0 -35 55 -146 97 -195
40 -47 43 -54 27 -60 -11 -4 -29 -8 -42 -8 -18 -1 -22 3 -18 17 5 13 -1 22
-19 30 -24 11 -25 11 -25 -28 0 -27 -6 -43 -19 -52 -11 -8 -27 -40 -37 -73
-14 -46 -19 -54 -22 -35 -9 68 -37 153 -72 222 -37 71 -53 114 -30 78 5 -8 10
-10 10 -4 0 5 -7 19 -15 30 -20 27 -19 34 8 34 26 0 47 17 47 38 0 7 7 20 15
29 10 9 13 23 9 37 -7 21 -6 21 15 2 25 -23 28 -5 6 34 -17 29 -19 44 -5 35 6
-3 8 19 5 60 -2 36 0 65 5 65 4 0 21 -15 36 -32z m-1812 -38 c-1 -33 2 -57 7
-54 13 8 11 1 -11 -50 -20 -47 -17 -56 22 -66 51 -13 49 -11 35 -34 -12 -18
-12 -23 0 -34 8 -8 20 -12 26 -9 7 3 21 -1 30 -8 17 -12 15 -18 -27 -85 -24
-40 -52 -99 -62 -131 -10 -32 -21 -59 -26 -59 -4 0 -8 5 -8 10 0 6 -7 10 -15
10 -8 0 -15 8 -15 19 0 10 -7 24 -15 31 -9 8 -12 22 -8 41 5 26 3 29 -21 29
-14 0 -26 -4 -26 -10 0 -5 -7 -10 -15 -10 -8 0 -15 -4 -15 -10 0 -5 7 -7 15
-4 8 4 15 1 15 -5 0 -6 -16 -11 -35 -11 -19 0 -35 4 -35 9 0 16 18 22 24 9 3
-7 3 -3 0 10 -3 12 -2 22 3 22 25 0 103 164 103 215 0 6 -26 9 -63 7 l-62 -3
32 30 c17 17 46 58 64 91 25 48 73 110 84 110 1 0 1 -27 -1 -60z m1318 -96
c38 -20 35 -34 -7 -34 -44 0 -45 -15 -1 -31 23 -8 37 -22 47 -46 7 -19 19 -39
26 -45 23 -19 14 -33 -23 -35 -20 -1 -38 -4 -41 -7 -3 -3 5 -20 19 -38 13 -18
27 -37 30 -43 9 -15 -280 -11 -295 4 -17 17 -37 13 -37 -8 0 -11 14 -56 30
-101 17 -45 30 -95 30 -111 0 -16 5 -29 10 -29 6 0 10 7 10 15 0 8 9 23 20 33
12 11 18 26 15 34 -5 12 5 16 45 20 31 3 63 14 82 28 29 21 32 22 63 7 38 -18
65 -69 65 -124 0 -46 13 -68 34 -60 32 13 14 -45 -28 -88 -11 -12 -26 -30 -31
-39 -15 -25 -55 -12 -107 35 -49 44 -63 49 -53 17 16 -53 24 -112 21 -141 -3
-18 -5 -39 -5 -48 -1 -9 -10 -26 -21 -39 -11 -13 -20 -27 -20 -32 0 -4 -12 -8
-27 -8 -16 0 -34 -4 -42 -9 -11 -7 -9 -10 8 -16 26 -8 101 3 119 18 7 5 15 7
18 4 3 -3 -13 -15 -35 -28 -45 -25 -45 -44 0 -34 38 9 37 0 -3 -21 -27 -14
-50 -16 -137 -10 -57 4 -112 11 -122 17 -19 10 -44 83 -34 99 3 6 12 10 18 10
22 0 118 73 133 101 25 49 14 129 -17 129 -4 0 -13 -16 -19 -35 -13 -39 -20
-41 -80 -20 -54 19 -121 19 -184 0 -26 -8 -52 -13 -56 -10 -4 2 -10 23 -14 46
l-7 42 -19 -21 c-27 -28 -33 -63 -21 -109 10 -35 49 -83 69 -83 4 0 19 -11 34
-25 15 -14 34 -25 41 -25 24 0 26 -35 5 -68 -22 -35 -36 -41 -90 -40 -31 0
-38 4 -38 19 0 10 -4 19 -10 19 -5 0 -10 -4 -10 -10 0 -5 -5 -10 -12 -10 -6 0
-8 3 -5 7 4 3 2 12 -4 19 -7 8 -7 14 1 19 14 8 -16 45 -36 45 -7 0 -28 21 -46
48 -28 40 -32 55 -31 103 1 35 8 67 18 83 14 21 15 30 6 39 -8 8 -14 9 -19 1
-4 -5 -29 -27 -56 -47 -34 -26 -59 -37 -83 -37 -19 0 -32 4 -29 8 3 5 -5 24
-17 43 -46 73 -57 100 -34 81 16 -14 43 34 50 90 6 43 32 82 64 97 23 10 53 6
53 -8 0 -13 49 -31 82 -31 41 0 78 -36 78 -77 0 -17 4 -34 9 -37 11 -7 21 17
21 52 0 14 14 66 31 115 34 96 33 133 -1 102 -22 -20 -114 -25 -211 -11 -38 6
-63 5 -78 -3 -20 -11 -21 -10 -14 16 4 15 7 42 8 58 0 23 -4 29 -17 27 -22 -4
-23 11 -3 28 8 7 15 18 15 24 0 18 57 76 74 76 33 0 14 19 -21 22 l-37 3 29
19 c17 11 53 22 82 24 42 4 60 0 99 -22 56 -31 64 -32 64 -6 0 23 3 24 28 11
9 -5 33 -15 51 -22 19 -7 49 -26 67 -41 30 -26 64 -30 64 -7 0 5 6 9 14 9 8 0
21 6 28 14 17 17 93 56 108 56 7 0 9 -8 5 -20 -8 -24 7 -26 40 -4 65 43 146
50 207 18z m223 -108 c78 -78 136 -167 166 -251 34 -98 16 -144 -24 -61 -10
21 -21 36 -24 32 -8 -8 15 -93 39 -140 19 -37 153 -186 167 -186 11 0 32 107
25 126 -6 17 -5 17 9 4 26 -26 47 -107 47 -185 0 -43 -4 -75 -10 -75 -5 0 -10
4 -10 9 0 15 -86 101 -101 101 -10 0 -10 -3 -1 -12 17 -17 15 -33 -3 -18 -33
28 -26 -2 14 -53 22 -30 41 -58 41 -62 0 -5 -11 5 -23 23 -29 38 -76 77 -84
68 -4 -3 2 -16 13 -29 39 -44 47 -61 14 -28 -38 37 -52 27 -22 -16 31 -45 36
-60 9 -28 -13 17 -65 71 -113 120 -115 117 -156 195 -193 378 -18 85 -14 117
8 57 10 -31 26 -39 34 -17 3 6 15 -10 27 -38 13 -27 25 -45 27 -39 2 6 -8 64
-21 128 -26 123 -52 179 -112 246 -19 21 -34 40 -34 44 0 18 73 -35 135 -98z
m-1214 49 c-57 -66 -95 -165 -116 -311 -7 -43 7 -68 19 -37 6 15 8 15 16 3 8
-12 10 -10 10 8 0 12 5 21 12 20 7 -2 17 7 23 20 5 12 13 22 16 22 8 0 5 -15
-26 -125 -26 -91 -36 -114 -69 -170 -25 -42 -42 -54 -49 -33 -2 7 -2 3 -1 -9
4 -22 -36 -63 -60 -63 -6 0 -2 8 9 17 18 14 18 15 2 9 -10 -3 -23 -6 -28 -6
-5 0 -7 -16 -4 -35 4 -31 2 -34 -10 -21 -16 16 -6 61 15 68 18 6 0 38 -21 38
-10 0 -19 5 -19 10 0 6 -9 10 -21 10 -16 0 -20 -4 -14 -17 5 -14 4 -15 -6 -6
-10 10 -7 17 12 35 13 13 35 40 48 61 12 20 26 35 29 33 4 -2 8 6 9 17 0 12 8
51 16 87 19 81 9 107 -21 55 -12 -20 -22 -40 -22 -46 0 -5 -4 -9 -9 -9 -11 0
2 61 24 114 37 88 123 199 204 262 30 24 57 41 59 39 3 -2 -9 -20 -27 -40z
m-893 -167 c-2 -9 12 -14 40 -15 24 -1 40 2 37 8 -9 13 7 11 28 -5 16 -13 16
-14 -5 -20 -13 -3 -40 -6 -60 -6 -26 0 -36 -4 -33 -12 3 -8 -4 -13 -19 -13
-24 0 -24 1 -10 23 16 25 3 30 -20 7 -27 -27 -38 -16 -14 14 23 30 60 42 56
19z m-608 -23 c0 -8 -7 -15 -15 -15 -8 0 -15 -5 -15 -11 0 -5 -5 -7 -10 -4 -6
4 -1 14 12 25 28 24 28 24 28 5z m735 -25 c3 -5 -1 -10 -9 -10 -8 0 -18 5 -21
10 -3 6 1 10 9 10 8 0 18 -4 21 -10z m-65 -10 c0 -5 -7 -10 -15 -10 -8 0 -15
5 -15 10 0 6 7 10 15 10 8 0 15 -4 15 -10z m2842 -18 c4 -15 -1 -18 -31 -20
-35 -1 -36 -1 -8 9 15 6 27 15 27 20 0 15 7 10 12 -9z m-2892 -11 c0 -5 -7
-11 -15 -15 -15 -5 -20 5 -8 17 9 10 23 9 23 -2z m-708 -23 c-7 -7 -12 -8 -12
-2 0 14 12 26 19 19 2 -3 -1 -11 -7 -17z m663 2 c3 -5 -1 -10 -9 -10 -9 0 -16
5 -16 10 0 6 4 10 9 10 6 0 13 -4 16 -10z m2870 -10 c3 -5 1 -10 -4 -10 -6 0
-11 5 -11 10 0 6 2 10 4 10 3 0 8 -4 11 -10z m755 -10 c0 -5 -4 -10 -10 -10
-5 0 -10 5 -10 10 0 6 5 10 10 10 6 0 10 -4 10 -10z m-600 -50 c13 -8 13 -10
-2 -10 -9 0 -20 5 -23 10 -8 13 5 13 25 0z m-2746 -45 c-4 -8 -16 -15 -27 -15
-20 0 -20 0 -1 15 25 19 35 19 28 0z m63 -87 c-2 -13 -4 -3 -4 22 0 25 2 35 4
23 2 -13 2 -33 0 -45z m3468 -83 c9 -42 28 -107 41 -145 29 -84 29 -91 4 -138
-10 -20 -22 -46 -25 -57 -5 -16 -14 -6 -42 49 l-35 70 6 110 c4 61 3 135 -2
163 -18 107 27 62 53 -52z m-3345 -55 c0 -5 -5 -10 -11 -10 -5 0 -7 5 -4 10 3
6 8 10 11 10 2 0 4 -4 4 -10z m100 -45 c-7 -8 -17 -15 -23 -15 -6 0 -2 7 9 15
25 19 30 19 14 0z m-1497 -89 c-5 -65 -2 -94 11 -127 19 -46 15 -81 -15 -141
-23 -45 -31 -47 -58 -12 -24 30 -25 51 -11 121 6 26 17 88 24 136 14 84 29
122 46 112 4 -3 5 -43 3 -89z m1574 58 c-3 -3 -12 -4 -19 -1 -8 3 -5 6 6 6 11
1 17 -2 13 -5z m1513 -64 c0 -61 14 -65 26 -7 l8 42 4 -53 c4 -61 -18 -143
-56 -217 -26 -49 -27 -50 -30 -20 -6 49 -17 48 -61 -4 -41 -48 -44 -50 -64
-36 -19 13 -23 13 -44 -7 -27 -25 -28 -18 -9 37 14 39 25 118 26 184 0 27 3
31 13 22 8 -6 22 -29 32 -51 10 -22 21 -40 25 -40 15 0 40 39 67 105 15 39 32
76 36 83 17 25 27 11 27 -38z m331 -12 c15 -28 5 -21 -21 15 -15 20 -17 27 -6
18 9 -8 22 -23 27 -33z m-1618 -31 c3 -8 1 -20 -4 -28 -6 -10 -9 -7 -9 14 0
29 5 35 13 14z m-1896 -54 c-4 -16 -12 -51 -18 -80 -12 -49 -11 -55 14 -101
19 -36 27 -64 27 -101 0 -58 -32 -141 -55 -141 -27 0 -66 65 -66 111 -1 50 43
244 68 302 19 43 38 50 30 10z m413 -12 c-19 -14 -73 -65 -120 -113 -86 -88
-118 -108 -170 -108 -42 0 -46 16 -14 61 33 48 64 71 124 91 25 8 76 35 115
60 38 25 76 43 84 40 11 -4 6 -12 -19 -31z m4627 -12 c26 -52 63 -224 63 -290
0 -34 -6 -53 -26 -77 -15 -18 -32 -32 -38 -32 -7 0 -22 20 -34 45 -31 63 -30
138 3 190 30 49 31 75 6 155 -23 72 -8 77 26 9z m-3157 10 c0 -6 -4 -7 -10 -4
-5 3 -10 11 -10 16 0 6 5 7 10 4 6 -3 10 -11 10 -16z m167 -31 c-3 -8 -6 -5
-6 6 -1 11 2 17 5 13 3 -3 4 -12 1 -19z m207 -12 c-7 -17 -44 -23 -44 -6 0 10
41 31 48 25 1 -1 0 -10 -4 -19z m-68 -27 c8 -14 -10 -11 -32 6 -18 13 -18 14
4 8 12 -3 25 -9 28 -14z m1064 -39 c-14 -60 -8 -73 15 -33 l16 28 -6 -27 c-7
-34 7 -37 24 -5 l11 22 -6 -22 c-7 -29 12 -30 21 -2 4 11 9 18 12 15 3 -3 -2
-26 -11 -52 -9 -26 -14 -50 -11 -52 3 -3 5 -1 5 4 0 5 10 20 21 34 l20 25 -6
-34 c-5 -23 -4 -31 4 -27 14 9 14 1 -1 -25 -11 -17 -10 -23 0 -26 9 -4 6 -16
-10 -46 -13 -23 -26 -43 -30 -45 -5 -2 -8 -9 -8 -17 0 -7 -7 -18 -15 -25 -8
-6 -28 -32 -44 -57 -30 -45 -30 -45 -37 -19 l-6 26 -19 -24 c-10 -13 -19 -29
-19 -34 0 -15 -30 -36 -38 -27 -4 4 -1 10 6 12 6 3 12 12 12 21 -1 15 -3 14
-18 -3 -12 -15 -30 -20 -65 -21 -48 -1 -61 15 -21 26 10 3 20 11 22 18 1 8 -2
11 -8 7 -14 -9 -12 7 4 28 8 10 20 15 30 11 11 -4 16 -1 16 11 0 9 -4 13 -10
10 -5 -3 -10 -2 -10 4 0 5 5 13 11 17 20 12 116 223 135 294 20 79 33 88 14
10z m-980 24 c0 -2 -12 -4 -27 -4 -21 0 -24 3 -14 9 13 8 41 5 41 -5z m-1609
-20 c-17 -14 -45 -54 -62 -90 -27 -55 -31 -71 -26 -114 8 -70 51 -143 121
-206 67 -60 176 -121 186 -103 5 6 17 2 36 -13 16 -14 69 -53 119 -88 49 -36
102 -78 117 -95 46 -48 77 -117 75 -164 -2 -57 -13 -52 -19 9 -6 58 -40 108
-98 145 -21 13 -123 67 -227 119 -103 53 -210 114 -238 137 -131 107 -159 239
-80 369 33 54 97 120 118 120 5 0 -5 -12 -22 -26z m3689 -23 c59 -62 93 -139
92 -214 0 -150 -76 -224 -384 -376 -248 -122 -298 -165 -298 -261 0 -59 -16
-48 -27 18 -14 87 -6 141 22 152 31 12 57 79 45 119 -5 18 -5 33 1 36 15 10
11 65 -5 65 -8 0 -16 -7 -20 -15 -8 -22 -53 -19 -66 4 -14 28 -13 38 10 61 30
30 67 25 106 -14 29 -29 34 -41 34 -79 0 -58 -9 -81 -65 -165 -25 -38 -48 -84
-51 -103 -5 -30 -3 -28 21 19 30 58 65 90 205 189 52 37 97 71 98 75 2 5 10 4
18 -3 11 -9 29 -3 84 30 82 49 171 138 202 201 40 85 20 193 -50 268 -17 17
-26 32 -20 32 6 0 28 -18 48 -39z m-1728 -13 c13 -7 43 -19 68 -28 43 -14 45
-17 48 -57 3 -47 -6 -53 -33 -23 -25 27 -30 25 -32 -11 -1 -18 -4 -34 -7 -36
-9 -9 -26 9 -19 20 9 16 10 57 1 57 -4 0 -8 -11 -8 -24 0 -14 -4 -28 -10 -31
-5 -3 -10 3 -10 14 0 22 -12 26 -63 22 -21 -2 -36 7 -61 33 -18 20 -39 36 -47
36 -12 0 -12 2 1 11 12 9 13 12 1 16 -11 5 -11 7 0 15 19 12 142 3 171 -14z
m-2312 -21 c0 -8 -40 -52 -89 -99 -85 -81 -122 -128 -102 -128 10 0 44 38 72
80 9 14 20 22 24 18 13 -12 -144 -245 -188 -280 -23 -18 -53 -43 -67 -55 -27
-25 -40 -29 -40 -13 0 27 44 121 68 145 18 19 23 29 15 32 -19 7 -16 26 11 87
29 66 68 111 109 126 64 24 136 62 153 81 20 22 34 25 34 6z m4425 -17 c6 -10
48 -30 130 -64 22 -10 50 -27 63 -39 36 -34 85 -135 79 -166 -3 -16 2 -34 14
-49 23 -30 61 -130 54 -142 -3 -5 -39 17 -79 50 -60 50 -86 82 -145 176 -40
64 -70 119 -67 122 3 3 7 3 9 1 24 -35 81 -99 88 -99 22 0 3 25 -91 117 -95
93 -127 138 -81 113 11 -5 23 -15 26 -20z m-2365 5 c-7 -9 -15 -13 -19 -10 -3
3 1 10 9 15 21 14 24 12 10 -5z m45 -25 c-3 -5 -11 -10 -16 -10 -6 0 -7 5 -4
10 3 6 11 10 16 10 6 0 7 -4 4 -10z m182 -76 c-9 -9 -28 6 -21 18 4 6 10 6 17
-1 6 -6 8 -13 4 -17z m-2747 -55 c0 -43 16 -67 55 -83 54 -23 58 -71 14 -163
-36 -74 -77 -53 -85 44 -3 32 -10 83 -16 114 -8 42 -7 66 2 93 13 42 30 39 30
-5z m5333 -31 c0 -29 -4 -93 -10 -142 -10 -89 -24 -116 -59 -116 -16 0 -52 75
-60 126 -5 35 -3 45 15 63 12 12 27 21 35 21 22 0 46 40 46 76 0 17 3 34 7 38
14 14 26 -16 26 -66z m-2335 -31 c2 -12 -1 -15 -12 -11 -19 7 -22 38 -3 32 6
-3 13 -12 15 -21z m-38 -27 c0 -5 -5 -10 -11 -10 -5 0 -7 5 -4 10 3 6 8 10 11
10 2 0 4 -4 4 -10z m27 -22 c-3 -8 -6 -5 -6 6 -1 11 2 17 5 13 3 -3 4 -12 1
-19z m-50 -30 c-3 -8 -6 -5 -6 6 -1 11 2 17 5 13 3 -3 4 -12 1 -19z m-2637 2
c0 -18 -60 -132 -106 -202 -30 -45 -62 -78 -100 -103 l-56 -37 7 -112 c6 -90
5 -109 -6 -99 -14 14 -27 92 -28 171 -1 50 -2 53 -30 58 -43 9 -58 31 -65 99
-3 33 -8 86 -12 118 -4 39 -3 57 5 57 6 0 13 -12 17 -27 12 -57 20 -67 65 -78
41 -10 44 -13 47 -49 l3 -38 49 44 c27 24 71 59 98 80 31 23 58 53 72 82 20
43 40 60 40 36z m4037 -22 c-3 -7 -5 -2 -5 12 0 14 2 19 5 13 2 -7 2 -19 0
-25z m708 -21 c22 -37 49 -65 98 -98 37 -26 77 -59 90 -75 l22 -29 5 40 c4 35
9 40 40 48 47 12 67 31 74 73 12 59 29 40 23 -23 -20 -197 -21 -200 -66 -213
l-38 -10 -6 -92 c-6 -98 -13 -128 -29 -128 -6 0 -7 37 -3 104 l7 103 -56 38
c-31 21 -69 56 -85 79 -37 55 -121 210 -121 225 0 23 16 9 45 -42z m-1898 17
c1 -18 -2 -23 -9 -16 -6 6 -8 18 -5 26 9 22 12 20 14 -10z m-2207 2 c0 -8 12
-28 26 -45 14 -17 22 -31 18 -31 -9 0 -30 26 -49 63 -9 15 -11 27 -5 27 5 0
10 -6 10 -14z m265 -164 c8 -53 8 -54 -14 -41 -11 8 -21 18 -21 23 0 6 -16 27
-36 47 -27 27 -35 43 -30 56 7 17 8 17 20 1 18 -24 26 -23 26 4 0 12 8 30 18
41 16 19 17 18 23 -29 3 -27 9 -73 14 -102z m2899 126 c9 -12 16 -32 16 -43 0
-19 2 -18 20 5 l20 25 0 -30 c0 -21 -9 -38 -28 -55 -16 -14 -34 -35 -41 -48
-6 -12 -18 -22 -25 -22 -10 0 -10 13 1 68 8 37 12 79 9 95 -7 33 7 35 28 5z
m202 -16 c-16 -15 -25 -20 -21 -12 12 21 39 48 44 43 3 -2 -8 -16 -23 -31z
m-2902 -1 c13 -25 13 -31 0 -50 -17 -24 -59 -28 -68 -6 -3 8 -10 15 -15 15 -6
0 -9 -33 -7 -84 3 -86 21 -136 50 -136 14 0 26 -42 26 -89 0 -22 -4 -18 -25
24 -14 28 -41 75 -61 105 -46 73 -59 121 -43 167 26 80 113 113 143 54z m1678
-53 c-7 -7 -12 -8 -12 -2 0 6 3 14 7 17 3 4 9 5 12 2 2 -3 -1 -11 -7 -17z
m105 16 c-3 -3 -12 -4 -19 -1 -8 3 -5 6 6 6 11 1 17 -2 13 -5z m253 -134 c0
-5 -4 -10 -10 -10 -5 0 -10 5 -10 10 0 6 5 10 10 10 6 0 10 -4 10 -10z m25
-40 c3 -5 1 -10 -4 -10 -6 0 -11 5 -11 10 0 6 2 10 4 10 3 0 8 -4 11 -10z
m-2389 -28 c39 -9 71 -21 72 -27 1 -5 -21 -11 -50 -13 -29 -1 -55 -7 -58 -11
-7 -11 -46 -31 -61 -31 -7 0 -2 11 11 25 27 29 19 31 -37 11 -40 -14 -93 -11
-93 6 0 12 99 58 125 57 11 0 52 -8 91 -17z m3282 -8 c29 -14 50 -29 47 -34
-10 -16 -61 -18 -98 -3 -46 19 -59 11 -26 -16 22 -18 22 -20 5 -21 -11 0 -33
10 -50 23 -24 17 -45 22 -88 22 -72 0 -60 12 34 35 100 24 116 24 176 -6z
m-3094 -88 c44 -18 66 -51 66 -98 l0 -37 -23 22 c-13 12 -32 27 -43 33 -10 7
-15 15 -11 20 5 5 22 1 38 -8 24 -14 29 -15 29 -3 0 31 -47 48 -118 43 -74 -5
-131 -30 -198 -84 -41 -34 -68 -42 -78 -25 -17 27 98 112 184 135 71 19 112
19 154 2z m2954 -26 c64 -30 122 -80 122 -106 0 -24 -35 -16 -71 16 -34 29
-111 71 -159 85 -44 14 -113 6 -142 -15 -16 -12 -28 -17 -28 -12 0 13 42 49
70 61 41 18 138 4 208 -29z m-2704 -46 c20 -19 20 -28 0 -45 -13 -11 -19 -8
-40 17 -22 26 -24 26 -19 7 7 -24 -8 -30 -32 -15 -10 6 -9 13 3 30 18 26 65
30 88 6z m2325 -8 c19 -21 20 -24 6 -30 -28 -10 -35 -7 -35 17 0 21 -1 20 -24
-8 -19 -24 -27 -27 -37 -18 -10 10 -10 18 -1 38 15 33 60 34 91 1z m181 14 c0
-5 -4 -10 -9 -10 -5 0 -23 -13 -40 -29 -29 -27 -31 -27 -37 -9 -7 22 -8 20 31
41 35 19 55 21 55 7z m-2750 -40 c12 -8 11 -10 -5 -10 -12 0 -25 -4 -30 -9 -6
-4 -22 -11 -37 -15 -21 -5 -28 -3 -28 8 0 30 67 47 100 26z m2815 -3 c10 -8
15 -19 11 -25 -8 -14 -42 -10 -58 6 -7 7 -18 12 -26 12 -7 0 -10 5 -7 10 9 14
58 12 80 -3z m1615 -145 c60 -33 75 -76 78 -242 l4 -145 31 -20 c37 -23 92
-111 108 -170 25 -90 -11 -197 -90 -274 l-51 -48 0 -273 0 -273 -56 6 c-44 5
-62 2 -87 -14 -34 -20 -92 -26 -102 -9 -4 6 6 10 22 10 28 0 61 15 53 24 -8 8
-322 41 -910 96 -191 18 -726 54 -988 66 -78 4 -145 11 -148 15 -7 13 72 11
374 -6 440 -25 1168 -82 1285 -101 l37 -6 0 54 c0 59 24 109 62 129 33 18 134
15 193 -6 53 -18 128 -70 154 -107 8 -13 18 -43 21 -68 4 -40 8 -45 33 -48
l27 -3 0 140 c0 78 -2 141 -4 141 -1 0 -16 -5 -32 -10 -23 -8 -41 -7 -74 5
l-44 16 25 -27 24 -27 -34 7 c-19 3 -42 13 -52 22 -12 11 -38 15 -85 16 -67 0
-68 0 -45 16 30 20 119 40 181 41 30 1 61 -7 93 -24 l47 -25 0 103 0 103 -187
-94 c-104 -51 -209 -108 -236 -125 -55 -37 -87 -93 -87 -155 0 -46 -4 -50 -27
-26 -12 11 -13 18 -5 23 8 5 9 17 2 41 -5 19 -7 58 -3 88 5 43 10 55 28 62 29
11 46 54 43 115 l-2 50 -33 -32 c-128 -126 -428 -117 -532 16 -51 65 -55 94
-56 379 -1 294 2 282 -72 282 -38 0 -45 -4 -67 -37 -24 -35 -104 -224 -181
-423 -133 -344 -121 -320 -165 -320 l-37 0 -71 203 c-38 111 -73 212 -77 225
-3 12 -10 22 -16 22 -14 0 -59 -99 -130 -283 l-64 -168 -40 3 -39 3 -48 140
c-26 77 -75 221 -109 320 -75 224 -115 308 -149 315 -21 5 -25 12 -28 48 l-3
42 135 0 c74 0 137 -3 140 -8 2 -4 0 -27 -5 -52 -7 -41 -2 -64 69 -272 42
-126 79 -228 82 -228 7 0 85 201 99 255 6 22 11 68 11 101 0 75 -24 114 -71
114 -28 0 -29 2 -29 45 l0 46 138 -3 137 -3 3 -29 c2 -16 -1 -39 -8 -50 -9
-18 -1 -49 45 -181 31 -88 65 -188 76 -222 11 -34 23 -64 28 -67 8 -6 100 220
132 328 33 107 22 136 -51 136 -30 0 -31 1 -28 43 l3 42 328 3 327 2 0 -45 c0
-44 -1 -45 -33 -45 -18 0 -38 -5 -45 -12 -9 -9 -12 -85 -12 -279 0 -259 1
-267 23 -300 34 -52 99 -81 172 -77 79 5 137 33 149 73 4 17 15 42 22 57 10
18 14 66 14 165 -1 240 -25 352 -81 372 -26 9 -29 15 -29 51 l0 40 163 -2 162
-3 3 -38 c3 -34 0 -39 -27 -48 -61 -21 -76 -89 -86 -384 -5 -147 -4 -163 15
-200 28 -55 25 -83 -15 -161 -19 -37 -35 -69 -35 -71 0 -3 17 9 38 26 20 17
77 59 126 93 169 118 224 182 214 249 -5 29 -4 30 9 14 25 -36 9 -82 -50 -142
-48 -50 -33 -56 38 -13 102 60 95 39 95 284 0 199 -1 216 -17 217 -17 1 -17 2
0 6 15 4 17 19 17 126 0 139 -12 176 -69 214 l-34 23 -3023 0 -3023 0 -26 -22
c-15 -13 -30 -41 -35 -63 -11 -48 -13 -715 -2 -731 18 -26 152 -103 152 -87 0
4 -21 29 -47 56 -43 42 -48 53 -48 92 0 30 6 50 19 62 18 17 18 17 7 -4 -6
-12 -11 -38 -11 -58 0 -49 60 -112 204 -215 61 -44 129 -94 151 -112 l40 -33
-20 30 c-40 61 -65 119 -65 151 0 33 -35 104 -51 104 -9 0 -6 -29 13 -113 6
-26 8 -50 5 -53 -9 -9 -47 16 -47 29 0 7 -16 28 -35 47 -34 33 -46 72 -25 85
6 3 13 -1 16 -9 8 -20 24 -21 24 -2 0 7 9 25 20 39 16 20 18 30 10 52 -13 35
-13 151 1 217 16 76 63 153 138 228 78 77 148 113 253 130 283 46 505 -174
467 -460 -21 -152 -141 -308 -284 -368 -130 -54 -265 -51 -377 8 l-58 30 0
-31 c0 -40 24 -85 50 -92 15 -4 20 -14 22 -44 3 -67 -5 -154 -16 -171 -13 -21
-23 -13 -18 13 9 48 -8 93 -52 138 -32 33 -90 68 -234 141 -105 53 -196 96
-201 96 -7 0 -11 -32 -11 -85 0 -91 4 -96 50 -70 46 26 207 10 261 -27 24 -16
23 -17 -42 -16 -49 0 -74 -6 -100 -21 -19 -12 -43 -21 -53 -21 -18 0 -18 1 -3
18 25 28 21 32 -17 17 -20 -9 -48 -12 -65 -9 l-31 7 0 -137 0 -136 26 0 c23 0
26 3 21 27 -16 85 94 184 239 214 117 24 189 -24 189 -127 0 -65 -23 -62 260
-34 804 81 1478 112 2386 109 l657 -2 27 21 c15 12 34 22 41 22 7 0 -45 -57
-115 -127 -97 -97 -147 -156 -203 -243 -126 -192 -220 -395 -288 -625 l-39
-130 0 75 c-1 87 3 100 62 275 85 253 198 435 381 613 67 66 90 95 80 99 -31
12 -1550 -5 -1834 -21 -614 -34 -1090 -75 -1580 -137 -85 -10 -161 -19 -167
-19 -31 0 -9 -20 28 -26 27 -5 36 -10 27 -15 -22 -15 -66 -10 -100 11 -24 14
-42 18 -75 13 l-43 -6 0 264 c0 145 -4 269 -8 274 -4 6 -28 27 -54 48 -32 25
-57 58 -79 102 -27 56 -31 72 -27 127 6 97 69 207 141 244 l27 15 0 157 c1
168 7 193 51 218 20 11 560 13 3064 14 2934 0 3042 -1 3075 -18z m-3496 -197
c90 -24 126 -44 187 -106 67 -67 96 -125 111 -215 24 -140 -27 -287 -137 -399
-152 -154 -398 -187 -560 -75 -175 120 -224 354 -117 555 32 59 127 155 190
192 98 58 220 76 326 48z m991 -12 l70 -18 0 -120 0 -120 -30 -1 c-48 -3 -65
5 -65 30 0 12 -13 43 -29 68 -36 56 -96 83 -186 82 -108 -1 -200 -74 -232
-183 -23 -82 -13 -212 23 -285 49 -101 139 -166 229 -166 80 0 165 82 149 144
-6 27 -50 46 -107 46 -27 0 -28 2 -25 43 l3 42 176 3 c136 2 178 0 182 -10 8
-22 -5 -78 -18 -78 -6 0 -19 -8 -28 -18 -13 -15 -17 -46 -19 -167 l-3 -150
-40 0 c-37 0 -40 2 -43 30 -7 70 -39 91 -92 60 -105 -61 -156 -79 -225 -79
-85 0 -142 24 -219 95 -92 84 -136 220 -116 360 17 118 53 192 135 275 131
132 298 171 510 117z m-1833 -4 c65 -14 97 -30 144 -71 59 -52 86 -119 92
-223 12 -235 -106 -423 -315 -503 -65 -25 -79 -26 -305 -30 l-238 -4 0 46 c0
45 0 46 33 46 18 0 38 5 45 12 17 17 17 619 0 636 -7 7 -27 12 -45 12 -32 0
-33 1 -33 45 l0 45 285 0 c172 0 305 -4 337 -11z m4078 -625 c8 -16 16 -31 18
-33 1 -3 8 4 16 14 12 17 13 16 20 -9 6 -23 -1 -36 -46 -86 -58 -66 -74 -74
-64 -32 3 15 9 62 13 105 6 83 17 93 43 41z m-1860 -274 c0 -6 -7 -25 -16 -41
-28 -56 -45 -192 -54 -454 -10 -299 -22 -360 -95 -512 -67 -137 -234 -333
-272 -319 -7 3 -13 -1 -13 -9 0 -19 -21 -19 -46 0 -10 8 -33 15 -51 15 -25 0
-33 6 -41 28 -6 15 -11 21 -11 14 -1 -13 -48 -7 -65 9 -15 14 -24 11 -29 -8
-4 -14 -5 -12 -6 5 -1 12 -7 22 -16 22 -8 0 -15 6 -15 13 0 8 -4 7 -10 -3 -7
-11 -10 -11 -10 -2 0 7 -4 10 -10 7 -13 -8 -13 -6 9 110 25 129 67 248 145
411 119 249 299 476 531 673 61 52 75 59 75 41z m-3396 -136 c9 -8 16 -24 16
-35 0 -27 -30 -37 -45 -15 -8 10 -16 13 -19 7 -7 -10 -66 -12 -66 -2 0 3 11
19 25 34 29 30 66 35 89 11z m4984 -4 c12 -12 22 -25 22 -30 0 -9 -30 -19 -60
-19 -8 0 -24 -1 -35 -3 -26 -4 -32 33 -10 56 22 22 57 20 83 -4z m-4613 -187
c44 -85 135 -233 176 -288 24 -33 46 -63 50 -67 3 -4 30 -3 61 4 48 10 62 9
103 -6 65 -25 162 -101 248 -194 220 -237 315 -321 390 -349 79 -29 174 -9
235 49 43 42 41 23 -3 -36 -46 -59 -103 -89 -170 -88 -62 0 -152 33 -207 76
-49 37 -176 178 -256 285 -74 99 -156 181 -217 220 -39 25 -60 31 -102 31 -83
0 -77 -15 82 -180 101 -106 175 -172 285 -254 158 -119 214 -152 405 -245 289
-141 549 -204 932 -227 l111 -7 4 -35 4 -35 -180 6 c-100 3 -203 10 -231 16
-27 5 -88 17 -135 26 -175 33 -391 106 -570 193 -113 55 -366 208 -400 242 -3
3 -39 32 -80 65 -231 184 -481 491 -614 753 -32 63 -32 69 -3 75 54 10 62 7
82 -30z m503 -5 c47 -47 -34 -220 -125 -267 -34 -17 -49 -14 -31 7 30 33 67
118 83 187 9 38 19 73 21 77 8 12 38 10 52 -4z m3181 -25 c5 -21 12 -54 16
-73 4 -19 24 -68 46 -108 21 -41 39 -76 39 -78 0 -12 -66 31 -97 64 -47 48
-73 106 -73 163 0 48 13 69 42 69 12 0 20 -12 27 -37z m1343 -42 c7 -6 -65
-180 -115 -278 -179 -350 -457 -707 -737 -946 -52 -45 -97 -84 -100 -87 -8 -9
-190 -143 -240 -177 -137 -93 -441 -255 -555 -296 -245 -89 -311 -111 -417
-136 -263 -62 -358 -77 -593 -92 -155 -10 -425 -2 -540 15 -11 2 -31 4 -45 5
-23 2 -23 3 -5 11 18 7 17 9 -12 20 -42 15 -42 30 0 31 19 1 1 7 -46 16 -43 8
-76 17 -73 20 3 3 42 0 88 -6 382 -54 863 -24 1228 76 558 152 1020 425 1420
839 170 176 294 336 415 534 53 87 185 339 185 353 0 4 11 31 25 61 l25 54 42
-5 c24 -3 46 -8 50 -12z m-3145 -108 c125 -122 223 -308 246 -465 5 -35 4 -38
-19 -38 -42 0 -150 59 -197 107 -62 63 -98 140 -109 232 -5 42 -15 110 -23
151 -8 42 -15 81 -15 88 0 21 52 -12 117 -75z m29 39 c62 -45 129 -126 165
-199 47 -98 53 -112 47 -118 -3 -3 -15 17 -26 45 -33 78 -119 196 -184 250
-64 54 -66 68 -2 22z m-1236 -8 c0 -3 -13 -16 -28 -29 -15 -13 -34 -34 -41
-48 -17 -33 -84 -69 -119 -65 l-27 4 37 19 c36 18 44 40 10 29 -24 -8 57 62
93 80 30 15 75 21 75 10z m2858 -13 c44 -22 77 -56 77 -79 0 -9 14 -23 30 -31
39 -20 12 -26 -44 -11 -28 7 -50 22 -68 47 -16 20 -38 47 -50 60 -13 13 -23
26 -23 28 0 12 44 3 78 -14z m-2241 -217 c17 -8 34 -14 37 -14 10 0 99 -43
126 -60 14 -9 63 -42 111 -72 47 -31 104 -73 127 -94 60 -55 152 -145 152
-150 0 -2 -14 5 -31 15 -18 11 -38 17 -46 14 -12 -5 -14 -1 -9 14 7 22 -16 49
-33 39 -6 -4 -15 3 -21 14 -10 19 -12 19 -29 3 -10 -10 -20 -26 -24 -35 -8
-24 -44 -12 -70 25 -12 16 -21 34 -19 40 2 6 -5 4 -14 -4 -13 -11 -18 -11 -21
-1 -3 6 -11 12 -18 12 -8 0 -19 8 -24 18 -7 14 -18 18 -40 14 -21 -3 -33 0
-37 11 -4 11 -16 14 -44 11 -25 -2 -42 2 -50 11 -7 8 -9 15 -6 15 4 0 1 7 -8
15 -8 8 -19 15 -23 15 -5 0 -20 19 -33 43 -12 23 -38 63 -56 90 -19 26 -34 49
-34 51 0 6 100 -23 137 -40z m148 11 c116 -42 235 -104 299 -155 61 -49 114
-101 148 -143 36 -47 49 -75 28 -62 -5 3 -10 2 -10 -3 0 -5 9 -12 19 -15 25
-6 42 -39 30 -58 -7 -11 -9 -9 -9 9 0 13 -4 21 -8 18 -10 -6 -82 77 -82 95 0
7 -3 10 -6 6 -3 -3 -24 13 -47 35 -122 119 -226 191 -365 254 -143 65 -142 72
3 19z m2426 11 c32 -14 31 -14 -32 -9 -50 4 -73 1 -99 -12 -50 -26 -142 -117
-219 -215 -211 -271 -299 -349 -430 -379 -95 -21 -191 24 -237 112 -15 27 -15
27 31 -7 52 -40 95 -51 165 -43 102 12 158 56 400 315 204 220 315 283 421
238z m-3152 -145 c72 -43 110 -55 215 -70 38 -6 76 -17 85 -26 14 -14 13 -17
-7 -38 -30 -29 -118 -30 -179 -2 -42 21 -193 150 -193 166 0 15 11 11 79 -30z
m2775 27 c-3 -7 -41 -44 -84 -83 -108 -96 -187 -123 -265 -91 -38 16 -48 49
-17 61 9 4 57 14 105 21 85 13 160 42 216 84 30 22 53 26 45 8z m-1335 -68 c0
-10 -3 -8 -9 5 -12 27 -12 43 0 25 5 -8 9 -22 9 -30z m-839 -40 c0 -5 -2 -10
-4 -10 -3 0 -8 5 -11 10 -3 6 -1 10 4 10 6 0 11 -4 11 -10z m400 -132 c0 -5
-9 -4 -20 2 -12 6 -17 16 -13 27 6 14 8 14 20 -3 7 -10 13 -22 13 -26z m30 12
c0 -5 -2 -10 -4 -10 -3 0 -8 5 -11 10 -3 6 -1 10 4 10 6 0 11 -4 11 -10z m75
-80 c3 -5 1 -10 -4 -10 -6 0 -11 5 -11 10 0 6 2 10 4 10 3 0 8 -4 11 -10z m50
-10 c3 -5 1 -10 -4 -10 -6 0 -11 5 -11 10 0 6 2 10 4 10 3 0 8 -4 11 -10z
m110 -20 c-3 -5 -1 -19 5 -30 6 -11 8 -20 6 -20 -10 0 -27 41 -21 50 3 6 8 10
11 10 3 0 2 -4 -1 -10z m272 -152 c-3 -7 -5 -2 -5 12 0 14 2 19 5 13 2 -7 2
-19 0 -25z m989 -35 c-7 -7 -26 7 -26 19 0 6 6 6 15 -2 9 -7 13 -15 11 -17z
m-39 -9 c-3 -3 -12 -4 -19 -1 -8 3 -5 6 6 6 11 1 17 -2 13 -5z m56 -21 c-7 -2
-19 -2 -25 0 -7 3 -2 5 12 5 14 0 19 -2 13 -5z m-716 -9 c-3 -3 -12 -4 -19 -1
-8 3 -5 6 6 6 11 1 17 -2 13 -5z m587 -8 c-3 -8 -13 -12 -27 -8 -20 5 -20 6
-1 13 29 11 34 10 28 -5z m36 0 c0 -3 -4 -8 -10 -11 -5 -3 -10 -1 -10 4 0 6 5
11 10 11 6 0 10 -2 10 -4z m670 -2 c0 -4 -8 -14 -17 -23 -46 -42 -119 -153
-133 -201 -6 -22 -5 -34 7 -45 13 -14 17 -14 27 -2 13 17 59 30 50 15 -3 -5 3
-12 15 -15 21 -5 30 -23 11 -23 -5 0 -10 -5 -10 -11 0 -7 10 -5 25 5 14 9 25
13 25 10 0 -11 -32 -44 -42 -44 -5 0 -19 -9 -30 -20 -12 -11 -26 -19 -31 -17
-5 1 -22 -9 -36 -23 -15 -14 -42 -34 -61 -45 -19 -11 -60 -35 -90 -53 -309
-185 -765 -333 -1140 -371 -257 -25 -546 -21 -740 10 -412 66 -697 163 -1037
350 -63 34 -263 166 -303 199 l-25 21 35 -5 c30 -5 32 -5 11 4 -13 6 -32 8
-41 5 -11 -3 -32 8 -59 34 -40 38 -60 71 -21 36 11 -10 23 -15 28 -11 4 4 -2
14 -12 22 -23 16 -13 19 15 3 16 -8 18 -13 9 -24 -9 -11 -9 -18 3 -30 22 -22
30 -19 25 10 -4 20 -3 23 8 14 8 -6 14 -18 14 -25 0 -16 12 -18 26 -4 6 6 22
6 44 0 18 -5 36 -7 39 -5 2 3 -1 5 -7 5 -7 0 -12 5 -12 11 0 6 7 9 15 5 8 -3
15 0 15 7 0 8 4 7 11 -3 8 -11 12 -12 16 -3 3 8 14 2 30 -18 37 -43 39 -29 3
30 -32 55 -32 56 -81 114 -24 28 -29 41 -21 49 9 9 17 6 34 -9 25 -23 169 -92
203 -97 12 -2 21 -12 23 -27 4 -27 39 -69 58 -69 7 0 18 8 23 18 10 16 10 15
11 -3 0 -15 2 -17 9 -6 5 8 16 11 30 6 22 -7 30 10 9 18 -7 2 -9 8 -5 13 4 5
12 2 16 -5 5 -7 14 -10 20 -7 6 4 11 2 11 -5 0 -10 3 -10 12 -1 10 10 10 15
-1 21 -9 6 -10 11 -2 15 6 4 11 3 11 -3 0 -6 6 -8 14 -5 15 6 109 -38 139 -64
16 -14 20 -14 28 -2 6 9 12 11 15 5 5 -13 107 -6 116 8 9 16 -1 29 -18 23 -19
-7 -18 4 3 19 21 16 73 -3 73 -26 0 -9 11 -20 24 -23 13 -3 32 -8 43 -12 10
-3 1 4 -20 16 -22 12 -37 23 -35 25 7 7 78 -18 78 -26 0 -5 7 -6 15 -3 10 4
15 0 15 -12 0 -15 2 -16 9 -5 7 12 16 12 52 2 185 -52 383 -81 602 -88 118 -4
177 -10 177 -17 0 -6 4 -5 9 2 8 13 171 35 273 36 25 1 44 3 42 6 -3 2 34 13
83 22 160 33 153 32 153 14 0 -17 14 -19 45 -6 19 9 19 9 -2 16 -31 9 -17 27
14 19 15 -3 22 -2 19 4 -8 12 66 34 74 22 3 -4 12 -7 20 -5 36 8 47 8 89 0 30
-6 46 -5 51 3 3 7 14 9 23 5 9 -3 14 -11 11 -16 -4 -6 0 -15 7 -20 11 -7 11
-11 2 -15 -7 -2 -13 -17 -13 -31 1 -24 2 -25 11 -8 11 17 12 17 23 -5 6 -12
18 -24 26 -26 9 -3 11 -1 5 4 -27 21 -42 59 -34 81 5 13 6 28 3 33 -3 5 3 12
13 16 10 4 33 17 52 30 22 15 48 23 77 23 40 0 44 -2 44 -24 0 -20 -6 -24 -42
-30 -23 -4 -50 -14 -60 -23 -25 -22 -23 -53 2 -53 37 0 110 24 110 36 0 7 8
12 18 12 9 0 26 3 36 7 14 6 17 5 12 -3 -5 -8 4 -12 27 -12 24 0 37 6 42 18 6
16 7 16 20 -2 12 -16 17 -17 30 -6 12 10 18 10 30 0 11 -9 15 -10 15 -1 0 8 5
7 15 -3 16 -15 43 -12 58 8 5 7 7 2 4 -11 -3 -13 -1 -23 4 -23 5 0 9 5 9 10 0
6 7 10 15 10 8 0 15 5 15 10 0 6 -7 10 -15 10 -8 0 -15 5 -15 10 0 6 -25 10
-55 10 -57 0 -71 14 -41 39 8 7 20 32 27 56 10 34 18 45 34 45 11 0 63 22 115
49 93 47 120 57 120 45z m-635 -14 c-3 -5 -12 -10 -18 -10 -7 0 -6 4 3 10 19
12 23 12 15 0z m-151 -15 c-10 -8 -25 -15 -31 -15 -18 0 -16 -20 1 -20 7 0 19
-7 26 -15 10 -12 7 -15 -14 -21 -14 -3 -32 -4 -40 -1 -10 4 -13 1 -10 -7 7
-19 -232 -102 -406 -140 -101 -22 -282 -46 -352 -46 l-58 0 0 34 0 33 113 13
c149 16 390 63 491 95 107 35 214 74 251 91 39 18 54 18 29 -1z m56 -4 c0 -5
-8 -12 -17 -15 -10 -3 -6 -4 10 -2 22 3 25 1 16 -10 -14 -17 -56 -18 -62 -1
-4 13 21 36 41 37 6 0 12 -4 12 -9z m-2915 -159 c-8 -8 -25 10 -19 20 4 6 9 5
15 -3 4 -7 6 -15 4 -17z m839 -4 c15 3 18 1 10 -8 -7 -6 -22 -8 -38 -4 -15 3
-25 9 -22 12 3 3 0 12 -6 21 -7 9 -2 7 11 -4 13 -11 33 -18 45 -17z m76 12 c0
-5 -4 -10 -9 -10 -6 0 -13 5 -16 10 -3 6 1 10 9 10 9 0 16 -4 16 -10z m25 -20
c-3 -5 -12 -10 -18 -10 -7 0 -6 4 3 10 19 12 23 12 15 0z m-105 -31 c13 -7 13
-8 0 -8 -8 0 -26 6 -40 15 l-25 15 25 -7 c14 -3 32 -10 40 -15z m1960 17 c0
-2 -7 -7 -16 -10 -8 -3 -12 -2 -9 4 6 10 25 14 25 6z m510 -6 c0 -5 -7 -10
-16 -10 -8 0 -12 5 -9 10 3 6 10 10 16 10 5 0 9 -4 9 -10z m-106 -8 c2 -4 -4
-9 -15 -9 -11 -1 -17 2 -14 8 7 11 22 12 29 1z m511 -2 c13 -6 15 -9 5 -9 -8
0 -22 4 -30 9 -18 12 -2 12 25 0z m-3178 -16 c-3 -3 -12 -4 -19 -1 -8 3 -5 6
6 6 11 1 17 -2 13 -5z m2503 -19 c-10 -12 -10 -15 4 -15 9 0 16 7 16 15 0 10
10 15 30 15 22 0 28 -4 24 -15 -4 -8 -14 -15 -24 -15 -11 0 -22 -4 -25 -10
-11 -18 -45 -11 -45 8 0 21 8 32 23 32 5 0 4 -7 -3 -15z m665 5 c-3 -5 -10
-10 -16 -10 -5 0 -9 5 -9 10 0 6 7 10 16 10 8 0 12 -4 9 -10z m-2377 -647
c-10 -2 -26 -2 -35 0 -10 3 -2 5 17 5 19 0 27 -2 18 -5z m112 -53 c0 -5 -15
-10 -32 -9 -31 1 -32 1 -8 9 35 11 40 11 40 0z m-157 -7 c-7 -2 -19 -2 -25 0
-7 3 -2 5 12 5 14 0 19 -2 13 -5z m91 -11 c2 -4 -13 -6 -35 -4 -21 2 -39 6
-39 8 0 7 69 4 74 -4z m91 -12 c4 -6 -7 -10 -25 -10 -18 0 -29 4 -25 10 3 6
15 10 25 10 10 0 22 -4 25 -10z"/>
<path d="M2630 6712 c9 -19 8 -24 -12 -32 -15 -6 -18 -9 -7 -9 28 -1 41 23 23
45 -14 18 -15 18 -4 -4z"/>
<path d="M2535 6651 c-9 -16 9 -20 23 -5 10 12 10 14 -2 14 -8 0 -17 -4 -21
-9z"/>
<path d="M2222 6134 c-7 -8 -8 -14 -3 -14 10 0 25 19 20 25 -2 1 -10 -3 -17
-11z"/>
<path d="M1966 6085 c-9 -26 -7 -32 5 -12 6 10 9 21 6 23 -2 3 -7 -2 -11 -11z"/>
<path d="M2465 6081 c-6 -11 9 -23 19 -14 9 9 7 23 -3 23 -6 0 -12 -4 -16 -9z"/>
<path d="M1900 6002 c-47 -69 -71 -115 -66 -126 3 -7 5 -7 5 1 1 7 15 32 31
55 17 24 38 53 46 65 9 12 14 27 12 32 -1 6 -14 -6 -28 -27z"/>
<path d="M2006 6004 c-10 -14 -16 -32 -14 -39 2 -8 11 3 20 25 19 46 17 51 -6
14z"/>
<path d="M1820 5984 c0 -8 5 -12 10 -9 6 3 10 10 10 16 0 5 -4 9 -10 9 -5 0
-10 -7 -10 -16z"/>
<path d="M1978 5873 c-10 -2 -18 -9 -18 -15 0 -6 -10 -20 -22 -31 l-23 -20 24
6 c16 4 30 -1 47 -18 14 -14 34 -30 46 -36 12 -7 6 4 -16 25 -39 40 -46 69
-18 85 18 11 10 12 -20 4z"/>
<path d="M1800 5736 c0 -10 -10 -35 -22 -55 -20 -34 -20 -35 -2 -19 11 10 32
19 45 20 21 2 25 6 21 25 -2 12 -8 20 -13 18 -4 -3 -12 3 -18 12 -10 17 -10
17 -11 -1z"/>
<path d="M1692 5710 c0 -19 2 -27 5 -17 2 9 2 25 0 35 -3 9 -5 1 -5 -18z"/>
<path d="M1800 5490 c-9 -6 -10 -10 -3 -10 6 0 15 5 18 10 8 12 4 12 -15 0z"/>
<path d="M5730 6019 c0 -5 5 -7 10 -4 6 3 10 8 10 11 0 2 -4 4 -10 4 -5 0 -10
-5 -10 -11z"/>
<path d="M5817 6000 c3 -11 9 -20 14 -20 11 0 11 3 3 24 -9 23 -23 20 -17 -4z"/>
<path d="M5330 6004 c0 -13 22 -44 28 -40 4 2 15 -6 24 -19 17 -22 17 -23 -5
-19 -12 3 1 -4 28 -16 60 -24 65 -24 91 -5 18 13 17 14 -16 15 -26 0 -31 -3
-20 -10 11 -7 11 -10 2 -10 -7 0 -38 25 -69 55 -56 55 -63 60 -63 49z"/>
<path d="M5264 5985 c-10 -8 -14 -15 -8 -15 6 0 17 7 24 15 16 19 9 19 -16 0z"/>
<path d="M5756 5991 c-3 -5 1 -11 9 -14 9 -4 12 -1 8 9 -6 16 -10 17 -17 5z"/>
<path d="M5786 5947 c3 -10 9 -15 12 -12 3 3 0 11 -7 18 -10 9 -11 8 -5 -6z"/>
<path d="M5530 5940 c-13 -8 -12 -10 3 -10 9 0 17 5 17 10 0 12 -1 12 -20 0z"/>
<path d="M5816 5897 c3 -10 9 -15 12 -12 3 3 0 11 -7 18 -10 9 -11 8 -5 -6z"/>
<path d="M5677 5847 c3 -16 -6 -33 -33 -61 -23 -24 -29 -34 -16 -27 12 6 33
23 47 37 18 18 32 24 48 20 12 -3 16 -3 9 0 -7 3 -17 17 -22 30 -12 31 -39 32
-33 1z"/>
<path d="M5850 5731 c0 -8 -6 -11 -16 -7 -9 3 -12 2 -9 -5 4 -5 1 -17 -7 -26
-7 -10 -8 -14 -1 -10 6 4 23 3 37 -3 19 -7 26 -6 26 3 -1 17 -29 65 -30 48z"/>
<path d="M5961 5724 c0 -11 3 -14 6 -6 3 7 2 16 -1 19 -3 4 -6 -2 -5 -13z"/>
<path d="M5872 5474 c10 -10 20 -16 22 -13 3 3 -5 11 -17 18 -21 13 -21 12 -5
-5z"/>
<path d="M4637 4673 c-12 -11 -8 -23 8 -23 8 0 15 7 15 15 0 16 -12 20 -23 8z"/>
<path d="M3820 5172 c0 -14 62 -24 74 -12 7 7 4 10 -9 10 -11 0 -30 3 -42 6
-13 4 -23 2 -23 -4z"/>
<path d="M3818 5143 c7 -3 16 -2 19 1 4 3 -2 6 -13 5 -11 0 -14 -3 -6 -6z"/>
<path d="M4019 5099 c12 -12 25 -18 29 -14 4 4 -2 13 -12 21 -30 22 -43 17
-17 -7z"/>
<path d="M1330 3857 c-84 -27 -150 -138 -150 -251 1 -118 38 -207 120 -286
146 -141 348 -113 414 58 34 89 12 246 -49 342 -72 113 -219 174 -335 137z"/>
<path d="M637 3733 c-59 -94 -69 -137 -47 -213 13 -44 79 -142 91 -134 5 3 9
91 9 195 -1 157 -4 189 -15 189 -8 0 -25 -17 -38 -37z"/>
<path d="M6960 3578 c0 -174 1 -180 18 -165 29 27 65 107 70 158 3 36 -1 58
-20 95 -33 66 -51 94 -60 94 -5 0 -8 -82 -8 -182z"/>
<path d="M1210 2980 c6 -11 12 -20 14 -20 2 0 2 9 -1 20 -3 11 -9 20 -15 20
-5 0 -4 -9 2 -20z"/>
<path d="M6406 2985 c-9 -26 -7 -32 5 -12 6 10 9 21 6 23 -2 3 -7 -2 -11 -11z"/>
<path d="M997 2950 c-73 -26 -126 -59 -160 -100 -27 -31 -35 -64 -19 -74 9 -5
238 19 307 32 34 7 40 12 37 32 -3 27 -23 55 -31 43 -3 -4 -27 -18 -53 -30
-39 -18 -48 -20 -58 -8 -17 20 22 55 63 56 17 0 26 3 20 6 -28 11 -12 25 22
20 37 -6 47 6 17 22 -39 21 -87 21 -145 1z"/>
<path d="M6512 2963 c-12 -3 -26 -12 -31 -22 -8 -15 -5 -16 27 -13 l37 3 -23
-20 -23 -20 34 6 c42 6 77 -11 77 -37 0 -22 -38 -28 -57 -9 -6 6 -27 14 -46
19 -38 8 -47 0 -47 -40 0 -22 3 -23 205 -45 91 -9 143 -11 149 -5 15 15 -17
74 -56 104 -71 54 -184 90 -246 79z"/>
<path d="M3100 3846 c-96 -51 -140 -163 -120 -306 13 -89 41 -148 99 -209 145
-150 348 -132 423 37 41 92 18 257 -50 358 -82 124 -241 178 -352 120z"/>
<path d="M2230 3868 l-35 -13 -3 -292 -2 -293 37 -16 c53 -23 177 -24 223 -2
135 65 197 283 129 462 -45 119 -97 157 -228 162 -53 3 -99 -1 -121 -8z"/>
<path d="M4011 1854 c0 -11 3 -14 6 -6 3 7 2 16 -1 19 -3 4 -6 -2 -5 -13z"/>
<path d="M4280 1740 c0 -5 5 -10 10 -10 6 0 10 5 10 10 0 6 -4 10 -10 10 -5 0
-10 -4 -10 -10z"/>
<path d="M3478 708 c3 -13 0 -17 -11 -12 -8 3 -18 1 -22 -5 -7 -12 8 -14 42
-5 13 4 20 10 17 15 -3 5 0 9 6 9 6 0 9 4 5 9 -10 18 -42 8 -37 -11z"/>
<path d="M2991 2274 c0 -11 3 -14 6 -6 3 7 2 16 -1 19 -3 4 -6 -2 -5 -13z"/>
<path d="M3230 2130 c0 -5 7 -10 15 -10 8 0 15 5 15 10 0 6 -7 10 -15 10 -8 0
-15 -4 -15 -10z"/>
<path d="M3395 2100 c3 -5 8 -10 11 -10 2 0 4 5 4 10 0 6 -5 10 -11 10 -5 0
-7 -4 -4 -10z"/>
<path d="M2905 1450 c3 -5 13 -10 21 -10 8 0 12 5 9 10 -3 6 -13 10 -21 10 -8
0 -12 -4 -9 -10z"/>
<path d="M2178 1423 c7 -3 16 -2 19 1 4 3 -2 6 -13 5 -11 0 -14 -3 -6 -6z"/>
<path d="M2542 1414 c-7 -8 -10 -19 -6 -26 5 -7 11 -5 21 7 23 33 11 49 -15
19z"/>
<path d="M4580 1410 c-12 -8 -9 -10 13 -10 15 0 27 5 27 10 0 13 -20 13 -40 0z"/>
<path d="M5476 1411 c-4 -7 -5 -15 -2 -18 9 -9 19 4 14 18 -4 11 -6 11 -12 0z"/>
<path d="M2627 1395 c-4 -8 5 -12 24 -13 32 -1 32 12 0 21 -11 2 -22 -1 -24
-8z"/>
<path d="M4688 1403 c7 -3 16 -2 19 1 4 3 -2 6 -13 5 -11 0 -14 -3 -6 -6z"/>
<path d="M4792 1398 c-14 -14 -16 -38 -3 -38 8 0 23 41 17 47 -1 1 -8 -3 -14
-9z"/>
<path d="M5093 1384 c15 -8 27 -19 27 -24 0 -6 5 -10 10 -10 16 0 12 22 -7 36
-10 7 -27 13 -38 13 -17 0 -15 -2 8 -15z"/>
<path d="M2260 1380 c0 -5 5 -10 11 -10 5 0 7 5 4 10 -3 6 -8 10 -11 10 -2 0
-4 -4 -4 -10z"/>
<path d="M2330 1371 c0 -5 11 -8 25 -8 14 0 25 3 25 8 0 5 -11 9 -25 9 -14 0
-25 -4 -25 -9z"/>
<path d="M2655 1360 c3 -5 8 -10 11 -10 2 0 4 5 4 10 0 6 -5 10 -11 10 -5 0
-7 -4 -4 -10z"/>
<path d="M2694 1362 c4 -7 2 -19 -4 -27 -9 -11 -9 -15 -1 -15 18 0 25 30 11
43 -10 9 -11 9 -6 -1z"/>
<path d="M3245 1350 c3 -5 11 -10 16 -10 6 0 7 5 4 10 -3 6 -11 10 -16 10 -6
0 -7 -4 -4 -10z"/>
<path d="M4530 1330 c-13 -8 -12 -10 3 -10 9 0 17 5 17 10 0 12 -1 12 -20 0z"/>
<path d="M4561 1336 c2 -2 29 -6 59 -9 37 -4 50 -3 40 3 -14 9 -109 15 -99 6z"/>
<path d="M5040 1323 c8 -3 22 -11 30 -17 13 -10 13 -9 1 7 -7 9 -21 17 -30 16
-13 0 -14 -1 -1 -6z"/>
<path d="M4480 1310 c0 -5 7 -7 15 -4 8 4 15 8 15 10 0 2 -7 4 -15 4 -8 0 -15
-4 -15 -10z"/>
<path d="M2581 1284 c0 -11 3 -14 6 -6 3 7 2 16 -1 19 -3 4 -6 -2 -5 -13z"/>
<path d="M5360 1290 c0 -5 4 -10 9 -10 6 0 13 5 16 10 3 6 -1 10 -9 10 -9 0
-16 -4 -16 -10z"/>
<path d="M2755 1280 c-3 -5 -1 -10 4 -10 6 0 11 5 11 10 0 6 -2 10 -4 10 -3 0
-8 -4 -11 -10z"/>
<path d="M3798 1283 c6 -2 18 -2 25 0 6 3 1 5 -13 5 -14 0 -19 -2 -12 -5z"/>
<path d="M4925 1230 c-3 -5 -1 -10 4 -10 6 0 11 5 11 10 0 6 -2 10 -4 10 -3 0
-8 -4 -11 -10z"/>
<path d="M4695 1611 c-2 -5 8 -11 23 -14 35 -7 38 -3 7 11 -13 6 -27 7 -30 3z"/>
<path d="M4598 1583 c-10 -2 -18 -9 -18 -14 0 -14 20 -11 36 6 16 15 13 16
-18 8z"/>
</g>
</svg>
